{
.appVersion = "1230";
DisplayStrings = (
"/dotbelowcomb"
);
copyright = "Copyright 2019 The Tomorrow Project Authors (https://github.com/googlefonts/Tomorrow)";
customParameters = (
{
name = panose;
value = (
0,
0,
9,
0,
0,
0,
0,
0,
0,
0
);
},
{
name = unicodeRanges;
value = (
0,
1,
2,
29
);
},
{
name = codePageRanges;
value = (
1252,
1250,
1257
);
},
{
name = blueScale;
value = 0.037;
},
{
name = glyphOrder;
value = (
.notdef,
CR,
space,
A,
Aacute,
Abreve,
uni1EAE,
uni1EB6,
uni1EB0,
uni1EB2,
uni1EB4,
Acircumflex,
uni1EA4,
uni1EAC,
uni1EA6,
uni1EA8,
uni1EAA,
uni0200,
Adieresis,
uni1EA0,
Agrave,
uni1EA2,
uni0202,
Amacron,
Aogonek,
Aring,
Aringacute,
Atilde,
AE,
AEacute,
B,
C,
Cacute,
Ccaron,
Ccedilla,
Ccircumflex,
Cdotaccent,
D,
uni01C4,
Eth,
Dcaron,
Dcroat,
uni01C5,
E,
Eacute,
Ebreve,
Ecaron,
Ecircumflex,
uni1EBE,
uni1EC6,
uni1EC0,
uni1EC2,
uni1EC4,
uni0204,
Edieresis,
Edotaccent,
uni1EB8,
Egrave,
uni1EBA,
uni0206,
Emacron,
Eogonek,
uni1EBC,
F,
G,
Gbreve,
Gcaron,
Gcircumflex,
uni0122,
Gdotaccent,
H,
Hbar,
Hcircumflex,
I,
Iacute,
Ibreve,
Icircumflex,
uni0208,
Idieresis,
Idotaccent,
uni1ECA,
Igrave,
uni1EC8,
uni020A,
Imacron,
Iogonek,
Itilde,
J,
Jcircumflex,
K,
uni0136,
L,
uni01C7,
Lacute,
Lcaron,
uni013B,
Ldot,
uni01C8,
Lslash,
M,
N,
uni01CA,
Nacute,
Ncaron,
uni0145,
Eng,
uni01CB,
Ntilde,
O,
Oacute,
Obreve,
Ocircumflex,
uni1ED0,
uni1ED8,
uni1ED2,
uni1ED4,
uni1ED6,
uni020C,
Odieresis,
uni022A,
uni0230,
uni1ECC,
Ograve,
uni1ECE,
Ohorn,
uni1EDA,
uni1EE2,
uni1EDC,
uni1EDE,
uni1EE0,
Ohungarumlaut,
uni020E,
Omacron,
uni01EA,
Oslash,
Oslashacute,
Otilde,
uni022C,
OE,
P,
Thorn,
Q,
R,
Racute,
Rcaron,
uni0156,
uni0210,
uni0212,
S,
Sacute,
Scaron,
Scedilla,
Scircumflex,
uni0218,
uni1E9E,
uni018F,
T,
Tbar,
Tcaron,
uni0162,
uni021A,
U,
Uacute,
Ubreve,
Ucircumflex,
uni0214,
Udieresis,
uni1EE4,
Ugrave,
uni1EE6,
Uhorn,
uni1EE8,
uni1EF0,
uni1EEA,
uni1EEC,
uni1EEE,
Uhungarumlaut,
uni0216,
Umacron,
Uogonek,
Uring,
Utilde,
V,
W,
Wacute,
Wcircumflex,
Wdieresis,
Wgrave,
X,
Y,
Yacute,

glyphs = (
{
glyphname = .notdef;
lastChange = "2019-09-04 10:55:16 +0000";
layers = (
{
hints = (
{
horizontal = 1;
place = "{61, 137}";
type = Stem;
},
{
horizontal = 1;
place = "{294, 229}";
type = Stem;
},
{
place = "{152, 166}";
type = Stem;
},
{
place = "{408, 166}";
type = Stem;
},
{
place = "{33, 138}";
type = Stem;
},
{
place = "{556, 137}";
type = Stem;
}
);
layerId = "59338637-1E5C-47E2-9B1C-5C70074789A9";
paths = (
{
closed = 1;
nodes = (
"165 -33 LINE",
"175 22 LINE",
"222 61 LINE",
"526 61 LINE",
"560 22 LINE",
"550 -33 LINE",
"687 -33 LINE",
"712 105 LINE",
"617 198 LINE",
"179 198 LINE",
"52 105 LINE",
"27 -33 LINE"
);
},
{
closed = 1;
nodes = (
"370 294 LINE",
"410 523 LINE",
"244 523 LINE",
"204 294 LINE"
);
},
{
closed = 1;
nodes = (
"626 294 LINE",
"666 523 LINE",
"500 523 LINE",
"460 294 LINE"
);
}
);
width = 726;
}
);
note = .notdef;
},
{
glyphname = A;
lastChange = "2019-09-04 10:55:16 +0000";
layers = (
{
hints = (
{
horizontal = 1;
place = "{242, 186}";
type = Stem;
},
{
horizontal = 1;
place = "{600, 137}";
type = Stem;
},
{
place = "{33, 783}";
type = Stem;
}
);
layerId = "59338637-1E5C-47E2-9B1C-5C70074789A9";
paths = (
{
closed = 1;
nodes = (
"396 0 LINE",
"439 242 LINE",
"496 242 LINE",
"453 0 LINE",
"816 0 LINE",
"930 644 LINE",
"832 737 LINE",
"277 737 LINE",
"147 644 LINE",
"33 0 LINE"
);
},
{
closed = 1;
nodes = (
"502 600 LINE",
"559 600 LINE",
"528 428 LINE",
"471 428 LINE"
);
}
);
width = 849;
}
);
leftKerningGroup = A;
note = A;
unicode = 0041;
},
{
glyphname = Aacute;
lastChange = "2019-09-04 10:55:16 +0000";
layers = (
{
hints = (
{
horizontal = 1;
place = "{242, 186}";
type = Stem;
},
{
horizontal = 1;
place = "{600, 137}";
type = Stem;
},
{
horizontal = 1;
place = "{783, 169}";
type = Stem;
},
{
place = "{33, 783}";
type = Stem;
}
);
layerId = "59338637-1E5C-47E2-9B1C-5C70074789A9";
paths = (
{
closed = 1;
nodes = (
"396 0 LINE",
"439 242 LINE",
"496 242 LINE",
"453 0 LINE",
"816 0 LINE",
"930 644 LINE",
"832 737 LINE",
"277 737 LINE",
"147 644 LINE",
"33 0 LINE"
);
},
{
closed = 1;
nodes = (
"502 600 LINE",
"559 600 LINE",
"528 428 LINE",
"471 428 LINE"
);
},
{
closed = 1;
nodes = (
"677 783 LINE",
"878 952 LINE",
"614 952 LINE",
"471 783 LINE"
);
}
);
width = 849;
}
);
leftKerningGroup = A;
note = Aacute;
unicode = 00C1;
},
{
glyphname = Abreve;
lastChange = "2019-09-04 10:55:16 +0000";
layers = (
{
hints = (
{
horizontal = 1;
place = "{242, 186}";
type = Stem;
},
{
horizontal = 1;
place = "{600, 137}";
type = Stem;
},
{
horizontal = 1;
place = "{783, 169}";
type = Stem;
},
{
place = "{154, 226}";
type = Stem;
},
{
place = "{470, 225}";
type = Stem;
}
);
layerId = "59338637-1E5C-47E2-9B1C-5C70074789A9";
paths = (
{
closed = 1;
nodes = (
"396 0 LINE",
"439 242 LINE",
"496 242 LINE",
"453 0 LINE",
"816 0 LINE",
"930 644 LINE",
"832 737 LINE",
"277 737 LINE",
"147 644 LINE",
"33 0 LINE"
);
},
{
closed = 1;
nodes = (
"502 600 LINE",
"559 600 LINE",
"528 428 LINE",
"471 428 LINE"
);
},
{
closed = 1;
nodes = (
"719 783 LINE",
"850 877 LINE",
"863 952 LINE",
"638 952 LINE",
"629 904 LINE",
"539 904 LINE",
"548 952 LINE",
"322 952 LINE",
"309 877 LINE",
"406 783 LINE"
);
}
);
width = 849;
}
);
leftKerningGroup = A;
note = Abreve;
unicode = 0102;
},
{
glyphname = uni1EAE;
lastChange = "2019-09-04 10:55:16 +0000";
layers = (
{
hints = (
{
horizontal = 1;
place = "{600, 137}";
type = Stem;
},
{
horizontal = 1;
place = "{783, 169}";
type = Stem;
},
{
horizontal = 1;
place = "{981, 169}";
type = Stem;
},
{
place = "{33, 783}";
type = Stem;
},
{
horizontal = 1;
place = "{242, 186}";
type = Stem;
},
{
place = "{154, 226}";
type = Stem;
},
{
place = "{470, 225}";
type = Stem;
}
);
layerId = "59338637-1E5C-47E2-9B1C-5C70074789A9";
paths = (
{
closed = 1;
nodes = (
"396 0 LINE",
"439 242 LINE",
"496 242 LINE",
"453 0 LINE",
"816 0 LINE",
"930 644 LINE",
"832 737 LINE",
"277 737 LINE",
"147 644 LINE",
"33 0 LINE"
);
},
{
closed = 1;
nodes = (
"502 600 LINE",
"559 600 LINE",
"528 428 LINE",
"471 428 LINE"
);
},
{
closed = 1;
nodes = (
"719 783 LINE",
"850 877 LINE",
"863 952 LINE",
"638 952 LINE",
"629 904 LINE",
"539 904 LINE",
"548 952 LINE",
"322 952 LINE",
"309 877 LINE",
"406 783 LINE"
);
},
{
closed = 1;
nodes = (
"702 981 LINE",
"903 1150 LINE",
"639 1150 LINE",
"496 981 LINE"
);
}
);
width = 849;
}
);
leftKerningGroup = A;
note = uni1EAE;
unicode = 1EAE;
},
{
glyphname = uni1EB6;
lastChange = "2019-09-04 10:55:16 +0000";
layers = (
{
hints = (
{
horizontal = 1;
place = "{-215, 169}";
type = Stem;
},
{
horizontal = 1;
place = "{600, 137}";
type = Stem;
},
{
horizontal = 1;
place = "{783, 169}";
type = Stem;
},
{
place = "{154, 226}";
type = Stem;
},
{
place = "{470, 225}";
type = Stem;
},
{
horizontal = 1;
place = "{242, 186}";
type = Stem;
},
{
place = "{271, 125}";
type = Stem;
},
{
place = "{453, 125}";
type = Stem;
}
);
layerId = "59338637-1E5C-47E2-9B1C-5C70074789A9";
paths = (
{
closed = 1;
nodes = (
"396 0 LINE",
"439 242 LINE",
"496 242 LINE",
"453 0 LINE",
"816 0 LINE",
"930 644 LINE",
"832 737 LINE",
"277 737 LINE",
"147 644 LINE",
"33 0 LINE"
);
},
{
closed = 1;
nodes = (
"540 -215 LINE",
"570 -46 LINE",
"263 -46 LINE",
"233 -215 LINE"
);
},
{
closed = 1;
nodes = (
"502 600 LINE",
"559 600 LINE",
"528 428 LINE",
"471 428 LINE"
);
},
{
closed = 1;
nodes = (
"719 783 LINE",
"850 877 LINE",
"863 952 LINE",
"638 952 LINE",
"629 904 LINE",
"539 904 LINE",
"548 952 LINE",
"322 952 LINE",
"309 877 LINE",
"406 783 LINE"
);
}
);
width = 849;
}
);
leftKerningGroup = A;
note = uni1EB6;
unicode = 1EB6;
},
{
glyphname = uni1EB0;
lastChange = "2019-09-04 10:55:16 +0000";
layers = (
{
hints = (
{
horizontal = 1;
place = "{600, 137}";
type = Stem;
},
{
horizontal = 1;
place = "{783, 169}";
type = Stem;
},
{
horizontal = 1;
place = "{981, 169}";
type = Stem;
},
{
place = "{33, 783}";
type = Stem;
},
{
horizontal = 1;
place = "{242, 186}";
type = Stem;
},
{
place = "{155, 225}";
type = Stem;
},
{
place = "{470, 226}";
type = Stem;
}
);
layerId = "59338637-1E5C-47E2-9B1C-5C70074789A9";
paths = (
{
closed = 1;
nodes = (
"396 0 LINE",
"439 242 LINE",
"496 242 LINE",
"453 0 LINE",
"816 0 LINE",
"930 644 LINE",
"832 737 LINE",
"277 737 LINE",
"147 644 LINE",
"33 0 LINE"
);
},
{
closed = 1;
nodes = (
"502 600 LINE",
"559 600 LINE",
"528 428 LINE",
"471 428 LINE"
);
},
{
closed = 1;
nodes = (
"720 783 LINE",
"851 877 LINE",
"864 952 LINE",
"638 952 LINE",
"629 904 LINE",
"539 904 LINE",
"548 952 LINE",
"323 952 LINE",
"310 877 LINE",
"407 783 LINE"
);
},
{
closed = 1;
nodes = (
"700 981 LINE",
"617 1150 LINE",
"353 1150 LINE",
"494 981 LINE"
);
}
);
width = 849;
}
);
leftKerningGroup = A;
note = uni1EB0;
unicode = 1EB0;
},
{
glyphname = uni1EB2;
lastChange = "2019-09-04 10:55:16 +0000";
layers = (
{
hints = (
{
horizontal = 1;
place = "{600, 137}";
type = Stem;
},
{
horizontal = 1;
place = "{783, 169}";
type = Stem;
},
{
horizontal = 1;
place = "{1107, 122}";
type = Stem;
},
{
place = "{224, 179}";
type = Stem;
},
{
place = "{442, 184}";
type = Stem;
},
{
horizontal = 1;
place = "{981, 98}";
type = Stem;
},
{
place = "{312, 68}";
type = Stem;
},
{
place = "{470, 62}";
type = Stem;
},
{
horizontal = 1;
place = "{242, 186}";
type = Stem;
}
);
layerId = "59338637-1E5C-47E2-9B1C-5C70074789A9";
paths = (
{
closed = 1;
nodes = (
"396 0 LINE",
"439 242 LINE",
"496 242 LINE",
"453 0 LINE",
"816 0 LINE",
"930 644 LINE",
"832 737 LINE",
"277 737 LINE",
"147 644 LINE",
"33 0 LINE"
);
},
{
closed = 1;
nodes = (
"502 600 LINE",
"559 600 LINE",
"528 428 LINE",
"471 428 LINE"
);
},
{
closed = 1;
nodes = (
"719 783 LINE",
"850 877 LINE",
"863 952 LINE",
"638 952 LINE",
"629 904 LINE",
"539 904 LINE",
"548 952 LINE",
"322 952 LINE",
"309 877 LINE",
"406 783 LINE"
);
},
{
closed = 1;
nodes = (
"705 981 LINE",
"711 1013 LINE",
"751 1013 LINE",
"814 1067 LINE",
"833 1174 LINE",
"778 1229 LINE",
"506 1229 LINE",
"431 1174 LINE",
"419 1107 LINE",
"598 1107 LINE",
"607 1159 LINE",
"646 1159 LINE",
"632 1079 LINE",
"548 1079 LINE",
"494 1033 LINE",
"485 981 LINE"
);
}
);
width = 849;
}
);
leftKerningGroup = A;
note = uni1EB2;
unicode = 1EB2;
},
{
glyphname = uni1EB4;
lastChange = "2019-09-04 10:55:16 +0000";
layers = (
{
hints = (
{
horizontal = 1;
place = "{242, 186}";
type = Stem;
},
{
horizontal = 1;
place = "{600, 137}";
type = Stem;
},
{
horizontal = 1;
place = "{783, 169}";
type = Stem;
},
{
horizontal = 1;
place = "{987, 168}";
type = Stem;
},
{
place = "{158, 155}";
type = Stem;
},
{
place = "{536, 156}";
type = Stem;
},
{
horizontal = 1;
place = "{981, 169}";
type = Stem;
},
{
place = "{470, 225}";
type = Stem;
},
{
place = "{154, 226}";
type = Stem;
}
);
layerId = "59338637-1E5C-47E2-9B1C-5C70074789A9";
paths = (
{
closed = 1;
nodes = (
"396 0 LINE",
"439 242 LINE",
"496 242 LINE",
"453 0 LINE",
"816 0 LINE",
"930 644 LINE",
"832 737 LINE",
"277 737 LINE",
"147 644 LINE",
"33 0 LINE"
);
},
{
closed = 1;
nodes = (
"502 600 LINE",
"559 600 LINE",
"528 428 LINE",
"471 428 LINE"
);
},
{
closed = 1;
nodes = (
"719 783 LINE",
"850 877 LINE",
"863 952 LINE",
"638 952 LINE",
"629 904 LINE",
"539 904 LINE",
"548 952 LINE",
"322 952 LINE",
"309 877 LINE",
"406 783 LINE"
);
},
{
closed = 1;
nodes = (
"772 981 LINE",
"878 1057 LINE",
"895 1150 LINE",
"739 1150 LINE",
"731 1108 LINE",
"696 1108 LINE",
"650 1155 LINE",
"454 1155 LINE",
"348 1079 LINE",
"332 987 LINE",
"487 987 LINE",
"494 1029 LINE",
"529 1029 LINE",
"576 981 LINE"
);
}
);
width = 849;
}
);
leftKerningGroup = A;
note = uni1EB4;
unicode = 1EB4;
},
{
glyphname = Acircumflex;
lastChange = "2019-09-04 10:55:16 +0000";
layers = (
{
hints = (
{
horizontal = 1;
place = "{242, 186}";
type = Stem;
},
{
horizontal = 1;
place = "{600, 137}";
type = Stem;
},
{
horizontal = 1;
place = "{783, 169}";
type = Stem;
},
{
place = "{33, 783}";
type = Stem;
}
);
layerId = "59338637-1E5C-47E2-9B1C-5C70074789A9";
paths = (
{
closed = 1;
nodes = (
"396 0 LINE",
"439 242 LINE",
"496 242 LINE",
"453 0 LINE",
"816 0 LINE",
"930 644 LINE",
"832 737 LINE",
"277 737 LINE",
"147 644 LINE",
"33 0 LINE"
);
},
{
closed = 1;
nodes = (
"502 600 LINE",
"559 600 LINE",
"528 428 LINE",
"471 428 LINE"
);
},
{
closed = 1;
nodes = (
"485 783 LINE",
"577 860 LINE",
"641 783 LINE",
"855 783 LINE",
"757 952 LINE",
"429 952 LINE",
"270 783 LINE"
);
}
);
width = 849;
}
);
leftKerningGroup = A;
note = Acircumflex;
unicode = 00C2;
},
{
glyphname = uni1EA4;
lastChange = "2019-09-04 10:55:16 +0000";
layers = (
{
hints = (
{
horizontal = 1;
place = "{600, 137}";
type = Stem;
},
{
horizontal = 1;
place = "{880, 169}";
type = Stem;
},
{
place = "{33, 1028}";
type = Stem;
},
{
horizontal = 1;
place = "{242, 186}";
type = Stem;
},
{
horizontal = 1;
place = "{783, 169}";
type = Stem;
}
);
layerId = "59338637-1E5C-47E2-9B1C-5C70074789A9";
paths = (
{
closed = 1;
nodes = (
"396 0 LINE",
"439 242 LINE",
"496 242 LINE",
"453 0 LINE",
"816 0 LINE",
"930 644 LINE",
"832 737 LINE",
"277 737 LINE",
"147 644 LINE",
"33 0 LINE"
);
},
{
closed = 1;
nodes = (
"502 600 LINE",
"559 600 LINE",
"528 428 LINE",
"471 428 LINE"
);
},
{
closed = 1;
nodes = (
"485 783 LINE",
"577 860 LINE",
"641 783 LINE",
"856 783 LINE",
"757 952 LINE",
"429 952 LINE",
"271 783 LINE"
);
},
{
closed = 1;
nodes = (
"1045 880 LINE",
"1246 1049 LINE",
"982 1049 LINE",
"839 880 LINE"
);
}
);
width = 849;
}
);
leftKerningGroup = A;
note = uni1EA4;
unicode = 1EA4;
},
{
glyphname = uni1EAC;
lastChange = "2019-09-04 10:55:16 +0000";
layers = (
{
hints = (
{
horizontal = 1;
place = "{-215, 169}";
type = Stem;
},
{
horizontal = 1;
place = "{242, 186}";
type = Stem;
},
{
horizontal = 1;
place = "{600, 137}";
type = Stem;
},
{
horizontal = 1;
place = "{783, 169}";
type = Stem;
},
{
place = "{271, 125}";
type = Stem;
},
{
place = "{453, 125}";
type = Stem;
}
);
layerId = "59338637-1E5C-47E2-9B1C-5C70074789A9";
paths = (
{
closed = 1;
nodes = (
"396 0 LINE",
"439 242 LINE",
"496 242 LINE",
"453 0 LINE",
"816 0 LINE",
"930 644 LINE",
"832 737 LINE",
"277 737 LINE",
"147 644 LINE",
"33 0 LINE"
);
},
{
closed = 1;
nodes = (
"540 -215 LINE",
"570 -46 LINE",
"263 -46 LINE",
"233 -215 LINE"
);
},
{
closed = 1;
nodes = (
"502 600 LINE",
"559 600 LINE",
"528 428 LINE",
"471 428 LINE"
);
},
{
closed = 1;
nodes = (
"485 783 LINE",
"577 860 LINE",
"641 783 LINE",
"855 783 LINE",
"757 952 LINE",
"429 952 LINE",
"270 783 LINE"
);
}
);
width = 849;
}
);
leftKerningGroup = A;
note = uni1EAC;
unicode = 1EAC;
},
{
glyphname = uni1EA6;
lastChange = "2019-09-04 10:55:16 +0000";
layers = (
{
hints = (
{
horizontal = 1;
place = "{600, 137}";
type = Stem;
},
{
horizontal = 1;
place = "{880, 169}";
type = Stem;
},
{
place = "{-211, 1027}";
type = Stem;
},
{
horizontal = 1;
place = "{242, 186}";
type = Stem;
},
{
horizontal = 1;
place = "{783, 169}";
type = Stem;
}
);
layerId = "59338637-1E5C-47E2-9B1C-5C70074789A9";
paths = (
{
closed = 1;
nodes = (
"396 0 LINE",
"439 242 LINE",
"496 242 LINE",
"453 0 LINE",
"816 0 LINE",
"930 644 LINE",
"832 737 LINE",
"277 737 LINE",
"147 644 LINE",
"33 0 LINE"
);
},
{
closed = 1;
nodes = (
"502 600 LINE",
"559 600 LINE",
"528 428 LINE",
"471 428 LINE"
);
},
{
closed = 1;
nodes = (
"321 880 LINE",
"238 1049 LINE",
"-26 1049 LINE",
"115 880 LINE"
);
},
{
closed = 1;
nodes = (
"485 783 LINE",
"577 860 LINE",
"641 783 LINE",
"855 783 LINE",
"757 952 LINE",
"429 952 LINE",
"270 783 LINE"
);
}
);
width = 849;
}
);
leftKerningGroup = A;
note = uni1EA6;
unicode = 1EA6;
},
{
glyphname = uni1EA8;
lastChange = "2019-09-04 10:55:16 +0000";
layers = (
{
hints = (
{
horizontal = 1;
place = "{600, 137}";
type = Stem;
},
{
horizontal = 1;
place = "{783, 169}";
type = Stem;
},
{
horizontal = 1;
place = "{1006, 122}";
type = Stem;
},
{
place = "{584, 179}";
type = Stem;
},
{
place = "{802, 184}";
type = Stem;
},
{
horizontal = 1;
place = "{880, 98}";
type = Stem;
},
{
horizontal = 1;
place = "{242, 186}";
type = Stem;
}
);
layerId = "59338637-1E5C-47E2-9B1C-5C70074789A9";
paths = (
{
closed = 1;
nodes = (
"396 0 LINE",
"439 242 LINE",
"496 242 LINE",
"453 0 LINE",
"816 0 LINE",
"930 644 LINE",
"832 737 LINE",
"277 737 LINE",
"147 644 LINE",
"33 0 LINE"
);
},
{
closed = 1;
nodes = (
"502 600 LINE",
"559 600 LINE",
"528 428 LINE",
"471 428 LINE"
);
},
{
closed = 1;
nodes = (
"485 783 LINE",
"577 860 LINE",
"641 783 LINE",
"855 783 LINE",
"757 952 LINE",
"429 952 LINE",
"270 783 LINE"
);
},
{
closed = 1;
nodes = (
"1047 880 LINE",
"1053 912 LINE",
"1093 912 LINE",
"1156 966 LINE",
"1175 1073 LINE",
"1120 1128 LINE",
"848 1128 LINE",
"773 1073 LINE",
"761 1006 LINE",
"940 1006 LINE",
"950 1058 LINE",
"989 1058 LINE",
"974 978 LINE",
"890 978 LINE",
"836 932 LINE",
"827 880 LINE"
);
}
);
width = 849;
}
);
leftKerningGroup = A;
note = uni1EA8;
unicode = 1EA8;
},
{
glyphname = uni1EAA;
lastChange = "2019-09-04 10:55:16 +0000";
layers = (
{
hints = (
{
horizontal = 1;
place = "{242, 186}";
type = Stem;
},
{
horizontal = 1;
place = "{600, 137}";
type = Stem;
},
{
horizontal = 1;
place = "{783, 169}";
type = Stem;
},
{
horizontal = 1;
place = "{987, 168}";
type = Stem;
},
{
place = "{159, 155}";
type = Stem;
},
{
place = "{537, 156}";
type = Stem;
},
{
horizontal = 1;
place = "{981, 169}";
type = Stem;
}
);
layerId = "59338637-1E5C-47E2-9B1C-5C70074789A9";
paths = (
{
closed = 1;
nodes = (
"396 0 LINE",
"439 242 LINE",
"496 242 LINE",
"453 0 LINE",
"816 0 LINE",
"930 644 LINE",
"832 737 LINE",
"277 737 LINE",
"147 644 LINE",
"33 0 LINE"
);
},
{
closed = 1;
nodes = (
"502 600 LINE",
"559 600 LINE",
"528 428 LINE",
"471 428 LINE"
);
},
{
closed = 1;
nodes = (
"485 783 LINE",
"577 860 LINE",
"641 783 LINE",
"855 783 LINE",
"757 952 LINE",
"429 952 LINE",
"270 783 LINE"
);
},
{
closed = 1;
nodes = (
"773 981 LINE",
"879 1057 LINE",
"896 1150 LINE",
"740 1150 LINE",
"732 1108 LINE",
"697 1108 LINE",
"651 1155 LINE",
"455 1155 LINE",
"349 1079 LINE",
"333 987 LINE",
"488 987 LINE",
"495 1029 LINE",
"530 1029 LINE",
"577 981 LINE"
);
}
);
width = 849;
}
);
leftKerningGroup = A;
note = uni1EAA;
unicode = 1EAA;
},
{
glyphname = uni0200;
lastChange = "2019-09-04 10:55:16 +0000";
layers = (
{
hints = (
{
horizontal = 1;
place = "{242, 186}";
type = Stem;
},
{
horizontal = 1;
place = "{600, 137}";
type = Stem;
},
{
horizontal = 1;
place = "{783, 169}";
type = Stem;
},
{
place = "{11, 805}";
type = Stem;
}
);
layerId = "59338637-1E5C-47E2-9B1C-5C70074789A9";
paths = (
{
closed = 1;
nodes = (
"396 0 LINE",
"439 242 LINE",
"496 242 LINE",
"453 0 LINE",
"816 0 LINE",
"930 644 LINE",
"832 737 LINE",
"277 737 LINE",
"147 644 LINE",
"33 0 LINE"
);
},
{
closed = 1;
nodes = (
"502 600 LINE",
"559 600 LINE",
"528 428 LINE",
"471 428 LINE"
);
},
{
closed = 1;
nodes = (
"515 783 LINE",
"432 952 LINE",
"179 952 LINE",
"321 783 LINE"
);
},
{
closed = 1;
nodes = (
"804 783 LINE",
"720 952 LINE",
"467 952 LINE",
"609 783 LINE"
);
}
);
width = 849;
}
);
leftKerningGroup = A;
note = uni0200;
unicode = 0200;
},
{
glyphname = Adieresis;
lastChange = "2019-09-04 10:55:16 +0000";
layers = (
{
hints = (
{
horizontal = 1;
place = "{242, 186}";
type = Stem;
},
{
horizontal = 1;
place = "{600, 137}";
type = Stem;
},
{
horizontal = 1;
place = "{783, 169}";
type = Stem;
},
{
place = "{129, 274}";
type = Stem;
},
{
place = "{449, 274}";
type = Stem;
}
);
layerId = "59338637-1E5C-47E2-9B1C-5C70074789A9";
paths = (
{
closed = 1;
nodes = (
"396 0 LINE",
"439 242 LINE",
"496 242 LINE",
"453 0 LINE",
"816 0 LINE",
"930 644 LINE",
"832 737 LINE",
"277 737 LINE",
"147 644 LINE",
"33 0 LINE"
);
},
{
closed = 1;
nodes = (
"502 600 LINE",
"559 600 LINE",
"528 428 LINE",
"471 428 LINE"
);
},
{
closed = 1;
nodes = (
"541 783 LINE",
"571 952 LINE",
"297 952 LINE",
"267 783 LINE"
);
},
{
closed = 1;
nodes = (
"861 783 LINE",
"891 952 LINE",
"617 952 LINE",
"587 783 LINE"
);
}
);
width = 849;
}
);
leftKerningGroup = A;
note = Adieresis;
unicode = 00C4;
},
{
glyphname = uni1EA0;
lastChange = "2019-09-04 10:55:16 +0000";
layers = (
{
hints = (
{
horizontal = 1;
place = "{-215, 169}";
type = Stem;
},
{
horizontal = 1;
place = "{242, 186}";
type = Stem;
},
{
horizontal = 1;
place = "{600, 137}";
type = Stem;
},
{
place = "{271, 125}";
type = Stem;
},
{
place = "{453, 125}";
type = Stem;
}
);
layerId = "59338637-1E5C-47E2-9B1C-5C70074789A9";
paths = (
{
closed = 1;
nodes = (
"396 0 LINE",
"439 242 LINE",
"496 242 LINE",
"453 0 LINE",
"816 0 LINE",
"930 644 LINE",
"832 737 LINE",
"277 737 LINE",
"147 644 LINE",
"33 0 LINE"
);
},
{
closed = 1;
nodes = (
"540 -215 LINE",
"570 -46 LINE",
"263 -46 LINE",
"233 -215 LINE"
);
},
{
closed = 1;
nodes = (
"502 600 LINE",
"559 600 LINE",
"528 428 LINE",
"471 428 LINE"
);
}
);
width = 849;
}
);
leftKerningGroup = A;
note = uni1EA0;
unicode = 1EA0;
},
{
glyphname = Agrave;
lastChange = "2019-09-04 10:55:16 +0000";
layers = (
{
hints = (
{
horizontal = 1;
place = "{242, 186}";
type = Stem;
},
{
horizontal = 1;
place = "{600, 137}";
type = Stem;
},
{
horizontal = 1;
place = "{783, 169}";
type = Stem;
},
{
place = "{33, 783}";
type = Stem;
}
);
layerId = "59338637-1E5C-47E2-9B1C-5C70074789A9";
paths = (
{
closed = 1;
nodes = (
"396 0 LINE",
"439 242 LINE",
"496 242 LINE",
"453 0 LINE",
"816 0 LINE",
"930 644 LINE",
"832 737 LINE",
"277 737 LINE",
"147 644 LINE",
"33 0 LINE"
);
},
{
closed = 1;
nodes = (
"502 600 LINE",
"559 600 LINE",
"528 428 LINE",
"471 428 LINE"
);
},
{
closed = 1;
nodes = (
"665 783 LINE",
"582 952 LINE",
"318 952 LINE",
"459 783 LINE"
);
}
);
width = 849;
}
);
leftKerningGroup = A;
note = Agrave;
unicode = 00C0;
},
{
glyphname = uni1EA2;
lastChange = "2019-09-04 10:55:16 +0000";
layers = (
{
hints = (
{
horizontal = 1;
place = "{600, 137}";
type = Stem;
},
{
horizontal = 1;
place = "{908, 122}";
type = Stem;
},
{
place = "{227, 179}";
type = Stem;
},
{
place = "{445, 184}";
type = Stem;
},
{
horizontal = 1;
place = "{782, 98}";
type = Stem;
},
{
horizontal = 1;
place = "{242, 186}";
type = Stem;
}
);
layerId = "59338637-1E5C-47E2-9B1C-5C70074789A9";
paths = (
{
closed = 1;
nodes = (
"396 0 LINE",
"439 242 LINE",
"496 242 LINE",
"453 0 LINE",
"816 0 LINE",
"930 644 LINE",
"832 737 LINE",
"277 737 LINE",
"147 644 LINE",
"33 0 LINE"
);
},
{
closed = 1;
nodes = (
"502 600 LINE",
"559 600 LINE",
"528 428 LINE",
"471 428 LINE"
);
},
{
closed = 1;
nodes = (
"673 782 LINE",
"679 814 LINE",
"719 814 LINE",
"782 868 LINE",
"801 975 LINE",
"746 1030 LINE",
"474 1030 LINE",
"399 975 LINE",
"387 908 LINE",
"566 908 LINE",
"575 960 LINE",
"614 960 LINE",
"600 880 LINE",
"516 880 LINE",
"462 834 LINE",
"453 782 LINE"
);
}
);
width = 849;
}
);
leftKerningGroup = A;
note = uni1EA2;
unicode = 1EA2;
},
{
glyphname = uni0202;
lastChange = "2019-09-04 10:55:16 +0000";
layers = (
{
hints = (
{
horizontal = 1;
place = "{242, 186}";
type = Stem;
},
{
horizontal = 1;
place = "{600, 137}";
type = Stem;
},
{
horizontal = 1;
place = "{783, 169}";
type = Stem;
},
{
place = "{188, 174}";
type = Stem;
},
{
place = "{487, 174}";
type = Stem;
}
);
layerId = "59338637-1E5C-47E2-9B1C-5C70074789A9";
paths = (
{
closed = 1;
nodes = (
"396 0 LINE",
"439 242 LINE",
"496 242 LINE",
"453 0 LINE",
"816 0 LINE",
"930 644 LINE",
"832 737 LINE",
"277 737 LINE",
"147 644 LINE",
"33 0 LINE"
);
},
{
closed = 1;
nodes = (
"502 600 LINE",
"559 600 LINE",
"528 428 LINE",
"471 428 LINE"
);
},
{
closed = 1;
nodes = (
"500 783 LINE",
"507 825 LINE",
"632 825 LINE",
"625 783 LINE",
"799 783 LINE",
"814 865 LINE",
"733 952 LINE",
"451 952 LINE",
"341 865 LINE",
"326 783 LINE"
);
}
);
width = 849;
}
);
leftKerningGroup = A;
note = uni0202;
unicode = 0202;
},
{
glyphname = Amacron;
lastChange = "2019-09-04 10:55:16 +0000";
layers = (
{
hints = (
{
horizontal = 1;
place = "{242, 186}";
type = Stem;
},
{
horizontal = 1;
place = "{600, 137}";
type = Stem;
},
{
horizontal = 1;
place = "{783, 169}";
type = Stem;
},
{
place = "{33, 783}";
type = Stem;
}
);
layerId = "59338637-1E5C-47E2-9B1C-5C70074789A9";
paths = (
{
closed = 1;
nodes = (
"396 0 LINE",
"439 242 LINE",
"496 242 LINE",
"453 0 LINE",
"816 0 LINE",
"930 644 LINE",
"832 737 LINE",
"277 737 LINE",
"147 644 LINE",
"33 0 LINE"
);
},
{
closed = 1;
nodes = (
"502 600 LINE",
"559 600 LINE",
"528 428 LINE",
"471 428 LINE"
);
},
{
closed = 1;
nodes = (
"860 783 LINE",
"890 952 LINE",
"296 952 LINE",
"266 783 LINE"
);
}
);
width = 849;
}
);
leftKerningGroup = A;
note = Amacron;
unicode = 0100;
},
{
glyphname = Aogonek;
lastChange = "2019-09-04 10:55:16 +0000";
layers = (
{
hints = (
{
horizontal = 1;
place = "{-198, 143}";
type = Stem;
},
{
horizontal = 1;
place = "{242, 186}";
type = Stem;
},
{
horizontal = 1;
place = "{600, 137}";
type = Stem;
},
{
place = "{453, 142}";
type = Stem;
}
);
layerId = "59338637-1E5C-47E2-9B1C-5C70074789A9";
paths = (
{
closed = 1;
nodes = (
"560 -198 LINE",
"585 -55 LINE",
"564 -55 LINE",
"553 -44 LINE",
"557 -23 LINE",
"590 0 LINE",
"816 0 LINE",
"930 644 LINE",
"832 737 LINE",
"277 737 LINE",
"147 644 LINE",
"33 0 LINE",
"396 0 LINE",
"439 242 LINE",
"496 242 LINE",
"453 0 LINE",
"401 -33 LINE",
"385 -127 LINE",
"460 -198 LINE"
);
},
{
closed = 1;
nodes = (
"502 600 LINE",
"559 600 LINE",
"528 428 LINE",
"471 428 LINE"
);
}
);
width = 849;
}
);
leftKerningGroup = A;
note = Aogonek;
unicode = 0104;
},
{
glyphname = Aring;
lastChange = "2019-09-04 10:55:16 +0000";
layers = (
{
hints = (
{
horizontal = 1;
place = "{242, 186}";
type = Stem;
},
{
horizontal = 1;
place = "{600, 137}";
type = Stem;
},
{
horizontal = 1;
place = "{783, 107}";
type = Stem;
},
{
horizontal = 1;
place = "{925, 107}";
type = Stem;
},
{
place = "{281, 127}";
type = Stem;
},
{
place = "{443, 126}";
type = Stem;
}
);
layerId = "59338637-1E5C-47E2-9B1C-5C70074789A9";
paths = (
{
closed = 1;
nodes = (
"396 0 LINE",
"439 242 LINE",
"496 242 LINE",
"453 0 LINE",
"816 0 LINE",
"930 644 LINE",
"832 737 LINE",
"277 737 LINE",
"147 644 LINE",
"33 0 LINE"
);
},
{
closed = 1;
nodes = (
"502 600 LINE",
"559 600 LINE",
"528 428 LINE",
"471 428 LINE"
);
},
{
closed = 1;
nodes = (
"628 783 LINE",
"721 862 LINE",
"737 953 LINE",
"672 1032 LINE",
"542 1032 LINE",
"449 953 LINE",
"433 862 LINE",
"498 783 LINE"
);
},
{
closed = 1;
nodes = (
"567 901 LINE",
"569 914 LINE",
"582 925 LINE",
"595 925 LINE",
"604 914 LINE",
"602 901 LINE",
"589 890 LINE",
"576 890 LINE"
);
}
);
width = 849;
}
);
leftKerningGroup = A;
note = Aring;
unicode = 00C5;
},
{
glyphname = Aringacute;
lastChange = "2019-09-04 10:55:16 +0000";
layers = (
{
hints = (
{
horizontal = 1;
place = "{242, 186}";
type = Stem;
},
{
horizontal = 1;
place = "{600, 137}";
type = Stem;
},
{
horizontal = 1;
place = "{783, 107}";
type = Stem;
},
{
horizontal = 1;
place = "{925, 107}";
type = Stem;
},
{
horizontal = 1;
place = "{1064, 169}";
type = Stem;
},
{
place = "{281, 127}";
type = Stem;
},
{
place = "{443, 126}";
type = Stem;
}
);
layerId = "59338637-1E5C-47E2-9B1C-5C70074789A9";
paths = (
{
closed = 1;
nodes = (
"396 0 LINE",
"439 242 LINE",
"496 242 LINE",
"453 0 LINE",
"816 0 LINE",
"930 644 LINE",
"832 737 LINE",
"277 737 LINE",
"147 644 LINE",
"33 0 LINE"
);
},
{
closed = 1;
nodes = (
"502 600 LINE",
"559 600 LINE",
"528 428 LINE",
"471 428 LINE"
);
},
{
closed = 1;
nodes = (
"628 783 LINE",
"721 862 LINE",
"737 953 LINE",
"672 1032 LINE",
"542 1032 LINE",
"449 953 LINE",
"433 862 LINE",
"498 783 LINE"
);
},
{
closed = 1;
nodes = (
"567 901 LINE",
"569 914 LINE",
"582 925 LINE",
"595 925 LINE",
"604 914 LINE",
"602 901 LINE",
"589 890 LINE",
"576 890 LINE"
);
},
{
closed = 1;
nodes = (
"717 1064 LINE",
"917 1233 LINE",
"653 1233 LINE",
"511 1064 LINE"
);
}
);
width = 849;
}
);
leftKerningGroup = A;
note = Aringacute;
unicode = 01FA;
},
{
glyphname = Atilde;
lastChange = "2019-09-04 10:55:16 +0000";
layers = (
{
hints = (
{
horizontal = 1;
place = "{242, 186}";
type = Stem;
},
{
horizontal = 1;
place = "{600, 137}";
type = Stem;
},
{
horizontal = 1;
place = "{789, 168}";
type = Stem;
},
{
place = "{158, 155}";
type = Stem;
},
{
place = "{536, 156}";
type = Stem;
},
{
horizontal = 1;
place = "{783, 169}";
type = Stem;
}
);
layerId = "59338637-1E5C-47E2-9B1C-5C70074789A9";
paths = (
{
closed = 1;
nodes = (
"396 0 LINE",
"439 242 LINE",
"496 242 LINE",
"453 0 LINE",
"816 0 LINE",
"930 644 LINE",
"832 737 LINE",
"277 737 LINE",
"147 644 LINE",
"33 0 LINE"
);
},
{
closed = 1;
nodes = (
"502 600 LINE",
"559 600 LINE",
"528 428 LINE",
"471 428 LINE"
);
},
{
closed = 1;
nodes = (
"737 783 LINE",
"843 859 LINE",
"860 952 LINE",
"704 952 LINE",
"696 910 LINE",
"661 910 LINE",
"615 957 LINE",
"419 957 LINE",
"313 881 LINE",
"297 789 LINE",
"452 789 LINE",
"460 831 LINE",
"495 831 LINE",
"541 783 LINE"
);
}
);
width = 849;
}
);
leftKerningGroup = A;
note = Atilde;
unicode = 00C3;
},
{
glyphname = AE;
lastChange = "2019-09-04 10:55:16 +0000";
layers = (
{
hints = (
{
horizontal = 1;
place = "{0, 237}";
type = Stem;
},
{
horizontal = 1;
place = "{294, 149}";
type = Stem;
},
{
horizontal = 1;
place = "{600, 137}";
type = Stem;
},
{
place = "{33, 1114}";
type = Stem;
},
{
horizontal = 1;
place = "{242, 186}";
type = Stem;
}
);
layerId = "59338637-1E5C-47E2-9B1C-5C70074789A9";
paths = (
{
closed = 1;
nodes = (
"396 0 LINE",
"439 242 LINE",
"496 242 LINE",
"453 0 LINE",
"1147 0 LINE",
"1189 237 LINE",
"858 237 LINE",
"868 294 LINE",
"1153 294 LINE",
"1179 443 LINE",
"894 443 LINE",
"904 501 LINE",
"1235 501 LINE",
"1277 737 LINE",
"277 737 LINE",
"147 644 LINE",
"33 0 LINE"
);
},
{
closed = 1;
nodes = (
"502 600 LINE",
"559 600 LINE",
"528 428 LINE",
"471 428 LINE"
);
}
);
width = 1180;
}
);
leftKerningGroup = A;
note = AE;
unicode = 00C6;
},
{
glyphname = AEacute;
lastChange = "2019-09-04 10:55:16 +0000";
layers = (
{
hints = (
{
horizontal = 1;
place = "{0, 237}";
type = Stem;
},
{
horizontal = 1;
place = "{294, 149}";
type = Stem;
},
{
horizontal = 1;
place = "{600, 137}";
type = Stem;
},
{
horizontal = 1;
place = "{783, 169}";
type = Stem;
},
{
place = "{33, 1114}";
type = Stem;
},
{
horizontal = 1;
place = "{242, 186}";
type = Stem;
}
);
layerId = "59338637-1E5C-47E2-9B1C-5C70074789A9";
paths = (
{
closed = 1;
nodes = (
"396 0 LINE",
"439 242 LINE",
"496 242 LINE",
"453 0 LINE",
"1147 0 LINE",
"1189 237 LINE",
"858 237 LINE",
"868 294 LINE",
"1153 294 LINE",
"1179 443 LINE",
"894 443 LINE",
"904 501 LINE",
"1235 501 LINE",
"1277 737 LINE",
"277 737 LINE",
"147 644 LINE",
"33 0 LINE"
);
},
{
closed = 1;
nodes = (
"502 600 LINE",
"559 600 LINE",
"528 428 LINE",
"471 428 LINE"
);
},
{
closed = 1;
nodes = (
"638 783 LINE",
"839 952 LINE",
"575 952 LINE",
"432 783 LINE"
);
}
);
width = 1180;
}
);
note = AEacute;
unicode = 01FC;
},
{
glyphname = B;
lastChange = "2019-09-04 10:55:16 +0000";
layers = (
{
hints = (
{
horizontal = 1;
place = "{0, 138}";
type = Stem;
},
{
horizontal = 1;
place = "{329, 118}";
type = Stem;
},
{
horizontal = 1;
place = "{600, 137}";
type = Stem;
},
{
place = "{33, 761}";
type = Stem;
},
{
place = "{453, 320}";
type = Stem;
}
);
layerId = "59338637-1E5C-47E2-9B1C-5C70074789A9";
paths = (
{
closed = 1;
nodes = (
"680 0 LINE",
"811 94 LINE",
"853 334 LINE",
"785 396 LINE",
"851 442 LINE",
"887 644 LINE",
"789 737 LINE",
"163 737 LINE",
"33 0 LINE"
);
},
{
closed = 1;
nodes = (
"454 329 LINE",
"511 329 LINE",
"477 138 LINE",
"420 138 LINE"
);
},
{
closed = 1;
nodes = (
"502 600 LINE",
"559 600 LINE",
"532 447 LINE",
"475 447 LINE"
);
}
);
width = 827;
}
);
note = B;
rightKerningGroup = B;
unicode = 0042;
},
{
glyphname = C;
lastChange = "2019-09-04 10:55:16 +0000";
layers = (
{
hints = (
{
horizontal = 1;
place = "{0, 138}";
type = Stem;
},
{
horizontal = 1;
place = "{600, 137}";
type = Stem;
},
{
place = "{33, 783}";
type = Stem;
}
);
layerId = "59338637-1E5C-47E2-9B1C-5C70074789A9";
paths = (
{
closed = 1;
nodes = (
"702 0 LINE",
"833 94 LINE",
"876 338 LINE",
"513 338 LINE",
"477 138 LINE",
"420 138 LINE",
"502 600 LINE",
"559 600 LINE",
"524 404 LINE",
"887 404 LINE",
"930 644 LINE",
"832 737 LINE",
"277 737 LINE",
"147 644 LINE",
"50 94 LINE",
"147 0 LINE"
);
}
);
width = 849;
}
);
note = C;
unicode = 0043;
},
{
glyphname = Cacute;
lastChange = "2019-09-04 10:55:16 +0000";
layers = (
{
hints = (
{
horizontal = 1;
place = "{0, 138}";
type = Stem;
},
{
horizontal = 1;
place = "{600, 137}";
type = Stem;
},
{
horizontal = 1;
place = "{783, 169}";
type = Stem;
},
{
place = "{33, 783}";
type = Stem;
}
);
layerId = "59338637-1E5C-47E2-9B1C-5C70074789A9";
paths = (
{
closed = 1;
nodes = (
"702 0 LINE",
"833 94 LINE",
"876 338 LINE",
"513 338 LINE",
"477 138 LINE",
"420 138 LINE",
"502 600 LINE",
"559 600 LINE",
"524 404 LINE",
"887 404 LINE",
"930 644 LINE",
"832 737 LINE",
"277 737 LINE",
"147 644 LINE",
"50 94 LINE",
"147 0 LINE"
);
},
{
closed = 1;
nodes = (
"677 783 LINE",
"878 952 LINE",
"614 952 LINE",
"471 783 LINE"
);
}
);
width = 849;
}
);
note = Cacute;
unicode = 0106;
},
{
glyphname = Ccaron;
lastChange = "2019-09-04 10:55:16 +0000";
layers = (
{
hints = (
{
horizontal = 1;
place = "{0, 138}";
type = Stem;
},
{
horizontal = 1;
place = "{600, 137}";
type = Stem;
},
{
horizontal = 1;
place = "{783, 169}";
type = Stem;
},
{
place = "{33, 783}";
type = Stem;
}
);
layerId = "59338637-1E5C-47E2-9B1C-5C70074789A9";
paths = (
{
closed = 1;
nodes = (
"702 0 LINE",
"833 94 LINE",
"876 338 LINE",
"513 338 LINE",
"477 138 LINE",
"420 138 LINE",
"502 600 LINE",
"559 600 LINE",
"524 404 LINE",
"887 404 LINE",
"930 644 LINE",
"832 737 LINE",
"277 737 LINE",
"147 644 LINE",
"50 94 LINE",
"147 0 LINE"
);
},
{
closed = 1;
nodes = (
"726 783 LINE",
"885 952 LINE",
"670 952 LINE",
"578 875 LINE",
"514 952 LINE",
"300 952 LINE",
"398 783 LINE"
);
}
);
width = 849;
}
);
note = Ccaron;
unicode = 010C;
},
{
glyphname = Ccedilla;
lastChange = "2019-09-04 10:55:16 +0000";
layers = (
{
hints = (
{
horizontal = 1;
place = "{0, 138}";
type = Stem;
},
{
horizontal = 1;
place = "{600, 137}";
type = Stem;
},
{
place = "{33, 783}";
type = Stem;
}
);
layerId = "59338637-1E5C-47E2-9B1C-5C70074789A9";
paths = (
{
closed = 1;
nodes = (
"451 -125 LINE",
"544 0 LINE",
"702 0 LINE",
"833 94 LINE",
"876 338 LINE",
"513 338 LINE",
"477 138 LINE",
"420 138 LINE",
"502 600 LINE",
"559 600 LINE",
"524 404 LINE",
"887 404 LINE",
"930 644 LINE",
"832 737 LINE",
"277 737 LINE",
"147 644 LINE",
"50 94 LINE",
"147 0 LINE",
"306 0 LINE",
"263 -125 LINE"
);
}
);
width = 849;
}
);
note = Ccedilla;
unicode = 00C7;
},
{
glyphname = Ccircumflex;
lastChange = "2019-09-04 10:55:16 +0000";
layers = (
{
hints = (
{
horizontal = 1;
place = "{0, 138}";
type = Stem;
},
{
horizontal = 1;
place = "{600, 137}";
type = Stem;
},
{
horizontal = 1;
place = "{783, 169}";
type = Stem;
},
{
place = "{33, 783}";
type = Stem;
}
);
layerId = "59338637-1E5C-47E2-9B1C-5C70074789A9";
paths = (
{
closed = 1;
nodes = (
"702 0 LINE",
"833 94 LINE",
"876 338 LINE",
"513 338 LINE",
"477 138 LINE",
"420 138 LINE",
"502 600 LINE",
"559 600 LINE",
"524 404 LINE",
"887 404 LINE",
"930 644 LINE",
"832 737 LINE",
"277 737 LINE",
"147 644 LINE",
"50 94 LINE",
"147 0 LINE"
);
},
{
closed = 1;
nodes = (
"485 783 LINE",
"577 860 LINE",
"641 783 LINE",
"855 783 LINE",
"757 952 LINE",
"429 952 LINE",
"270 783 LINE"
);
}
);
width = 849;
}
);
note = Ccircumflex;
unicode = 0108;
},
{
glyphname = Cdotaccent;
lastChange = "2019-09-04 10:55:16 +0000";
layers = (
{
hints = (
{
horizontal = 1;
place = "{0, 138}";
type = Stem;
},
{
horizontal = 1;
place = "{600, 137}";
type = Stem;
},
{
horizontal = 1;
place = "{783, 168}";
type = Stem;
},
{
place = "{271, 125}";
type = Stem;
},
{
place = "{453, 125}";
type = Stem;
}
);
layerId = "59338637-1E5C-47E2-9B1C-5C70074789A9";
paths = (
{
closed = 1;
nodes = (
"702 0 LINE",
"833 94 LINE",
"876 338 LINE",
"513 338 LINE",
"477 138 LINE",
"420 138 LINE",
"502 600 LINE",
"559 600 LINE",
"524 404 LINE",
"887 404 LINE",
"930 644 LINE",
"832 737 LINE",
"277 737 LINE",
"147 644 LINE",
"50 94 LINE",
"147 0 LINE"
);
},
{
closed = 1;
nodes = (
"716 783 LINE",
"746 951 LINE",
"439 951 LINE",
"409 783 LINE"
);
}
);
width = 849;
}
);
note = Cdotaccent;
unicode = 010A;
},
{
glyphname = D;
lastChange = "2019-09-04 10:55:16 +0000";
layers = (
{
hints = (
{
horizontal = 1;
place = "{0, 138}";
type = Stem;
},
{
horizontal = 1;
place = "{601, 137}";
type = Stem;
},
{
place = "{33, 783}";
type = Stem;
}
);
layerId = "59338637-1E5C-47E2-9B1C-5C70074789A9";
paths = (
{
closed = 1;
nodes = (
"647 0 LINE",
"842 149 LINE",
"920 590 LINE",
"777 738 LINE",
"163 738 LINE",
"33 0 LINE"
);
},
{
closed = 1;
nodes = (
"502 601 LINE",
"559 601 LINE",
"477 138 LINE",
"420 138 LINE"
);
}
);
width = 849;
}
);
note = D;
unicode = 0044;
},
{
glyphname = uni01C4;
lastChange = "2019-09-04 10:55:16 +0000";
layers = (
{
hints = (
{
horizontal = 1;
place = "{0, 138}";
type = Stem;
},
{
horizontal = 1;
place = "{601, 137}";
type = Stem;
},
{
horizontal = 1;
place = "{783, 169}";
type = Stem;
},
{
place = "{33, 1554}";
type = Stem;
},
{
horizontal = 1;
place = "{0, 237}";
type = Stem;
},
{
horizontal = 1;
place = "{501, 236}";
type = Stem;
}
);
layerId = "59338637-1E5C-47E2-9B1C-5C70074789A9";
paths = (
{
closed = 1;
nodes = (
"647 0 LINE",
"842 149 LINE",
"920 590 LINE",
"777 738 LINE",
"163 738 LINE",
"33 0 LINE"
);
},
{
closed = 1;
nodes = (
"502 601 LINE",
"559 601 LINE",
"477 138 LINE",
"420 138 LINE"
);
},
{
closed = 1;
nodes = (
"1587 0 LINE",
"1629 237 LINE",
"1356 237 LINE",
"1675 501 LINE",
"1717 737 LINE",
"1013 737 LINE",
"971 501 LINE",
"1232 501 LINE",
"913 237 LINE",
"871 0 LINE"
);
},
{
closed = 1;
nodes = (
"1531 783 LINE",
"1690 952 LINE",
"1475 952 LINE",
"1383 875 LINE",
"1319 952 LINE",
"1105 952 LINE",
"1203 783 LINE"
);
}
);
width = 1609;
}
);
note = uni01C4;
unicode = 01C4;
},
{
glyphname = Eth;
lastChange = "2019-09-04 10:55:16 +0000";
layers = (
{
hints = (
{
horizontal = 1;
place = "{0, 138}";
type = Stem;
},
{
horizontal = 1;
place = "{300, 149}";
type = Stem;
},
{
horizontal = 1;
place = "{601, 137}";
type = Stem;
},
{
place = "{-15, 831}";
type = Stem;
}
);
layerId = "59338637-1E5C-47E2-9B1C-5C70074789A9";
paths = (
{
closed = 1;
nodes = (
"647 0 LINE",
"842 149 LINE",
"920 590 LINE",
"777 738 LINE",
"163 738 LINE",
"112 449 LINE",
"64 449 LINE",
"38 300 LINE",
"86 300 LINE",
"33 0 LINE"
);
},
{
closed = 1;
nodes = (
"449 300 LINE",
"489 300 LINE",
"515 449 LINE",
"475 449 LINE",
"502 601 LINE",
"559 601 LINE",
"477 138 LINE",
"420 138 LINE"
);
}
);
width = 849;
}
);
note = Eth;
unicode = 00D0;
},
{
glyphname = Dcaron;
lastChange = "2019-09-04 10:55:16 +0000";
layers = (
{
hints = (
{
horizontal = 1;
place = "{0, 138}";
type = Stem;
},
{
horizontal = 1;
place = "{601, 137}";
type = Stem;
},
{
horizontal = 1;
place = "{783, 169}";
type = Stem;
},
{
place = "{33, 783}";
type = Stem;
}
);
layerId = "59338637-1E5C-47E2-9B1C-5C70074789A9";
paths = (
{
closed = 1;
nodes = (
"647 0 LINE",
"842 149 LINE",
"920 590 LINE",
"777 738 LINE",
"163 738 LINE",
"33 0 LINE"
);
},
{
closed = 1;
nodes = (
"502 601 LINE",
"559 601 LINE",
"477 138 LINE",
"420 138 LINE"
);
},
{
closed = 1;
nodes = (
"693 783 LINE",
"852 952 LINE",
"637 952 LINE",
"545 875 LINE",
"481 952 LINE",
"267 952 LINE",
"365 783 LINE"
);
}
);
width = 849;
}
);
note = Dcaron;
unicode = 010E;
},
{
glyphname = Dcroat;
lastChange = "2019-09-04 10:55:16 +0000";
layers = (
{
hints = (
{
horizontal = 1;
place = "{0, 138}";
type = Stem;
},
{
horizontal = 1;
place = "{300, 149}";
type = Stem;
},
{
horizontal = 1;
place = "{601, 137}";
type = Stem;
},
{
place = "{-15, 831}";
type = Stem;
}
);
layerId = "59338637-1E5C-47E2-9B1C-5C70074789A9";
paths = (
{
closed = 1;
nodes = (
"647 0 LINE",
"842 149 LINE",
"920 590 LINE",
"777 738 LINE",
"163 738 LINE",
"112 449 LINE",
"64 449 LINE",
"38 300 LINE",
"86 300 LINE",
"33 0 LINE"
);
},
{
closed = 1;
nodes = (
"449 300 LINE",
"483 300 LINE",
"509 449 LINE",
"475 449 LINE",
"502 601 LINE",
"559 601 LINE",
"477 138 LINE",
"420 138 LINE"
);
}
);
width = 849;
}
);
note = Dcroat;
unicode = 0110;
},
{
glyphname = uni01C5;
lastChange = "2019-09-04 10:55:16 +0000";
layers = (
{
hints = (
{
horizontal = 1;
place = "{0, 138}";
type = Stem;
},
{
horizontal = 1;
place = "{374, 149}";
type = Stem;
},
{
horizontal = 1;
place = "{601, 137}";
type = Stem;
},
{
place = "{33, 1439}";
type = Stem;
},
{
horizontal = 1;
place = "{569, 169}";
type = Stem;
},
{
horizontal = 1;
place = "{0, 149}";
type = Stem;
}
);
layerId = "59338637-1E5C-47E2-9B1C-5C70074789A9";
paths = (
{
closed = 1;
nodes = (
"647 0 LINE",
"842 149 LINE",
"920 590 LINE",
"777 738 LINE",
"163 738 LINE",
"33 0 LINE"
);
},
{
closed = 1;
nodes = (
"502 601 LINE",
"559 601 LINE",
"477 138 LINE",
"420 138 LINE"
);
},
{
closed = 1;
nodes = (
"1467 0 LINE",
"1493 149 LINE",
"1259 149 LINE",
"1520 365 LINE",
"1548 523 LINE",
"989 523 LINE",
"963 374 LINE",
"1166 374 LINE",
"897 150 LINE",
"871 0 LINE"
);
},
{
closed = 1;
nodes = (
"1443 569 LINE",
"1602 738 LINE",
"1387 738 LINE",
"1296 661 LINE",
"1231 738 LINE",
"1017 738 LINE",
"1115 569 LINE"
);
}
);
width = 1488;
}
);
note = uni01C5;
unicode = 01C5;
},
{
glyphname = E;
lastChange = "2019-09-04 10:55:16 +0000";
layers = (
{
hints = (
{
horizontal = 1;
place = "{0, 237}";
type = Stem;
},
{
horizontal = 1;
place = "{294, 149}";
type = Stem;
},
{
horizontal = 1;
place = "{501, 236}";
type = Stem;
},
{
place = "{33, 716}";
type = Stem;
}
);
layerId = "59338637-1E5C-47E2-9B1C-5C70074789A9";
paths = (
{
closed = 1;
nodes = (
"749 0 LINE",
"791 237 LINE",
"438 237 LINE",
"448 294 LINE",
"755 294 LINE",
"781 443 LINE",
"474 443 LINE",
"484 501 LINE",
"837 501 LINE",
"879 737 LINE",
"163 737 LINE",
"33 0 LINE"
);
}
);
width = 782;
}
);
note = E;
unicode = 0045;
},
{
glyphname = Eacute;
lastChange = "2019-09-04 10:55:16 +0000";
layers = (
{
hints = (
{
horizontal = 1;
place = "{0, 237}";
type = Stem;
},
{
horizontal = 1;
place = "{294, 149}";
type = Stem;
},
{
horizontal = 1;
place = "{501, 236}";
type = Stem;
},
{
horizontal = 1;
place = "{783, 169}";
type = Stem;
},
{
place = "{33, 716}";
type = Stem;
}
);
layerId = "59338637-1E5C-47E2-9B1C-5C70074789A9";
paths = (
{
closed = 1;
nodes = (
"749 0 LINE",
"791 237 LINE",
"438 237 LINE",
"448 294 LINE",
"755 294 LINE",
"781 443 LINE",
"474 443 LINE",
"484 501 LINE",
"837 501 LINE",
"879 737 LINE",
"163 737 LINE",
"33 0 LINE"
);
},
{
closed = 1;
nodes = (
"643 783 LINE",
"844 952 LINE",
"580 952 LINE",
"437 783 LINE"
);
}
);
width = 782;
}
);
note = Eacute;
unicode = 00C9;
},
{
glyphname = Ebreve;
lastChange = "2019-09-04 10:55:16 +0000";
layers = (
{
hints = (
{
horizontal = 1;
place = "{0, 237}";
type = Stem;
},
{
horizontal = 1;
place = "{294, 149}";
type = Stem;
},
{
horizontal = 1;
place = "{501, 236}";
type = Stem;
},
{
horizontal = 1;
place = "{783, 169}";
type = Stem;
},
{
place = "{120, 226}";
type = Stem;
},
{
place = "{436, 225}";
type = Stem;
}
);
layerId = "59338637-1E5C-47E2-9B1C-5C70074789A9";
paths = (
{
closed = 1;
nodes = (
"749 0 LINE",
"791 237 LINE",
"438 237 LINE",
"448 294 LINE",
"755 294 LINE",
"781 443 LINE",
"474 443 LINE",
"484 501 LINE",
"837 501 LINE",
"879 737 LINE",
"163 737 LINE",
"33 0 LINE"
);
},
{
closed = 1;
nodes = (
"685 783 LINE",
"816 877 LINE",
"829 952 LINE",
"604 952 LINE",
"595 904 LINE",
"505 904 LINE",
"514 952 LINE",
"288 952 LINE",
"275 877 LINE",
"372 783 LINE"
);
}
);
width = 782;
}
);
note = Ebreve;
unicode = 0114;
},
{
glyphname = Ecaron;
lastChange = "2019-09-04 10:55:16 +0000";
layers = (
{
hints = (
{
horizontal = 1;
place = "{0, 237}";
type = Stem;
},
{
horizontal = 1;
place = "{294, 149}";
type = Stem;
},
{
horizontal = 1;
place = "{501, 236}";
type = Stem;
},
{
horizontal = 1;
place = "{783, 169}";
type = Stem;
},
{
place = "{33, 716}";
type = Stem;
}
);
layerId = "59338637-1E5C-47E2-9B1C-5C70074789A9";
paths = (
{
closed = 1;
nodes = (
"749 0 LINE",
"791 237 LINE",
"438 237 LINE",
"448 294 LINE",
"755 294 LINE",
"781 443 LINE",
"474 443 LINE",
"484 501 LINE",
"837 501 LINE",
"879 737 LINE",
"163 737 LINE",
"33 0 LINE"
);
},
{
closed = 1;
nodes = (
"692 783 LINE",
"851 952 LINE",
"636 952 LINE",
"544 875 LINE",
"480 952 LINE",
"266 952 LINE",
"364 783 LINE"
);
}
);
width = 782;
}
);
note = Ecaron;
unicode = 011A;
},
{
glyphname = Ecircumflex;
lastChange = "2019-09-04 10:55:16 +0000";
layers = (
{
hints = (
{
horizontal = 1;
place = "{0, 237}";
type = Stem;
},
{
horizontal = 1;
place = "{294, 149}";
type = Stem;
},
{
horizontal = 1;
place = "{501, 236}";
type = Stem;
},
{
horizontal = 1;
place = "{783, 169}";
type = Stem;
},
{
place = "{33, 716}";
type = Stem;
}
);
layerId = "59338637-1E5C-47E2-9B1C-5C70074789A9";
paths = (
{
closed = 1;
nodes = (
"749 0 LINE",
"791 237 LINE",
"438 237 LINE",
"448 294 LINE",
"755 294 LINE",
"781 443 LINE",
"474 443 LINE",
"484 501 LINE",
"837 501 LINE",
"879 737 LINE",
"163 737 LINE",
"33 0 LINE"
);
},
{
closed = 1;
nodes = (
"451 783 LINE",
"543 860 LINE",
"607 783 LINE",
"821 783 LINE",
"723 952 LINE",
"395 952 LINE",
"236 783 LINE"
);
}
);
width = 782;
}
);
note = Ecircumflex;
unicode = 00CA;
},
{
glyphname = uni1EBE;
lastChange = "2019-09-04 10:55:16 +0000";
layers = (
{
hints = (
{
horizontal = 1;
place = "{0, 237}";
type = Stem;
},
{
horizontal = 1;
place = "{294, 149}";
type = Stem;
},
{
horizontal = 1;
place = "{501, 236}";
type = Stem;
},
{
horizontal = 1;
place = "{880, 169}";
type = Stem;
},
{
place = "{33, 994}";
type = Stem;
},
{
horizontal = 1;
place = "{783, 169}";
type = Stem;
}
);
layerId = "59338637-1E5C-47E2-9B1C-5C70074789A9";
paths = (
{
closed = 1;
nodes = (
"749 0 LINE",
"791 237 LINE",
"438 237 LINE",
"448 294 LINE",
"755 294 LINE",
"781 443 LINE",
"474 443 LINE",
"484 501 LINE",
"837 501 LINE",
"879 737 LINE",
"163 737 LINE",
"33 0 LINE"
);
},
{
closed = 1;
nodes = (
"451 783 LINE",
"543 860 LINE",
"607 783 LINE",
"822 783 LINE",
"723 952 LINE",
"395 952 LINE",
"237 783 LINE"
);
},
{
closed = 1;
nodes = (
"1011 880 LINE",
"1212 1049 LINE",
"948 1049 LINE",
"805 880 LINE"
);
}
);
width = 782;
}
);
note = uni1EBE;
unicode = 1EBE;
},
{
glyphname = uni1EC6;
lastChange = "2019-09-04 10:55:16 +0000";
layers = (
{
hints = (
{
horizontal = 1;
place = "{-215, 169}";
type = Stem;
},
{
horizontal = 1;
place = "{0, 237}";
type = Stem;
},
{
horizontal = 1;
place = "{294, 149}";
type = Stem;
},
{
horizontal = 1;
place = "{501, 236}";
type = Stem;
},
{
horizontal = 1;
place = "{783, 169}";
type = Stem;
},
{
place = "{33, 716}";
type = Stem;
},
{
place = "{237, 307}";
type = Stem;
}
);
layerId = "59338637-1E5C-47E2-9B1C-5C70074789A9";
paths = (
{
closed = 1;
nodes = (
"749 0 LINE",
"791 237 LINE",
"438 237 LINE",
"448 294 LINE",
"755 294 LINE",
"781 443 LINE",
"474 443 LINE",
"484 501 LINE",
"837 501 LINE",
"879 737 LINE",
"163 737 LINE",
"33 0 LINE"
);
},
{
closed = 1;
nodes = (
"506 -215 LINE",
"536 -46 LINE",
"229 -46 LINE",
"199 -215 LINE"
);
},
{
closed = 1;
nodes = (
"451 783 LINE",
"543 860 LINE",
"607 783 LINE",
"821 783 LINE",
"723 952 LINE",
"395 952 LINE",
"236 783 LINE"
);
}
);
width = 782;
}
);
note = uni1EC6;
unicode = 1EC6;
},
{
glyphname = uni1EC0;
lastChange = "2019-09-04 10:55:16 +0000";
layers = (
{
hints = (
{
horizontal = 1;
place = "{0, 237}";
type = Stem;
},
{
horizontal = 1;
place = "{294, 149}";
type = Stem;
},
{
horizontal = 1;
place = "{501, 236}";
type = Stem;
},
{
horizontal = 1;
place = "{880, 169}";
type = Stem;
},
{
place = "{-244, 994}";
type = Stem;
},
{
horizontal = 1;
place = "{783, 169}";
type = Stem;
}
);
layerId = "59338637-1E5C-47E2-9B1C-5C70074789A9";
paths = (
{
closed = 1;
nodes = (
"288 880 LINE",
"205 1049 LINE",
"-59 1049 LINE",
"82 880 LINE"
);
},
{
closed = 1;
nodes = (
"452 783 LINE",
"544 860 LINE",
"608 783 LINE",
"822 783 LINE",
"724 952 LINE",
"396 952 LINE",
"237 783 LINE"
);
},
{
closed = 1;
nodes = (
"749 0 LINE",
"791 237 LINE",
"438 237 LINE",
"448 294 LINE",
"755 294 LINE",
"781 443 LINE",
"474 443 LINE",
"484 501 LINE",
"837 501 LINE",
"879 737 LINE",
"163 737 LINE",
"33 0 LINE"
);
}
);
width = 782;
}
);
note = uni1EC0;
unicode = 1EC0;
},
{
glyphname = uni1EC2;
lastChange = "2019-09-04 10:55:16 +0000";
layers = (
{
hints = (
{
horizontal = 1;
place = "{0, 237}";
type = Stem;
},
{
horizontal = 1;
place = "{294, 149}";
type = Stem;
},
{
horizontal = 1;
place = "{501, 236}";
type = Stem;
},
{
horizontal = 1;
place = "{783, 169}";
type = Stem;
},
{
horizontal = 1;
place = "{1006, 122}";
type = Stem;
},
{
place = "{550, 179}";
type = Stem;
},
{
place = "{768, 184}";
type = Stem;
},
{
horizontal = 1;
place = "{880, 98}";
type = Stem;
}
);
layerId = "59338637-1E5C-47E2-9B1C-5C70074789A9";
paths = (
{
closed = 1;
nodes = (
"749 0 LINE",
"791 237 LINE",
"438 237 LINE",
"448 294 LINE",
"755 294 LINE",
"781 443 LINE",
"474 443 LINE",
"484 501 LINE",
"837 501 LINE",
"879 737 LINE",
"163 737 LINE",
"33 0 LINE"
);
},
{
closed = 1;
nodes = (
"451 783 LINE",
"543 860 LINE",
"607 783 LINE",
"821 783 LINE",
"723 952 LINE",
"395 952 LINE",
"236 783 LINE"
);
},
{
closed = 1;
nodes = (
"1013 880 LINE",
"1019 912 LINE",
"1059 912 LINE",
"1122 966 LINE",
"1141 1073 LINE",
"1086 1128 LINE",
"814 1128 LINE",
"739 1073 LINE",
"727 1006 LINE",
"906 1006 LINE",
"916 1058 LINE",
"955 1058 LINE",
"940 978 LINE",
"856 978 LINE",
"802 932 LINE",
"793 880 LINE"
);
}
);
width = 782;
}
);
note = uni1EC2;
unicode = 1EC2;
},
{
glyphname = uni1EC4;
lastChange = "2019-09-04 10:55:16 +0000";
layers = (
{
hints = (
{
horizontal = 1;
place = "{0, 237}";
type = Stem;
},
{
horizontal = 1;
place = "{294, 149}";
type = Stem;
},
{
horizontal = 1;
place = "{501, 236}";
type = Stem;
},
{
horizontal = 1;
place = "{783, 169}";
type = Stem;
},
{
horizontal = 1;
place = "{987, 168}";
type = Stem;
},
{
place = "{125, 155}";
type = Stem;
},
{
place = "{503, 156}";
type = Stem;
},
{
horizontal = 1;
place = "{981, 169}";
type = Stem;
}
);
layerId = "59338637-1E5C-47E2-9B1C-5C70074789A9";
paths = (
{
closed = 1;
nodes = (
"749 0 LINE",
"791 237 LINE",
"438 237 LINE",
"448 294 LINE",
"755 294 LINE",
"781 443 LINE",
"474 443 LINE",
"484 501 LINE",
"837 501 LINE",
"879 737 LINE",
"163 737 LINE",
"33 0 LINE"
);
},
{
closed = 1;
nodes = (
"451 783 LINE",
"543 860 LINE",
"607 783 LINE",
"821 783 LINE",
"723 952 LINE",
"395 952 LINE",
"236 783 LINE"
);
},
{
closed = 1;
nodes = (
"739 981 LINE",
"845 1057 LINE",
"862 1150 LINE",
"706 1150 LINE",
"698 1108 LINE",
"663 1108 LINE",
"617 1155 LINE",
"421 1155 LINE",
"315 1079 LINE",
"299 987 LINE",
"454 987 LINE",
"461 1029 LINE",
"496 1029 LINE",
"543 981 LINE"
);
}
);
width = 782;
}
);
note = uni1EC4;
unicode = 1EC4;
},
{
glyphname = uni0204;
lastChange = "2019-09-04 10:55:16 +0000";
layers = (
{
hints = (
{
horizontal = 1;
place = "{0, 237}";
type = Stem;
},
{
horizontal = 1;
place = "{294, 149}";
type = Stem;
},
{
horizontal = 1;
place = "{501, 236}";
type = Stem;
},
{
horizontal = 1;
place = "{783, 169}";
type = Stem;
},
{
place = "{-22, 772}";
type = Stem;
}
);
layerId = "59338637-1E5C-47E2-9B1C-5C70074789A9";
paths = (
{
closed = 1;
nodes = (
"482 783 LINE",
"399 952 LINE",
"146 952 LINE",
"288 783 LINE"
);
},
{
closed = 1;
nodes = (
"771 783 LINE",
"687 952 LINE",
"434 952 LINE",
"576 783 LINE"
);
},
{
closed = 1;
nodes = (
"749 0 LINE",
"791 237 LINE",
"438 237 LINE",
"448 294 LINE",
"755 294 LINE",
"781 443 LINE",
"474 443 LINE",
"484 501 LINE",
"837 501 LINE",
"879 737 LINE",
"163 737 LINE",
"33 0 LINE"
);
}
);
width = 782;
}
);
note = uni0204;
unicode = 0204;
},
{
glyphname = Edieresis;
lastChange = "2019-09-04 10:55:16 +0000";
layers = (
{
hints = (
{
horizontal = 1;
place = "{0, 237}";
type = Stem;
},
{
horizontal = 1;
place = "{294, 149}";
type = Stem;
},
{
horizontal = 1;
place = "{501, 236}";
type = Stem;
},
{
horizontal = 1;
place = "{783, 169}";
type = Stem;
},
{
place = "{95, 274}";
type = Stem;
},
{
place = "{415, 274}";
type = Stem;
}
);
layerId = "59338637-1E5C-47E2-9B1C-5C70074789A9";
paths = (
{
closed = 1;
nodes = (
"749 0 LINE",
"791 237 LINE",
"438 237 LINE",
"448 294 LINE",
"755 294 LINE",
"781 443 LINE",
"474 443 LINE",
"484 501 LINE",
"837 501 LINE",
"879 737 LINE",
"163 737 LINE",
"33 0 LINE"
);
},
{
closed = 1;
nodes = (
"507 783 LINE",
"537 952 LINE",
"263 952 LINE",
"233 783 LINE"
);
},
{
closed = 1;
nodes = (
"827 783 LINE",
"857 952 LINE",
"583 952 LINE",
"553 783 LINE"
);
}
);
width = 782;
}
);
note = Edieresis;
unicode = 00CB;
},
{
glyphname = Edotaccent;
lastChange = "2019-09-04 10:55:16 +0000";
layers = (
{
hints = (
{
horizontal = 1;
place = "{0, 237}";
type = Stem;
},
{
horizontal = 1;
place = "{294, 149}";
type = Stem;
},
{
horizontal = 1;
place = "{501, 236}";
type = Stem;
},
{
horizontal = 1;
place = "{783, 168}";
type = Stem;
},
{
place = "{237, 307}";
type = Stem;
}
);
layerId = "59338637-1E5C-47E2-9B1C-5C70074789A9";
paths = (
{
closed = 1;
nodes = (
"749 0 LINE",
"791 237 LINE",
"438 237 LINE",
"448 294 LINE",
"755 294 LINE",
"781 443 LINE",
"474 443 LINE",
"484 501 LINE",
"837 501 LINE",
"879 737 LINE",
"163 737 LINE",
"33 0 LINE"
);
},
{
closed = 1;
nodes = (
"682 783 LINE",
"712 951 LINE",
"405 951 LINE",
"375 783 LINE"
);
}
);
width = 782;
}
);
note = Edotaccent;
unicode = 0116;
},
{
glyphname = uni1EB8;
lastChange = "2019-09-04 10:55:16 +0000";
layers = (
{
hints = (
{
horizontal = 1;
place = "{-215, 169}";
type = Stem;
},
{
horizontal = 1;
place = "{0, 237}";
type = Stem;
},
{
horizontal = 1;
place = "{294, 149}";
type = Stem;
},
{
horizontal = 1;
place = "{501, 236}";
type = Stem;
},
{
place = "{33, 716}";
type = Stem;
},
{
place = "{237, 307}";
type = Stem;
}
);
layerId = "59338637-1E5C-47E2-9B1C-5C70074789A9";
paths = (
{
closed = 1;
nodes = (
"749 0 LINE",
"791 237 LINE",
"438 237 LINE",
"448 294 LINE",
"755 294 LINE",
"781 443 LINE",
"474 443 LINE",
"484 501 LINE",
"837 501 LINE",
"879 737 LINE",
"163 737 LINE",
"33 0 LINE"
);
},
{
closed = 1;
nodes = (
"506 -215 LINE",
"536 -46 LINE",
"229 -46 LINE",
"199 -215 LINE"
);
}
);
width = 782;
}
);
note = uni1EB8;
unicode = 1EB8;
},
{
glyphname = Egrave;
lastChange = "2019-09-04 10:55:16 +0000";
layers = (
{
hints = (
{
horizontal = 1;
place = "{0, 237}";
type = Stem;
},
{
horizontal = 1;
place = "{294, 149}";
type = Stem;
},
{
horizontal = 1;
place = "{501, 236}";
type = Stem;
},
{
horizontal = 1;
place = "{783, 169}";
type = Stem;
},
{
place = "{33, 716}";
type = Stem;
}
);
layerId = "59338637-1E5C-47E2-9B1C-5C70074789A9";
paths = (
{
closed = 1;
nodes = (
"749 0 LINE",
"791 237 LINE",
"438 237 LINE",
"448 294 LINE",
"755 294 LINE",
"781 443 LINE",
"474 443 LINE",
"484 501 LINE",
"837 501 LINE",
"879 737 LINE",
"163 737 LINE",
"33 0 LINE"
);
},
{
closed = 1;
nodes = (
"631 783 LINE",
"548 952 LINE",
"284 952 LINE",
"425 783 LINE"
);
}
);
width = 782;
}
);
note = Egrave;
unicode = 00C8;
},
{
glyphname = uni1EBA;
lastChange = "2019-09-04 10:55:16 +0000";
layers = (
{
hints = (
{
horizontal = 1;
place = "{0, 237}";
type = Stem;
},
{
horizontal = 1;
place = "{294, 149}";
type = Stem;
},
{
horizontal = 1;
place = "{501, 236}";
type = Stem;
},
{
horizontal = 1;
place = "{908, 122}";
type = Stem;
},
{
place = "{193, 179}";
type = Stem;
},
{
place = "{411, 184}";
type = Stem;
},
{
horizontal = 1;
place = "{782, 98}";
type = Stem;
}
);
layerId = "59338637-1E5C-47E2-9B1C-5C70074789A9";
paths = (
{
closed = 1;
nodes = (
"749 0 LINE",
"791 237 LINE",
"438 237 LINE",
"448 294 LINE",
"755 294 LINE",
"781 443 LINE",
"474 443 LINE",
"484 501 LINE",
"837 501 LINE",
"879 737 LINE",
"163 737 LINE",
"33 0 LINE"
);
},
{
closed = 1;
nodes = (
"639 782 LINE",
"645 814 LINE",
"685 814 LINE",
"748 868 LINE",
"767 975 LINE",
"712 1030 LINE",
"440 1030 LINE",
"365 975 LINE",
"353 908 LINE",
"532 908 LINE",
"541 960 LINE",
"580 960 LINE",
"566 880 LINE",
"482 880 LINE",
"428 834 LINE",
"419 782 LINE"
);
}
);
width = 782;
}
);
note = uni1EBA;
unicode = 1EBA;
},
{
glyphname = uni0206;
lastChange = "2019-09-04 10:55:16 +0000";
layers = (
{
hints = (
{
horizontal = 1;
place = "{0, 237}";
type = Stem;
},
{
horizontal = 1;
place = "{294, 149}";
type = Stem;
},
{
horizontal = 1;
place = "{501, 236}";
type = Stem;
},
{
horizontal = 1;
place = "{783, 169}";
type = Stem;
},
{
place = "{154, 174}";
type = Stem;
},
{
place = "{453, 174}";
type = Stem;
}
);
layerId = "59338637-1E5C-47E2-9B1C-5C70074789A9";
paths = (
{
closed = 1;
nodes = (
"749 0 LINE",
"791 237 LINE",
"438 237 LINE",
"448 294 LINE",
"755 294 LINE",
"781 443 LINE",
"474 443 LINE",
"484 501 LINE",
"837 501 LINE",
"879 737 LINE",
"163 737 LINE",
"33 0 LINE"
);
},
{
closed = 1;
nodes = (
"466 783 LINE",
"473 825 LINE",
"598 825 LINE",
"591 783 LINE",
"765 783 LINE",
"780 865 LINE",
"699 952 LINE",
"417 952 LINE",
"307 865 LINE",
"292 783 LINE"
);
}
);
width = 782;
}
);
note = uni0206;
unicode = 0206;
},
{
glyphname = Emacron;
lastChange = "2019-09-04 10:55:16 +0000";
layers = (
{
hints = (
{
horizontal = 1;
place = "{0, 237}";
type = Stem;
},
{
horizontal = 1;
place = "{294, 149}";
type = Stem;
},
{
horizontal = 1;
place = "{501, 236}";
type = Stem;
},
{
horizontal = 1;
place = "{783, 169}";
type = Stem;
},
{
place = "{33, 716}";
type = Stem;
}
);
layerId = "59338637-1E5C-47E2-9B1C-5C70074789A9";
paths = (
{
closed = 1;
nodes = (
"749 0 LINE",
"791 237 LINE",
"438 237 LINE",
"448 294 LINE",
"755 294 LINE",
"781 443 LINE",
"474 443 LINE",
"484 501 LINE",
"837 501 LINE",
"879 737 LINE",
"163 737 LINE",
"33 0 LINE"
);
},
{
closed = 1;
nodes = (
"826 783 LINE",
"856 952 LINE",
"262 952 LINE",
"232 783 LINE"
);
}
);
width = 782;
}
);
note = Emacron;
unicode = 0112;
},
{
glyphname = Eogonek;
lastChange = "2019-09-04 10:55:16 +0000";
layers = (
{
hints = (
{
horizontal = 1;
place = "{-198, 143}";
type = Stem;
},
{
horizontal = 1;
place = "{0, 237}";
type = Stem;
},
{
horizontal = 1;
place = "{294, 149}";
type = Stem;
},
{
horizontal = 1;
place = "{501, 236}";
type = Stem;
},
{
place = "{566, 188}";
type = Stem;
}
);
layerId = "59338637-1E5C-47E2-9B1C-5C70074789A9";
paths = (
{
closed = 1;
nodes = (
"719 -198 LINE",
"744 -55 LINE",
"723 -55 LINE",
"712 -44 LINE",
"716 -23 LINE",
"749 0 LINE",
"791 237 LINE",
"438 237 LINE",
"448 294 LINE",
"755 294 LINE",
"781 443 LINE",
"474 443 LINE",
"484 501 LINE",
"837 501 LINE",
"879 737 LINE",
"163 737 LINE",
"33 0 LINE",
"612 0 LINE",
"560 -33 LINE",
"544 -127 LINE",
"619 -198 LINE"
);
}
);
width = 782;
}
);
note = Eogonek;
unicode = 0118;
},
{
glyphname = uni1EBC;
lastChange = "2019-09-04 10:55:16 +0000";
layers = (
{
hints = (
{
horizontal = 1;
place = "{0, 237}";
type = Stem;
},
{
horizontal = 1;
place = "{294, 149}";
type = Stem;
},
{
horizontal = 1;
place = "{501, 236}";
type = Stem;
},
{
horizontal = 1;
place = "{789, 168}";
type = Stem;
},
{
place = "{124, 155}";
type = Stem;
},
{
place = "{502, 156}";
type = Stem;
},
{
horizontal = 1;
place = "{783, 169}";
type = Stem;
}
);
layerId = "59338637-1E5C-47E2-9B1C-5C70074789A9";
paths = (
{
closed = 1;
nodes = (
"749 0 LINE",
"791 237 LINE",
"438 237 LINE",
"448 294 LINE",
"755 294 LINE",
"781 443 LINE",
"474 443 LINE",
"484 501 LINE",
"837 501 LINE",
"879 737 LINE",
"163 737 LINE",
"33 0 LINE"
);
},
{
closed = 1;
nodes = (
"703 783 LINE",
"809 859 LINE",
"826 952 LINE",
"670 952 LINE",
"662 910 LINE",
"627 910 LINE",
"581 957 LINE",
"385 957 LINE",
"279 881 LINE",
"263 789 LINE",
"418 789 LINE",
"426 831 LINE",
"461 831 LINE",
"507 783 LINE"
);
}
);
width = 782;
}
);
note = uni1EBC;
unicode = 1EBC;
},
{
glyphname = F;
lastChange = "2019-09-04 10:55:16 +0000";
layers = (
{
hints = (
{
horizontal = 1;
place = "{241, 202}";
type = Stem;
},
{
horizontal = 1;
place = "{501, 236}";
type = Stem;
},
{
place = "{33, 716}";
type = Stem;
}
);
layerId = "59338637-1E5C-47E2-9B1C-5C70074789A9";
paths = (
{
closed = 1;
nodes = (
"396 0 LINE",
"438 241 LINE",
"742 241 LINE",
"778 443 LINE",
"474 443 LINE",
"484 501 LINE",
"837 501 LINE",
"879 737 LINE",
"163 737 LINE",
"33 0 LINE"
);
}
);
width = 782;
}
);
note = F;
rightKerningGroup = F;
unicode = 0046;
},
{
glyphname = G;
lastChange = "2019-09-04 10:55:16 +0000";
layers = (
{
hints = (
{
horizontal = 1;
place = "{0, 195}";
type = Stem;
},
{
horizontal = 1;
place = "{252, 150}";
type = Stem;
},
{
horizontal = 1;
place = "{600, 137}";
type = Stem;
},
{
place = "{560, 256}";
type = Stem;
}
);
layerId = "59338637-1E5C-47E2-9B1C-5C70074789A9";
paths = (
{
closed = 1;
nodes = (
"471 0 LINE",
"573 73 LINE",
"560 0 LINE",
"816 0 LINE",
"887 402 LINE",
"524 402 LINE",
"497 252 LINE",
"571 252 LINE",
"561 195 LINE",
"430 195 LINE",
"502 600 LINE",
"559 600 LINE",
"534 459 LINE",
"897 457 LINE",
"930 644 LINE",
"832 737 LINE",
"277 737 LINE",
"147 644 LINE",
"50 94 LINE",
"147 0 LINE"
);
}
);
width = 849;
}
);
note = G;
unicode = 0047;
},
{
glyphname = Gbreve;
lastChange = "2019-09-04 10:55:16 +0000";
layers = (
{
hints = (
{
horizontal = 1;
place = "{0, 195}";
type = Stem;
},
{
horizontal = 1;
place = "{252, 150}";
type = Stem;
},
{
horizontal = 1;
place = "{600, 137}";
type = Stem;
},
{
horizontal = 1;
place = "{783, 169}";
type = Stem;
},
{
place = "{154, 226}";
type = Stem;
},
{
place = "{560, 256}";
type = Stem;
},
{
place = "{470, 225}";
type = Stem;
}
);
layerId = "59338637-1E5C-47E2-9B1C-5C70074789A9";
paths = (
{
closed = 1;
nodes = (
"471 0 LINE",
"573 73 LINE",
"560 0 LINE",
"816 0 LINE",
"887 402 LINE",
"524 402 LINE",
"497 252 LINE",
"571 252 LINE",
"561 195 LINE",
"430 195 LINE",
"502 600 LINE",
"559 600 LINE",
"534 459 LINE",
"897 457 LINE",
"930 644 LINE",
"832 737 LINE",
"277 737 LINE",
"147 644 LINE",
"50 94 LINE",
"147 0 LINE"
);
},
{
closed = 1;
nodes = (
"719 783 LINE",
"850 877 LINE",
"863 952 LINE",
"638 952 LINE",
"629 904 LINE",
"539 904 LINE",
"548 952 LINE",
"322 952 LINE",
"309 877 LINE",
"406 783 LINE"
);
}
);
width = 849;
}
);
note = Gbreve;
unicode = 011E;
},
{
glyphname = Gcaron;
lastChange = "2019-09-04 10:55:16 +0000";
layers = (
{
hints = (
{
horizontal = 1;
place = "{0, 195}";
type = Stem;
},
{
horizontal = 1;
place = "{252, 150}";
type = Stem;
},
{
horizontal = 1;
place = "{600, 137}";
type = Stem;
},
{
horizontal = 1;
place = "{783, 169}";
type = Stem;
},
{
place = "{560, 256}";
type = Stem;
}
);
layerId = "59338637-1E5C-47E2-9B1C-5C70074789A9";
paths = (
{
closed = 1;
nodes = (
"471 0 LINE",
"573 73 LINE",
"560 0 LINE",
"816 0 LINE",
"887 402 LINE",
"524 402 LINE",
"497 252 LINE",
"571 252 LINE",
"561 195 LINE",
"430 195 LINE",
"502 600 LINE",
"559 600 LINE",
"534 459 LINE",
"897 457 LINE",
"930 644 LINE",
"832 737 LINE",
"277 737 LINE",
"147 644 LINE",
"50 94 LINE",
"147 0 LINE"
);
},
{
closed = 1;
nodes = (
"726 783 LINE",
"885 952 LINE",
"670 952 LINE",
"578 875 LINE",
"514 952 LINE",
"300 952 LINE",
"398 783 LINE"
);
}
);
width = 849;
}
);
note = Gcaron;
unicode = 01E6;
},
{
glyphname = Gcircumflex;
lastChange = "2019-09-04 10:55:16 +0000";
layers = (
{
hints = (
{
horizontal = 1;
place = "{0, 195}";
type = Stem;
},
{
horizontal = 1;
place = "{252, 150}";
type = Stem;
},
{
horizontal = 1;
place = "{600, 137}";
type = Stem;
},
{
horizontal = 1;
place = "{783, 169}";
type = Stem;
},
{
place = "{560, 256}";
type = Stem;
}
);
layerId = "59338637-1E5C-47E2-9B1C-5C70074789A9";
paths = (
{
closed = 1;
nodes = (
"471 0 LINE",
"573 73 LINE",
"560 0 LINE",
"816 0 LINE",
"887 402 LINE",
"524 402 LINE",
"497 252 LINE",
"571 252 LINE",
"561 195 LINE",
"430 195 LINE",
"502 600 LINE",
"559 600 LINE",
"534 459 LINE",
"897 457 LINE",
"930 644 LINE",
"832 737 LINE",
"277 737 LINE",
"147 644 LINE",
"50 94 LINE",
"147 0 LINE"
);
},
{
closed = 1;
nodes = (
"485 783 LINE",
"577 860 LINE",
"641 783 LINE",
"855 783 LINE",
"757 952 LINE",
"429 952 LINE",
"270 783 LINE"
);
}
);
width = 849;
}
);
note = Gcircumflex;
unicode = 011C;
},
{
glyphname = uni0122;
lastChange = "2019-09-04 10:55:16 +0000";
layers = (
{
hints = (
{
horizontal = 1;
place = "{-229, 183}";
type = Stem;
},
{
horizontal = 1;
place = "{0, 195}";
type = Stem;
},
{
horizontal = 1;
place = "{252, 150}";
type = Stem;
},
{
horizontal = 1;
place = "{600, 137}";
type = Stem;
},
{
place = "{560, 256}";
type = Stem;
}
);
layerId = "59338637-1E5C-47E2-9B1C-5C70074789A9";
paths = (
{
closed = 1;
nodes = (
"471 0 LINE",
"573 73 LINE",
"560 0 LINE",
"816 0 LINE",
"887 402 LINE",
"524 402 LINE",
"497 252 LINE",
"571 252 LINE",
"561 195 LINE",
"430 195 LINE",
"502 600 LINE",
"559 600 LINE",
"534 459 LINE",
"897 457 LINE",
"930 644 LINE",
"832 737 LINE",
"277 737 LINE",
"147 644 LINE",
"50 94 LINE",
"147 0 LINE"
);
},
{
closed = 1;
nodes = (
"371 -229 LINE",
"554 -46 LINE",
"277 -46 LINE",
"189 -229 LINE"
);
}
);
width = 849;
}
);
note = uni0122;
unicode = 0122;
},
{
glyphname = Gdotaccent;
lastChange = "2019-09-04 10:55:16 +0000";
layers = (
{
hints = (
{
horizontal = 1;
place = "{0, 195}";
type = Stem;
},
{
horizontal = 1;
place = "{252, 150}";
type = Stem;
},
{
horizontal = 1;
place = "{600, 137}";
type = Stem;
},
{
horizontal = 1;
place = "{783, 168}";
type = Stem;
},
{
place = "{271, 125}";
type = Stem;
},
{
place = "{560, 256}";
type = Stem;
}
);
layerId = "59338637-1E5C-47E2-9B1C-5C70074789A9";
paths = (
{
closed = 1;
nodes = (
"471 0 LINE",
"573 73 LINE",
"560 0 LINE",
"816 0 LINE",
"887 402 LINE",
"524 402 LINE",
"497 252 LINE",
"571 252 LINE",
"561 195 LINE",
"430 195 LINE",
"502 600 LINE",
"559 600 LINE",
"534 459 LINE",
"897 457 LINE",
"930 644 LINE",
"832 737 LINE",
"277 737 LINE",
"147 644 LINE",
"50 94 LINE",
"147 0 LINE"
);
},
{
closed = 1;
nodes = (
"716 783 LINE",
"746 951 LINE",
"439 951 LINE",
"409 783 LINE"
);
}
);
width = 849;
}
);
note = Gdotaccent;
unicode = 0120;
},
{
glyphname = H;
lastChange = "2019-09-04 10:55:16 +0000";
layers = (
{
hints = (
{
horizontal = 1;
place = "{0, 737}";
type = Stem;
},
{
place = "{33, 783}";
type = Stem;
},
{
horizontal = 1;
place = "{275, 237}";
type = Stem;
}
);
layerId = "59338637-1E5C-47E2-9B1C-5C70074789A9";
paths = (
{
closed = 1;
nodes = (
"396 0 LINE",
"444 275 LINE",
"501 275 LINE",
"453 0 LINE",
"816 0 LINE",
"946 737 LINE",
"583 737 LINE",
"543 512 LINE",
"486 512 LINE",
"526 737 LINE",
"163 737 LINE",
"33 0 LINE"
);
}
);
width = 849;
}
);
note = H;
unicode = 0048;
},
{
glyphname = Hbar;
lastChange = "2019-09-04 10:55:16 +0000";
layers = (
{
hints = (
{
horizontal = 1;
place = "{275, 237}";
type = Stem;
},
{
horizontal = 1;
place = "{569, 168}";
type = Stem;
},
{
place = "{0, 849}";
type = Stem;
}
);
layerId = "59338637-1E5C-47E2-9B1C-5C70074789A9";
paths = (
{
closed = 1;
nodes = (
"396 0 LINE",
"444 275 LINE",
"501 275 LINE",
"453 0 LINE",
"816 0 LINE",
"916 569 LINE",
"949 569 LINE",
"969 680 LINE",
"936 680 LINE",
"946 737 LINE",
"583 737 LINE",
"573 680 LINE",
"516 680 LINE",
"526 737 LINE",
"163 737 LINE",
"153 680 LINE",
"120 680 LINE",
"100 569 LINE",
"133 569 LINE",
"33 0 LINE"
);
},
{
closed = 1;
nodes = (
"496 569 LINE",
"553 569 LINE",
"543 512 LINE",
"486 512 LINE"
);
}
);
width = 849;
}
);
note = Hbar;
unicode = 0126;
},
{
glyphname = Hcircumflex;
lastChange = "2019-09-04 10:55:16 +0000";
layers = (
{
hints = (
{
horizontal = 1;
place = "{275, 237}";
type = Stem;
},
{
horizontal = 1;
place = "{783, 169}";
type = Stem;
},
{
place = "{33, 783}";
type = Stem;
}
);
layerId = "59338637-1E5C-47E2-9B1C-5C70074789A9";
paths = (
{
closed = 1;
nodes = (
"396 0 LINE",
"444 275 LINE",
"501 275 LINE",
"453 0 LINE",
"816 0 LINE",
"946 737 LINE",
"583 737 LINE",
"543 512 LINE",
"486 512 LINE",
"526 737 LINE",
"163 737 LINE",
"33 0 LINE"
);
},
{
closed = 1;
nodes = (
"484 783 LINE",
"576 860 LINE",
"640 783 LINE",
"854 783 LINE",
"756 952 LINE",
"428 952 LINE",
"269 783 LINE"
);
}
);
width = 849;
}
);
note = Hcircumflex;
unicode = 0124;
},
{
glyphname = I;
lastChange = "2019-09-04 10:55:16 +0000";
layers = (
{
hints = (
{
horizontal = 1;
place = "{0, 221}";
type = Stem;
},
{
horizontal = 1;
place = "{516, 221}";
type = Stem;
},
{
place = "{104, 326}";
type = Stem;
}
);
layerId = "59338637-1E5C-47E2-9B1C-5C70074789A9";
paths = (
{
closed = 1;
nodes = (
"499 0 LINE",
"538 221 LINE",
"469 221 LINE",
"521 516 LINE",
"590 516 LINE",
"629 737 LINE",
"163 737 LINE",
"124 516 LINE",
"195 516 LINE",
"143 221 LINE",
"72 221 LINE",
"33 0 LINE"
);
}
);
width = 532;
}
);
note = I;
unicode = 0049;
},
{
glyphname = Iacute;
lastChange = "2019-09-04 10:55:16 +0000";
layers = (
{
hints = (
{
horizontal = 1;
place = "{0, 221}";
type = Stem;
},
{
horizontal = 1;
place = "{516, 221}";
type = Stem;
},
{
horizontal = 1;
place = "{783, 169}";
type = Stem;
},
{
place = "{104, 326}";
type = Stem;
}
);
layerId = "59338637-1E5C-47E2-9B1C-5C70074789A9";
paths = (
{
closed = 1;
nodes = (
"499 0 LINE",
"538 221 LINE",
"469 221 LINE",
"521 516 LINE",
"590 516 LINE",
"629 737 LINE",
"163 737 LINE",
"124 516 LINE",
"195 516 LINE",
"143 221 LINE",
"72 221 LINE",
"33 0 LINE"
);
},
{
closed = 1;
nodes = (
"519 783 LINE",
"720 952 LINE",
"456 952 LINE",
"313 783 LINE"
);
}
);
width = 532;
}
);
note = Iacute;
unicode = 00CD;
},
{
glyphname = Ibreve;
lastChange = "2019-09-04 10:55:16 +0000";
layers = (
{
hints = (
{
horizontal = 1;
place = "{0, 221}";
type = Stem;
},
{
horizontal = 1;
place = "{516, 221}";
type = Stem;
},
{
horizontal = 1;
place = "{783, 169}";
type = Stem;
},
{
place = "{-4, 226}";
type = Stem;
},
{
place = "{312, 225}";
type = Stem;
},
{
place = "{104, 326}";
type = Stem;
}
);
layerId = "59338637-1E5C-47E2-9B1C-5C70074789A9";
paths = (
{
closed = 1;
nodes = (
"499 0 LINE",
"538 221 LINE",
"469 221 LINE",
"521 516 LINE",
"590 516 LINE",
"629 737 LINE",
"163 737 LINE",
"124 516 LINE",
"195 516 LINE",
"143 221 LINE",
"72 221 LINE",
"33 0 LINE"
);
},
{
closed = 1;
nodes = (
"561 783 LINE",
"692 877 LINE",
"705 952 LINE",
"480 952 LINE",
"471 904 LINE",
"381 904 LINE",
"390 952 LINE",
"164 952 LINE",
"151 877 LINE",
"248 783 LINE"
);
}
);
width = 532;
}
);
note = Ibreve;
unicode = 012C;
},
{
glyphname = Icircumflex;
lastChange = "2019-09-04 10:55:16 +0000";
layers = (
{
hints = (
{
horizontal = 1;
place = "{0, 221}";
type = Stem;
},
{
horizontal = 1;
place = "{516, 221}";
type = Stem;
},
{
horizontal = 1;
place = "{783, 169}";
type = Stem;
},
{
place = "{104, 326}";
type = Stem;
}
);
layerId = "59338637-1E5C-47E2-9B1C-5C70074789A9";
paths = (
{
closed = 1;
nodes = (
"499 0 LINE",
"538 221 LINE",
"469 221 LINE",
"521 516 LINE",
"590 516 LINE",
"629 737 LINE",
"163 737 LINE",
"124 516 LINE",
"195 516 LINE",
"143 221 LINE",
"72 221 LINE",
"33 0 LINE"
);
},
{
closed = 1;
nodes = (
"327 783 LINE",
"419 860 LINE",
"483 783 LINE",
"697 783 LINE",
"599 952 LINE",
"271 952 LINE",
"112 783 LINE"
);
}
);
width = 532;
}
);
note = Icircumflex;
unicode = 00CE;
},
{
glyphname = uni0208;
lastChange = "2019-09-04 10:55:16 +0000";
layers = (
{
hints = (
{
horizontal = 1;
place = "{0, 221}";
type = Stem;
},
{
horizontal = 1;
place = "{516, 221}";
type = Stem;
},
{
horizontal = 1;
place = "{783, 169}";
type = Stem;
},
{
place = "{104, 326}";
type = Stem;
}
);
layerId = "59338637-1E5C-47E2-9B1C-5C70074789A9";
paths = (
{
closed = 1;
nodes = (
"499 0 LINE",
"538 221 LINE",
"469 221 LINE",
"521 516 LINE",
"590 516 LINE",
"629 737 LINE",
"163 737 LINE",
"124 516 LINE",
"195 516 LINE",
"143 221 LINE",
"72 221 LINE",
"33 0 LINE"
);
},
{
closed = 1;
nodes = (
"357 783 LINE",
"274 952 LINE",
"21 952 LINE",
"163 783 LINE"
);
},
{
closed = 1;
nodes = (
"646 783 LINE",
"562 952 LINE",
"309 952 LINE",
"451 783 LINE"
);
}
);
width = 532;
}
);
note = uni0208;
unicode = 0208;
},
{
glyphname = Idieresis;
lastChange = "2019-09-04 10:55:16 +0000";
layers = (
{
hints = (
{
horizontal = 1;
place = "{0, 221}";
type = Stem;
},
{
horizontal = 1;
place = "{516, 221}";
type = Stem;
},
{
horizontal = 1;
place = "{783, 169}";
type = Stem;
},
{
place = "{31, 212}";
type = Stem;
},
{
place = "{289, 208}";
type = Stem;
},
{
place = "{102, 326}";
type = Stem;
}
);
layerId = "59338637-1E5C-47E2-9B1C-5C70074789A9";
paths = (
{
closed = 1;
nodes = (
"381 783 LINE",
"411 952 LINE",
"137 952 LINE",
"107 783 LINE"
);
},
{
closed = 1;
nodes = (
"701 783 LINE",
"731 952 LINE",
"457 952 LINE",
"427 783 LINE"
);
},
{
closed = 1;
nodes = (
"499 0 LINE",
"538 221 LINE",
"469 221 LINE",
"521 516 LINE",
"590 516 LINE",
"629 737 LINE",
"163 737 LINE",
"124 516 LINE",
"195 516 LINE",
"143 221 LINE",
"72 221 LINE",
"33 0 LINE"
);
}
);
width = 532;
}
);
note = Idieresis;
unicode = 00CF;
},
{
glyphname = Idotaccent;
lastChange = "2019-09-04 10:55:16 +0000";
layers = (
{
hints = (
{
horizontal = 1;
place = "{0, 221}";
type = Stem;
},
{
horizontal = 1;
place = "{516, 221}";
type = Stem;
},
{
horizontal = 1;
place = "{783, 168}";
type = Stem;
},
{
place = "{113, 307}";
type = Stem;
},
{
place = "{104, 326}";
type = Stem;
}
);
layerId = "59338637-1E5C-47E2-9B1C-5C70074789A9";
paths = (
{
closed = 1;
nodes = (
"499 0 LINE",
"538 221 LINE",
"469 221 LINE",
"521 516 LINE",
"590 516 LINE",
"629 737 LINE",
"163 737 LINE",
"124 516 LINE",
"195 516 LINE",
"143 221 LINE",
"72 221 LINE",
"33 0 LINE"
);
},
{
closed = 1;
nodes = (
"558 783 LINE",
"588 951 LINE",
"281 951 LINE",
"251 783 LINE"
);
}
);
width = 532;
}
);
note = Idotaccent;
unicode = 0130;
},
{
glyphname = uni1ECA;
lastChange = "2019-09-04 10:55:16 +0000";
layers = (
{
hints = (
{
horizontal = 1;
place = "{-215, 169}";
type = Stem;
},
{
horizontal = 1;
place = "{0, 221}";
type = Stem;
},
{
horizontal = 1;
place = "{516, 221}";
type = Stem;
},
{
place = "{104, 326}";
type = Stem;
},
{
place = "{113, 307}";
type = Stem;
}
);
layerId = "59338637-1E5C-47E2-9B1C-5C70074789A9";
paths = (
{
closed = 1;
nodes = (
"499 0 LINE",
"538 221 LINE",
"469 221 LINE",
"521 516 LINE",
"590 516 LINE",
"629 737 LINE",
"163 737 LINE",
"124 516 LINE",
"195 516 LINE",
"143 221 LINE",
"72 221 LINE",
"33 0 LINE"
);
},
{
closed = 1;
nodes = (
"382 -215 LINE",
"412 -46 LINE",
"105 -46 LINE",
"75 -215 LINE"
);
}
);
width = 532;
}
);
note = uni1ECA;
unicode = 1ECA;
},
{
glyphname = Igrave;
lastChange = "2019-09-04 10:55:16 +0000";
layers = (
{
hints = (
{
horizontal = 1;
place = "{0, 221}";
type = Stem;
},
{
horizontal = 1;
place = "{516, 221}";
type = Stem;
},
{
horizontal = 1;
place = "{783, 169}";
type = Stem;
},
{
place = "{103, 326}";
type = Stem;
}
);
layerId = "59338637-1E5C-47E2-9B1C-5C70074789A9";
paths = (
{
closed = 1;
nodes = (
"506 783 LINE",
"423 952 LINE",
"159 952 LINE",
"300 783 LINE"
);
},
{
closed = 1;
nodes = (
"499 0 LINE",
"538 221 LINE",
"469 221 LINE",
"521 516 LINE",
"590 516 LINE",
"629 737 LINE",
"163 737 LINE",
"124 516 LINE",
"195 516 LINE",
"143 221 LINE",
"72 221 LINE",
"33 0 LINE"
);
}
);
width = 532;
}
);
note = Igrave;
unicode = 00CC;
},
{
glyphname = uni1EC8;
lastChange = "2019-09-04 10:55:16 +0000";
layers = (
{
hints = (
{
horizontal = 1;
place = "{0, 221}";
type = Stem;
},
{
horizontal = 1;
place = "{516, 221}";
type = Stem;
},
{
horizontal = 1;
place = "{908, 122}";
type = Stem;
},
{
place = "{69, 179}";
type = Stem;
},
{
place = "{287, 184}";
type = Stem;
},
{
horizontal = 1;
place = "{782, 98}";
type = Stem;
},
{
place = "{104, 326}";
type = Stem;
}
);
layerId = "59338637-1E5C-47E2-9B1C-5C70074789A9";
paths = (
{
closed = 1;
nodes = (
"499 0 LINE",
"538 221 LINE",
"469 221 LINE",
"521 516 LINE",
"590 516 LINE",
"629 737 LINE",
"163 737 LINE",
"124 516 LINE",
"195 516 LINE",
"143 221 LINE",
"72 221 LINE",
"33 0 LINE"
);
},
{
closed = 1;
nodes = (
"515 782 LINE",
"521 814 LINE",
"561 814 LINE",
"624 868 LINE",
"643 975 LINE",
"588 1030 LINE",
"316 1030 LINE",
"241 975 LINE",
"229 908 LINE",
"408 908 LINE",
"417 960 LINE",
"456 960 LINE",
"442 880 LINE",
"358 880 LINE",
"304 834 LINE",
"295 782 LINE"
);
}
);
width = 532;
}
);
note = uni1EC8;
unicode = 1EC8;
},
{
glyphname = uni020A;
lastChange = "2019-09-04 10:55:16 +0000";
layers = (
{
hints = (
{
horizontal = 1;
place = "{0, 221}";
type = Stem;
},
{
horizontal = 1;
place = "{516, 221}";
type = Stem;
},
{
horizontal = 1;
place = "{783, 169}";
type = Stem;
},
{
place = "{33, 171}";
type = Stem;
},
{
place = "{329, 170}";
type = Stem;
},
{
place = "{104, 326}";
type = Stem;
}
);
layerId = "59338637-1E5C-47E2-9B1C-5C70074789A9";
paths = (
{
closed = 1;
nodes = (
"499 0 LINE",
"538 221 LINE",
"469 221 LINE",
"521 516 LINE",
"590 516 LINE",
"629 737 LINE",
"163 737 LINE",
"124 516 LINE",
"195 516 LINE",
"143 221 LINE",
"72 221 LINE",
"33 0 LINE"
);
},
{
closed = 1;
nodes = (
"342 783 LINE",
"349 825 LINE",
"474 825 LINE",
"467 783 LINE",
"641 783 LINE",
"656 865 LINE",
"575 952 LINE",
"293 952 LINE",
"183 865 LINE",
"168 783 LINE"
);
}
);
width = 532;
}
);
note = uni020A;
unicode = 020A;
},
{
glyphname = Imacron;
lastChange = "2019-09-04 10:55:16 +0000";
layers = (
{
hints = (
{
horizontal = 1;
place = "{0, 221}";
type = Stem;
},
{
horizontal = 1;
place = "{516, 221}";
type = Stem;
},
{
horizontal = 1;
place = "{783, 169}";
type = Stem;
},
{
place = "{103, 326}";
type = Stem;
}
);
layerId = "59338637-1E5C-47E2-9B1C-5C70074789A9";
paths = (
{
closed = 1;
nodes = (
"701 783 LINE",
"731 952 LINE",
"137 952 LINE",
"107 783 LINE"
);
},
{
closed = 1;
nodes = (
"499 0 LINE",
"538 221 LINE",
"469 221 LINE",
"521 516 LINE",
"590 516 LINE",
"629 737 LINE",
"163 737 LINE",
"124 516 LINE",
"195 516 LINE",
"143 221 LINE",
"72 221 LINE",
"33 0 LINE"
);
}
);
width = 532;
}
);
note = Imacron;
unicode = 012A;
},
{
glyphname = Iogonek;
lastChange = "2019-09-04 10:55:16 +0000";
layers = (
{
hints = (
{
horizontal = 1;
place = "{-198, 143}";
type = Stem;
},
{
horizontal = 1;
place = "{0, 221}";
type = Stem;
},
{
horizontal = 1;
place = "{516, 221}";
type = Stem;
},
{
place = "{316, 188}";
type = Stem;
},
{
place = "{104, 326}";
type = Stem;
}
);
layerId = "59338637-1E5C-47E2-9B1C-5C70074789A9";
paths = (
{
closed = 1;
nodes = (
"469 -198 LINE",
"494 -55 LINE",
"473 -55 LINE",
"462 -44 LINE",
"466 -23 LINE",
"499 0 LINE",
"538 221 LINE",
"469 221 LINE",
"521 516 LINE",
"590 516 LINE",
"629 737 LINE",
"163 737 LINE",
"124 516 LINE",
"195 516 LINE",
"143 221 LINE",
"72 221 LINE",
"33 0 LINE",
"362 0 LINE",
"310 -33 LINE",
"294 -127 LINE",
"369 -198 LINE"
);
}
);
width = 532;
}
);
note = Iogonek;
unicode = 012E;
},
{
glyphname = Itilde;
lastChange = "2019-09-04 10:55:16 +0000";
layers = (
{
hints = (
{
horizontal = 1;
place = "{0, 221}";
type = Stem;
},
{
horizontal = 1;
place = "{516, 221}";
type = Stem;
},
{
horizontal = 1;
place = "{789, 168}";
type = Stem;
},
{
place = "{32, 122}";
type = Stem;
},
{
place = "{377, 156}";
type = Stem;
},
{
horizontal = 1;
place = "{783, 169}";
type = Stem;
},
{
place = "{103, 326}";
type = Stem;
}
);
layerId = "59338637-1E5C-47E2-9B1C-5C70074789A9";
paths = (
{
closed = 1;
nodes = (
"578 783 LINE",
"684 859 LINE",
"701 952 LINE",
"545 952 LINE",
"537 910 LINE",
"502 910 LINE",
"456 957 LINE",
"260 957 LINE",
"154 881 LINE",
"138 789 LINE",
"293 789 LINE",
"301 831 LINE",
"336 831 LINE",
"382 783 LINE"
);
},
{
closed = 1;
nodes = (
"499 0 LINE",
"538 221 LINE",
"469 221 LINE",
"521 516 LINE",
"590 516 LINE",
"629 737 LINE",
"163 737 LINE",
"124 516 LINE",
"195 516 LINE",
"143 221 LINE",
"72 221 LINE",
"33 0 LINE"
);
}
);
width = 532;
}
);
note = Itilde;
unicode = 0128;
},
{
glyphname = J;
lastChange = "2019-09-04 10:55:16 +0000";
layers = (
{
hints = (
{
horizontal = 1;
place = "{0, 138}";
type = Stem;
},
{
place = "{33, 783}";
type = Stem;
}
);
layerId = "59338637-1E5C-47E2-9B1C-5C70074789A9";
paths = (
{
closed = 1;
nodes = (
"702 0 LINE",
"833 94 LINE",
"946 737 LINE",
"583 737 LINE",
"477 138 LINE",
"420 138 LINE",
"462 376 LINE",
"99 376 LINE",
"50 94 LINE",
"147 0 LINE"
);
}
);
width = 849;
}
);
leftKerningGroup = J;
note = J;
unicode = 004A;
},
{
glyphname = Jcircumflex;
lastChange = "2019-09-04 10:55:16 +0000";
layers = (
{
hints = (
{
horizontal = 1;
place = "{0, 138}";
type = Stem;
},
{
horizontal = 1;
place = "{783, 169}";
type = Stem;
},
{
place = "{33, 894}";
type = Stem;
}
);
layerId = "59338637-1E5C-47E2-9B1C-5C70074789A9";
paths = (
{
closed = 1;
nodes = (
"702 0 LINE",
"833 94 LINE",
"946 737 LINE",
"583 737 LINE",
"477 138 LINE",
"420 138 LINE",
"462 376 LINE",
"99 376 LINE",
"50 94 LINE",
"147 0 LINE"
);
},
{
closed = 1;
nodes = (
"695 783 LINE",
"787 860 LINE",
"851 783 LINE",
"1065 783 LINE",
"967 952 LINE",
"639 952 LINE",
"480 783 LINE"
);
}
);
width = 849;
}
);
note = Jcircumflex;
unicode = 0134;
},
{
glyphname = K;
lastChange = "2019-09-04 10:55:16 +0000";
layers = (
{
hints = (
{
horizontal = 1;
place = "{0, 737}";
type = Stem;
},
{
place = "{33, 781}";
type = Stem;
},
{
horizontal = 1;
place = "{275, 235}";
type = Stem;
}
);
layerId = "59338637-1E5C-47E2-9B1C-5C70074789A9";
paths = (
{
closed = 1;
nodes = (
"396 0 LINE",
"444 275 LINE",
"499 275 LINE",
"451 0 LINE",
"814 0 LINE",
"863 278 LINE",
"756 393 LINE",
"903 506 LINE",
"944 737 LINE",
"581 737 LINE",
"541 510 LINE",
"486 510 LINE",
"526 737 LINE",
"163 737 LINE",
"33 0 LINE"
);
}
);
width = 847;
}
);
note = K;
rightKerningGroup = K;
unicode = 004B;
},
{
glyphname = uni0136;
lastChange = "2019-09-04 10:55:16 +0000";
layers = (
{
hints = (
{
horizontal = 1;
place = "{-229, 183}";
type = Stem;
},
{
horizontal = 1;
place = "{275, 235}";
type = Stem;
},
{
place = "{33, 781}";
type = Stem;
}
);
layerId = "59338637-1E5C-47E2-9B1C-5C70074789A9";
paths = (
{
closed = 1;
nodes = (
"396 0 LINE",
"444 275 LINE",
"499 275 LINE",
"451 0 LINE",
"814 0 LINE",
"863 278 LINE",
"756 393 LINE",
"903 506 LINE",
"944 737 LINE",
"581 737 LINE",
"541 510 LINE",
"486 510 LINE",
"526 737 LINE",
"163 737 LINE",
"33 0 LINE"
);
},
{
closed = 1;
nodes = (
"370 -229 LINE",
"553 -46 LINE",
"276 -46 LINE",
"188 -229 LINE"
);
}
);
width = 847;
}
);
note = uni0136;
rightKerningGroup = K;
unicode = 0136;
},
{
glyphname = L;
lastChange = "2019-09-04 10:55:16 +0000";
layers = (
{
hints = (
{
horizontal = 1;
place = "{0, 237}";
type = Stem;
},
{
place = "{33, 639}";
type = Stem;
}
);
layerId = "59338637-1E5C-47E2-9B1C-5C70074789A9";
paths = (
{
closed = 1;
nodes = (
"672 0 LINE",
"714 237 LINE",
"438 237 LINE",
"526 737 LINE",
"163 737 LINE",
"33 0 LINE"
);
}
);
width = 705;
}
);
note = L;
rightKerningGroup = L;
unicode = 004C;
},
{
glyphname = uni01C7;
lastChange = "2019-09-04 10:55:16 +0000";
layers = (
{
hints = (
{
horizontal = 1;
place = "{0, 237}";
type = Stem;
},
{
place = "{33, 1488}";
type = Stem;
},
{
horizontal = 1;
place = "{0, 138}";
type = Stem;
}
);
layerId = "59338637-1E5C-47E2-9B1C-5C70074789A9";
paths = (
{
closed = 1;
nodes = (
"1407 0 LINE",
"1538 94 LINE",
"1651 737 LINE",
"1288 737 LINE",
"1182 138 LINE",
"1125 138 LINE",
"1167 376 LINE",
"804 376 LINE",
"755 94 LINE",
"852 0 LINE"
);
},
{
closed = 1;
nodes = (
"672 0 LINE",
"714 237 LINE",
"438 237 LINE",
"526 737 LINE",
"163 737 LINE",
"33 0 LINE"
);
}
);
width = 1554;
}
);
note = uni01C7;
unicode = 01C7;
},
{
glyphname = Lacute;
lastChange = "2019-09-04 10:55:16 +0000";
layers = (
{
hints = (
{
horizontal = 1;
place = "{0, 237}";
type = Stem;
},
{
horizontal = 1;
place = "{783, 169}";
type = Stem;
},
{
place = "{33, 639}";
type = Stem;
}
);
layerId = "59338637-1E5C-47E2-9B1C-5C70074789A9";
paths = (
{
closed = 1;
nodes = (
"672 0 LINE",
"714 237 LINE",
"438 237 LINE",
"526 737 LINE",
"163 737 LINE",
"33 0 LINE"
);
},
{
closed = 1;
nodes = (
"466 783 LINE",
"667 952 LINE",
"403 952 LINE",
"260 783 LINE"
);
}
);
width = 705;
}
);
note = Lacute;
rightKerningGroup = L;
unicode = 0139;
},
{
glyphname = Lcaron;
lastChange = "2019-09-04 10:55:16 +0000";
layers = (
{
hints = (
{
horizontal = 1;
place = "{0, 237}";
type = Stem;
},
{
horizontal = 1;
place = "{554, 183}";
type = Stem;
},
{
place = "{33, 729}";
type = Stem;
}
);
layerId = "59338637-1E5C-47E2-9B1C-5C70074789A9";
paths = (
{
closed = 1;
nodes = (
"672 0 LINE",
"714 237 LINE",
"438 237 LINE",
"526 737 LINE",
"163 737 LINE",
"33 0 LINE"
);
},
{
closed = 1;
nodes = (
"709 554 LINE",
"892 737 LINE",
"615 737 LINE",
"527 554 LINE"
);
}
);
width = 705;
}
);
note = Lcaron;
rightKerningGroup = L;
unicode = 013D;
},
{
glyphname = uni013B;
lastChange = "2019-09-04 10:55:16 +0000";
layers = (
{
hints = (
{
horizontal = 1;
place = "{-229, 183}";
type = Stem;
},
{
horizontal = 1;
place = "{0, 237}";
type = Stem;
},
{
place = "{33, 639}";
type = Stem;
}
);
layerId = "59338637-1E5C-47E2-9B1C-5C70074789A9";
paths = (
{
closed = 1;
nodes = (
"672 0 LINE",
"714 237 LINE",
"438 237 LINE",
"526 737 LINE",
"163 737 LINE",
"33 0 LINE"
);
},
{
closed = 1;
nodes = (
"310 -229 LINE",
"493 -46 LINE",
"216 -46 LINE",
"128 -229 LINE"
);
}
);
width = 705;
}
);
note = uni013B;
rightKerningGroup = L;
unicode = 013B;
},
{
glyphname = Ldot;
lastChange = "2019-09-04 10:55:16 +0000";
layers = (
{
hints = (
{
horizontal = 1;
place = "{0, 237}";
type = Stem;
},
{
horizontal = 1;
place = "{331, 217}";
type = Stem;
},
{
place = "{455, 217}";
type = Stem;
}
);
layerId = "59338637-1E5C-47E2-9B1C-5C70074789A9";
paths = (
{
closed = 1;
nodes = (
"672 0 LINE",
"714 237 LINE",
"438 237 LINE",
"526 737 LINE",
"163 737 LINE",
"33 0 LINE"
);
},
{
closed = 1;
nodes = (
"730 331 LINE",
"769 548 LINE",
"552 548 LINE",
"513 331 LINE"
);
}
);
width = 705;
}
);
note = Ldot;
unicode = 013F;
},
{
glyphname = uni01C8;
lastChange = "2019-09-04 10:55:16 +0000";
layers = (
{
hints = (
{
horizontal = 1;
place = "{-187, 126}";
type = Stem;
},
{
horizontal = 1;
place = "{0, 237}";
type = Stem;
},
{
horizontal = 1;
place = "{569, 168}";
type = Stem;
},
{
place = "{651, 21}";
type = Stem;
},
{
place = "{734, 306}";
type = Stem;
}
);
layerId = "59338637-1E5C-47E2-9B1C-5C70074789A9";
paths = (
{
closed = 1;
nodes = (
"672 0 LINE",
"714 237 LINE",
"438 237 LINE",
"526 737 LINE",
"163 737 LINE",
"33 0 LINE"
);
},
{
closed = 1;
nodes = (
"893 -187 LINE",
"1023 -94 LINE",
"1132 523 LINE",
"826 523 LINE",
"723 -61 LINE",
"640 -61 LINE",
"618 -187 LINE"
);
},
{
closed = 1;
nodes = (
"1140 569 LINE",
"1170 737 LINE",
"863 737 LINE",
"833 569 LINE"
);
}
);
width = 1073;
}
);
note = uni01C8;
unicode = 01C8;
},
{
glyphname = Lslash;
lastChange = "2019-09-04 10:55:16 +0000";
layers = (
{
hints = (
{
horizontal = 1;
place = "{0, 237}";
type = Stem;
},
{
place = "{-33, 705}";
type = Stem;
}
);
layerId = "59338637-1E5C-47E2-9B1C-5C70074789A9";
paths = (
{
closed = 1;
nodes = (
"705 0 LINE",
"747 237 LINE",
"471 237 LINE",
"494 367 LINE",
"634 424 LINE",
"663 592 LINE",
"523 535 LINE",
"559 737 LINE",
"196 737 LINE",
"132 376 LINE",
"61 347 LINE",
"31 178 LINE",
"102 207 LINE",
"66 0 LINE"
);
}
);
width = 738;
}
);
note = Lslash;
rightKerningGroup = L;
unicode = 0141;
},
{
glyphname = M;
lastChange = "2019-09-04 10:55:16 +0000";
layers = (
{
hints = (
{
horizontal = 1;
place = "{0, 737}";
type = Stem;
},
{
place = "{33, 960}";
type = Stem;
}
);
layerId = "59338637-1E5C-47E2-9B1C-5C70074789A9";
paths = (
{
closed = 1;
nodes = (
"396 0 LINE",
"443 268 LINE",
"478 61 LINE",
"570 61 LINE",
"677 268 LINE",
"630 0 LINE",
"993 0 LINE",
"1123 737 LINE",
"717 737 LINE",
"597 475 LINE",
"569 737 LINE",
"163 737 LINE",
"33 0 LINE"
);
}
);
width = 1026;
}
);
note = M;
unicode = 004D;
},
{
glyphname = N;
lastChange = "2019-09-04 10:55:16 +0000";
layers = (
{
hints = (
{
horizontal = 1;
place = "{0, 737}";
type = Stem;
},
{
place = "{33, 798}";
type = Stem;
}
);
layerId = "59338637-1E5C-47E2-9B1C-5C70074789A9";
paths = (
{
closed = 1;
nodes = (
"396 0 LINE",
"437 233 LINE",
"468 0 LINE",
"831 0 LINE",
"961 737 LINE",
"598 737 LINE",
"557 504 LINE",
"527 737 LINE",
"163 737 LINE",
"33 0 LINE"
);
}
);
width = 864;
}
);
note = N;
unicode = 004E;
},
{
glyphname = uni01CA;
lastChange = "2019-09-04 10:55:16 +0000";
layers = (
{
hints = (
{
horizontal = 1;
place = "{0, 138}";
type = Stem;
},
{
place = "{33, 1647}";
type = Stem;
}
);
layerId = "59338637-1E5C-47E2-9B1C-5C70074789A9";
paths = (
{
closed = 1;
nodes = (
"1566 0 LINE",
"1697 94 LINE",
"1810 737 LINE",
"1447 737 LINE",
"1341 138 LINE",
"1284 138 LINE",
"1326 376 LINE",
"963 376 LINE",
"914 94 LINE",
"1011 0 LINE"
);
},
{
closed = 1;
nodes = (
"396 0 LINE",
"437 233 LINE",
"468 0 LINE",
"831 0 LINE",
"961 737 LINE",
"598 737 LINE",
"557 504 LINE",
"527 737 LINE",
"163 737 LINE",
"33 0 LINE"
);
}
);
width = 1713;
}
);
note = uni01CA;
unicode = 01CA;
},
{
glyphname = Nacute;
lastChange = "2019-09-04 10:55:16 +0000";
layers = (
{
hints = (
{
horizontal = 1;
place = "{783, 169}";
type = Stem;
},
{
place = "{33, 798}";
type = Stem;
}
);
layerId = "59338637-1E5C-47E2-9B1C-5C70074789A9";
paths = (
{
closed = 1;
nodes = (
"685 783 LINE",
"886 952 LINE",
"622 952 LINE",
"479 783 LINE"
);
},
{
closed = 1;
nodes = (
"396 0 LINE",
"437 233 LINE",
"468 0 LINE",
"831 0 LINE",
"961 737 LINE",
"598 737 LINE",
"557 504 LINE",
"527 737 LINE",
"163 737 LINE",
"33 0 LINE"
);
}
);
width = 864;
}
);
note = Nacute;
unicode = 0143;
},
{
glyphname = Ncaron;
lastChange = "2019-09-04 10:55:16 +0000";
layers = (
{
hints = (
{
horizontal = 1;
place = "{783, 169}";
type = Stem;
},
{
place = "{33, 798}";
type = Stem;
}
);
layerId = "59338637-1E5C-47E2-9B1C-5C70074789A9";
paths = (
{
closed = 1;
nodes = (
"734 783 LINE",
"893 952 LINE",
"678 952 LINE",
"586 875 LINE",
"522 952 LINE",
"308 952 LINE",
"406 783 LINE"
);
},
{
closed = 1;
nodes = (
"396 0 LINE",
"437 233 LINE",
"468 0 LINE",
"831 0 LINE",
"961 737 LINE",
"598 737 LINE",
"557 504 LINE",
"527 737 LINE",
"163 737 LINE",
"33 0 LINE"
);
}
);
width = 864;
}
);
note = Ncaron;
unicode = 0147;
},
{
glyphname = uni0145;
lastChange = "2019-09-04 10:55:16 +0000";
layers = (
{
hints = (
{
horizontal = 1;
place = "{-229, 183}";
type = Stem;
},
{
place = "{33, 798}";
type = Stem;
}
);
layerId = "59338637-1E5C-47E2-9B1C-5C70074789A9";
paths = (
{
closed = 1;
nodes = (
"380 -229 LINE",
"563 -46 LINE",
"286 -46 LINE",
"198 -229 LINE"
);
},
{
closed = 1;
nodes = (
"396 0 LINE",
"437 233 LINE",
"468 0 LINE",
"831 0 LINE",
"961 737 LINE",
"598 737 LINE",
"557 504 LINE",
"527 737 LINE",
"163 737 LINE",
"33 0 LINE"
);
}
);
width = 864;
}
);
note = uni0145;
unicode = 0145;
},
{
glyphname = Eng;
lastChange = "2019-09-04 10:55:16 +0000";
layers = (
{
hints = (
{
horizontal = 1;
place = "{-187, 126}";
type = Stem;
},
{
place = "{385, 11}";
type = Stem;
}
);
layerId = "59338637-1E5C-47E2-9B1C-5C70074789A9";
paths = (
{
closed = 1;
nodes = (
"396 0 LINE",
"437 233 LINE",
"468 3 LINE",
"456 -61 LINE",
"374 -61 LINE",
"352 -187 LINE",
"683 -187 LINE",
"813 -94 LINE",
"961 737 LINE",
"598 737 LINE",
"557 504 LINE",
"527 737 LINE",
"163 737 LINE",
"33 0 LINE"
);
}
);
width = 864;
}
);
note = Eng;
unicode = 014A;
},
{
glyphname = uni01CB;
lastChange = "2019-09-04 10:55:16 +0000";
layers = (
{
hints = (
{
horizontal = 1;
place = "{-187, 126}";
type = Stem;
},
{
horizontal = 1;
place = "{569, 168}";
type = Stem;
},
{
place = "{808, 23}";
type = Stem;
},
{
place = "{891, 306}";
type = Stem;
}
);
layerId = "59338637-1E5C-47E2-9B1C-5C70074789A9";
paths = (
{
closed = 1;
nodes = (
"1050 -187 LINE",
"1180 -94 LINE",
"1289 523 LINE",
"983 523 LINE",
"880 -61 LINE",
"797 -61 LINE",
"775 -187 LINE"
);
},
{
closed = 1;
nodes = (
"1297 569 LINE",
"1327 737 LINE",
"1020 737 LINE",
"990 569 LINE"
);
},
{
closed = 1;
nodes = (
"396 0 LINE",
"437 233 LINE",
"468 0 LINE",
"831 0 LINE",
"961 737 LINE",
"598 737 LINE",
"557 504 LINE",
"527 737 LINE",
"163 737 LINE",
"33 0 LINE"
);
}
);
width = 1230;
}
);
note = uni01CB;
unicode = 01CB;
},
{
glyphname = Ntilde;
lastChange = "2019-09-04 10:55:16 +0000";
layers = (
{
hints = (
{
horizontal = 1;
place = "{789, 168}";
type = Stem;
},
{
place = "{166, 155}";
type = Stem;
},
{
place = "{544, 156}";
type = Stem;
},
{
horizontal = 1;
place = "{783, 169}";
type = Stem;
}
);
layerId = "59338637-1E5C-47E2-9B1C-5C70074789A9";
paths = (
{
closed = 1;
nodes = (
"745 783 LINE",
"851 859 LINE",
"868 952 LINE",
"712 952 LINE",
"704 910 LINE",
"669 910 LINE",
"623 957 LINE",
"427 957 LINE",
"321 881 LINE",
"305 789 LINE",
"460 789 LINE",
"468 831 LINE",
"503 831 LINE",
"549 783 LINE"
);
},
{
closed = 1;
nodes = (
"396 0 LINE",
"437 233 LINE",
"468 0 LINE",
"831 0 LINE",
"961 737 LINE",
"598 737 LINE",
"557 504 LINE",
"527 737 LINE",
"163 737 LINE",
"33 0 LINE"
);
}
);
width = 864;
}
);
note = Ntilde;
unicode = 00D1;
},
{
glyphname = O;
lastChange = "2019-09-04 10:55:16 +0000";
layers = (
{
hints = (
{
horizontal = 1;
place = "{0, 138}";
type = Stem;
},
{
horizontal = 1;
place = "{601, 137}";
type = Stem;
},
{
place = "{33, 783}";
type = Stem;
}
);
layerId = "59338637-1E5C-47E2-9B1C-5C70074789A9";
paths = (
{
closed = 1;
nodes = (
"702 0 LINE",
"833 94 LINE",
"930 645 LINE",
"832 738 LINE",
"277 738 LINE",
"147 645 LINE",
"50 94 LINE",
"147 0 LINE"
);
},
{
closed = 1;
nodes = (
"502 601 LINE",
"559 601 LINE",
"477 138 LINE",
"420 138 LINE"
);
}
);
width = 849;
}
);
note = O;
unicode = 004F;
},
{
glyphname = Oacute;
lastChange = "2019-09-04 10:55:16 +0000";
layers = (
{
hints = (
{
horizontal = 1;
place = "{0, 138}";
type = Stem;
},
{
horizontal = 1;
place = "{601, 137}";
type = Stem;
},
{
horizontal = 1;
place = "{783, 169}";
type = Stem;
},
{
place = "{33, 783}";
type = Stem;
}
);
layerId = "59338637-1E5C-47E2-9B1C-5C70074789A9";
paths = (
{
closed = 1;
nodes = (
"702 0 LINE",
"833 94 LINE",
"930 645 LINE",
"832 738 LINE",
"277 738 LINE",
"147 645 LINE",
"50 94 LINE",
"147 0 LINE"
);
},
{
closed = 1;
nodes = (
"502 601 LINE",
"559 601 LINE",
"477 138 LINE",
"420 138 LINE"
);
},
{
closed = 1;
nodes = (
"677 783 LINE",
"878 952 LINE",
"614 952 LINE",
"471 783 LINE"
);
}
);
width = 849;
}
);
note = Oacute;
unicode = 00D3;
},
{
glyphname = Obreve;
lastChange = "2019-09-04 10:55:16 +0000";
layers = (
{
hints = (
{
horizontal = 1;
place = "{0, 138}";
type = Stem;
},
{
horizontal = 1;
place = "{601, 137}";
type = Stem;
},
{
horizontal = 1;
place = "{783, 169}";
type = Stem;
},
{
place = "{154, 226}";
type = Stem;
},
{
place = "{470, 225}";
type = Stem;
}
);
layerId = "59338637-1E5C-47E2-9B1C-5C70074789A9";
paths = (
{
closed = 1;
nodes = (
"702 0 LINE",
"833 94 LINE",
"930 645 LINE",
"832 738 LINE",
"277 738 LINE",
"147 645 LINE",
"50 94 LINE",
"147 0 LINE"
);
},
{
closed = 1;
nodes = (
"502 601 LINE",
"559 601 LINE",
"477 138 LINE",
"420 138 LINE"
);
},
{
closed = 1;
nodes = (
"719 783 LINE",
"850 877 LINE",
"863 952 LINE",
"638 952 LINE",
"629 904 LINE",
"539 904 LINE",
"548 952 LINE",
"322 952 LINE",
"309 877 LINE",
"406 783 LINE"
);
}
);
width = 849;
}
);
note = Obreve;
unicode = 014E;
},
{
glyphname = Ocircumflex;
lastChange = "2019-09-04 10:55:16 +0000";
layers = (
{
hints = (
{
horizontal = 1;
place = "{0, 138}";
type = Stem;
},
{
horizontal = 1;
place = "{601, 137}";
type = Stem;
},
{
horizontal = 1;
place = "{783, 169}";
type = Stem;
},
{
place = "{33, 783}";
type = Stem;
}
);
layerId = "59338637-1E5C-47E2-9B1C-5C70074789A9";
paths = (
{
closed = 1;
nodes = (
"702 0 LINE",
"833 94 LINE",
"930 645 LINE",
"832 738 LINE",
"277 738 LINE",
"147 645 LINE",
"50 94 LINE",
"147 0 LINE"
);
},
{
closed = 1;
nodes = (
"502 601 LINE",
"559 601 LINE",
"477 138 LINE",
"420 138 LINE"
);
},
{
closed = 1;
nodes = (
"485 783 LINE",
"577 860 LINE",
"641 783 LINE",
"855 783 LINE",
"757 952 LINE",
"429 952 LINE",
"270 783 LINE"
);
}
);
width = 849;
}
);
note = Ocircumflex;
unicode = 00D4;
},
{
glyphname = uni1ED0;
lastChange = "2019-09-04 10:55:16 +0000";
layers = (
{
hints = (
{
horizontal = 1;
place = "{0, 138}";
type = Stem;
},
{
horizontal = 1;
place = "{601, 137}";
type = Stem;
},
{
horizontal = 1;
place = "{880, 169}";
type = Stem;
},
{
place = "{33, 1028}";
type = Stem;
},
{
horizontal = 1;
place = "{783, 169}";
type = Stem;
}
);
layerId = "59338637-1E5C-47E2-9B1C-5C70074789A9";
paths = (
{
closed = 1;
nodes = (
"702 0 LINE",
"833 94 LINE",
"930 645 LINE",
"832 738 LINE",
"277 738 LINE",
"147 645 LINE",
"50 94 LINE",
"147 0 LINE"
);
},
{
closed = 1;
nodes = (
"502 601 LINE",
"559 601 LINE",
"477 138 LINE",
"420 138 LINE"
);
},
{
closed = 1;
nodes = (
"485 783 LINE",
"577 860 LINE",
"641 783 LINE",
"856 783 LINE",
"757 952 LINE",
"429 952 LINE",
"271 783 LINE"
);
},
{
closed = 1;
nodes = (
"1045 880 LINE",
"1246 1049 LINE",
"982 1049 LINE",
"839 880 LINE"
);
}
);
width = 849;
}
);
note = uni1ED0;
unicode = 1ED0;
},
{
glyphname = uni1ED8;
lastChange = "2019-09-04 10:55:16 +0000";
layers = (
{
hints = (
{
horizontal = 1;
place = "{-215, 169}";
type = Stem;
},
{
horizontal = 1;
place = "{0, 138}";
type = Stem;
},
{
horizontal = 1;
place = "{601, 137}";
type = Stem;
},
{
horizontal = 1;
place = "{783, 169}";
type = Stem;
},
{
place = "{271, 125}";
type = Stem;
},
{
place = "{453, 125}";
type = Stem;
}
);
layerId = "59338637-1E5C-47E2-9B1C-5C70074789A9";
paths = (
{
closed = 1;
nodes = (
"702 0 LINE",
"833 94 LINE",
"930 645 LINE",
"832 738 LINE",
"277 738 LINE",
"147 645 LINE",
"50 94 LINE",
"147 0 LINE"
);
},
{
closed = 1;
nodes = (
"540 -215 LINE",
"570 -46 LINE",
"263 -46 LINE",
"233 -215 LINE"
);
},
{
closed = 1;
nodes = (
"502 601 LINE",
"559 601 LINE",
"477 138 LINE",
"420 138 LINE"
);
},
{
closed = 1;
nodes = (
"485 783 LINE",
"577 860 LINE",
"641 783 LINE",
"855 783 LINE",
"757 952 LINE",
"429 952 LINE",
"270 783 LINE"
);
}
);
width = 849;
}
);
note = uni1ED8;
unicode = 1ED8;
},
{
glyphname = uni1ED2;
lastChange = "2019-09-04 10:55:16 +0000";
layers = (
{
hints = (
{
horizontal = 1;
place = "{0, 138}";
type = Stem;
},
{
horizontal = 1;
place = "{601, 137}";
type = Stem;
},
{
horizontal = 1;
place = "{880, 169}";
type = Stem;
},
{
place = "{-211, 1027}";
type = Stem;
},
{
horizontal = 1;
place = "{783, 169}";
type = Stem;
}
);
layerId = "59338637-1E5C-47E2-9B1C-5C70074789A9";
paths = (
{
closed = 1;
nodes = (
"702 0 LINE",
"833 94 LINE",
"930 645 LINE",
"832 738 LINE",
"277 738 LINE",
"147 645 LINE",
"50 94 LINE",
"147 0 LINE"
);
},
{
closed = 1;
nodes = (
"502 601 LINE",
"559 601 LINE",
"477 138 LINE",
"420 138 LINE"
);
},
{
closed = 1;
nodes = (
"321 880 LINE",
"238 1049 LINE",
"-26 1049 LINE",
"115 880 LINE"
);
},
{
closed = 1;
nodes = (
"485 783 LINE",
"577 860 LINE",
"641 783 LINE",
"855 783 LINE",
"757 952 LINE",
"429 952 LINE",
"270 783 LINE"
);
}
);
width = 849;
}
);
note = uni1ED2;
unicode = 1ED2;
},
{
glyphname = uni1ED4;
lastChange = "2019-09-04 10:55:16 +0000";
layers = (
{
hints = (
{
horizontal = 1;
place = "{0, 138}";
type = Stem;
},
{
horizontal = 1;
place = "{601, 137}";
type = Stem;
},
{
horizontal = 1;
place = "{783, 169}";
type = Stem;
},
{
horizontal = 1;
place = "{1006, 122}";
type = Stem;
},
{
place = "{584, 179}";
type = Stem;
},
{
place = "{802, 184}";
type = Stem;
},
{
horizontal = 1;
place = "{880, 98}";
type = Stem;
}
);
layerId = "59338637-1E5C-47E2-9B1C-5C70074789A9";
paths = (
{
closed = 1;
nodes = (
"702 0 LINE",
"833 94 LINE",
"930 645 LINE",
"832 738 LINE",
"277 738 LINE",
"147 645 LINE",
"50 94 LINE",
"147 0 LINE"
);
},
{
closed = 1;
nodes = (
"502 601 LINE",
"559 601 LINE",
"477 138 LINE",
"420 138 LINE"
);
},
{
closed = 1;
nodes = (
"485 783 LINE",
"577 860 LINE",
"641 783 LINE",
"855 783 LINE",
"757 952 LINE",
"429 952 LINE",
"270 783 LINE"
);
},
{
closed = 1;
nodes = (
"1047 880 LINE",
"1053 912 LINE",
"1093 912 LINE",
"1156 966 LINE",
"1175 1073 LINE",
"1120 1128 LINE",
"848 1128 LINE",
"773 1073 LINE",
"761 1006 LINE",
"940 1006 LINE",
"950 1058 LINE",
"989 1058 LINE",
"974 978 LINE",
"890 978 LINE",
"836 932 LINE",
"827 880 LINE"
);
}
);
width = 849;
}
);
note = uni1ED4;
unicode = 1ED4;
},
{
glyphname = uni1ED6;
lastChange = "2019-09-04 10:55:16 +0000";
layers = (
{
hints = (
{
horizontal = 1;
place = "{0, 138}";
type = Stem;
},
{
horizontal = 1;
place = "{601, 137}";
type = Stem;
},
{
horizontal = 1;
place = "{783, 169}";
type = Stem;
},
{
horizontal = 1;
place = "{987, 168}";
type = Stem;
},
{
place = "{159, 155}";
type = Stem;
},
{
place = "{537, 156}";
type = Stem;
},
{
horizontal = 1;
place = "{981, 169}";
type = Stem;
}
);
layerId = "59338637-1E5C-47E2-9B1C-5C70074789A9";
paths = (
{
closed = 1;
nodes = (
"702 0 LINE",
"833 94 LINE",
"930 645 LINE",
"832 738 LINE",
"277 738 LINE",
"147 645 LINE",
"50 94 LINE",
"147 0 LINE"
);
},
{
closed = 1;
nodes = (
"502 601 LINE",
"559 601 LINE",
"477 138 LINE",
"420 138 LINE"
);
},
{
closed = 1;
nodes = (
"485 783 LINE",
"577 860 LINE",
"641 783 LINE",
"855 783 LINE",
"757 952 LINE",
"429 952 LINE",
"270 783 LINE"
);
},
{
closed = 1;
nodes = (
"773 981 LINE",
"879 1057 LINE",
"896 1150 LINE",
"740 1150 LINE",
"732 1108 LINE",
"697 1108 LINE",
"651 1155 LINE",
"455 1155 LINE",
"349 1079 LINE",
"333 987 LINE",
"488 987 LINE",
"495 1029 LINE",
"530 1029 LINE",
"577 981 LINE"
);
}
);
width = 849;
}
);
note = uni1ED6;
unicode = 1ED6;
},
{
glyphname = uni020C;
lastChange = "2019-09-04 10:55:16 +0000";
layers = (
{
hints = (
{
horizontal = 1;
place = "{0, 138}";
type = Stem;
},
{
horizontal = 1;
place = "{601, 137}";
type = Stem;
},
{
horizontal = 1;
place = "{783, 169}";
type = Stem;
},
{
place = "{11, 805}";
type = Stem;
}
);
layerId = "59338637-1E5C-47E2-9B1C-5C70074789A9";
paths = (
{
closed = 1;
nodes = (
"702 0 LINE",
"833 94 LINE",
"930 645 LINE",
"832 738 LINE",
"277 738 LINE",
"147 645 LINE",
"50 94 LINE",
"147 0 LINE"
);
},
{
closed = 1;
nodes = (
"502 601 LINE",
"559 601 LINE",
"477 138 LINE",
"420 138 LINE"
);
},
{
closed = 1;
nodes = (
"515 783 LINE",
"432 952 LINE",
"179 952 LINE",
"321 783 LINE"
);
},
{
closed = 1;
nodes = (
"804 783 LINE",
"720 952 LINE",
"467 952 LINE",
"609 783 LINE"
);
}
);
width = 849;
}
);
note = uni020C;
unicode = 020C;
},
{
glyphname = Odieresis;
lastChange = "2019-09-04 10:55:16 +0000";
layers = (
{
hints = (
{
horizontal = 1;
place = "{0, 138}";
type = Stem;
},
{
horizontal = 1;
place = "{601, 137}";
type = Stem;
},
{
horizontal = 1;
place = "{783, 169}";
type = Stem;
},
{
place = "{129, 274}";
type = Stem;
},
{
place = "{449, 274}";
type = Stem;
}
);
layerId = "59338637-1E5C-47E2-9B1C-5C70074789A9";
paths = (
{
closed = 1;
nodes = (
"702 0 LINE",
"833 94 LINE",
"930 645 LINE",
"832 738 LINE",
"277 738 LINE",
"147 645 LINE",
"50 94 LINE",
"147 0 LINE"
);
},
{
closed = 1;
nodes = (
"502 601 LINE",
"559 601 LINE",
"477 138 LINE",
"420 138 LINE"
);
},
{
closed = 1;
nodes = (
"541 783 LINE",
"571 952 LINE",
"297 952 LINE",
"267 783 LINE"
);
},
{
closed = 1;
nodes = (
"861 783 LINE",
"891 952 LINE",
"617 952 LINE",
"587 783 LINE"
);
}
);
width = 849;
}
);
note = Odieresis;
unicode = 00D6;
},
{
glyphname = uni022A;
lastChange = "2019-09-04 10:55:16 +0000";
layers = (
{
hints = (
{
horizontal = 1;
place = "{0, 138}";
type = Stem;
},
{
horizontal = 1;
place = "{601, 137}";
type = Stem;
},
{
horizontal = 1;
place = "{783, 169}";
type = Stem;
},
{
horizontal = 1;
place = "{984, 169}";
type = Stem;
},
{
place = "{129, 274}";
type = Stem;
},
{
place = "{449, 274}";
type = Stem;
}
);
layerId = "59338637-1E5C-47E2-9B1C-5C70074789A9";
paths = (
{
closed = 1;
nodes = (
"702 0 LINE",
"833 94 LINE",
"930 645 LINE",
"832 738 LINE",
"277 738 LINE",
"147 645 LINE",
"50 94 LINE",
"147 0 LINE"
);
},
{
closed = 1;
nodes = (
"502 601 LINE",
"559 601 LINE",
"477 138 LINE",
"420 138 LINE"
);
},
{
closed = 1;
nodes = (
"541 783 LINE",
"571 952 LINE",
"297 952 LINE",
"267 783 LINE"
);
},
{
closed = 1;
nodes = (
"861 783 LINE",
"891 952 LINE",
"617 952 LINE",
"587 783 LINE"
);
},
{
closed = 1;
nodes = (
"896 984 LINE",
"925 1153 LINE",
"331 1153 LINE",
"302 984 LINE"
);
}
);
width = 849;
}
);
note = uni022A;
unicode = 022A;
},
{
glyphname = uni0230;
lastChange = "2019-09-04 10:55:16 +0000";
layers = (
{
hints = (
{
horizontal = 1;
place = "{0, 138}";
type = Stem;
},
{
horizontal = 1;
place = "{601, 137}";
type = Stem;
},
{
horizontal = 1;
place = "{783, 168}";
type = Stem;
},
{
horizontal = 1;
place = "{984, 169}";
type = Stem;
},
{
place = "{271, 125}";
type = Stem;
},
{
place = "{453, 125}";
type = Stem;
}
);
layerId = "59338637-1E5C-47E2-9B1C-5C70074789A9";
paths = (
{
closed = 1;
nodes = (
"702 0 LINE",
"833 94 LINE",
"930 645 LINE",
"832 738 LINE",
"277 738 LINE",
"147 645 LINE",
"50 94 LINE",
"147 0 LINE"
);
},
{
closed = 1;
nodes = (
"502 601 LINE",
"559 601 LINE",
"477 138 LINE",
"420 138 LINE"
);
},
{
closed = 1;
nodes = (
"716 783 LINE",
"746 951 LINE",
"439 951 LINE",
"409 783 LINE"
);
},
{
closed = 1;
nodes = (
"896 984 LINE",
"925 1153 LINE",
"331 1153 LINE",
"302 984 LINE"
);
}
);
width = 849;
}
);
note = uni0230;
unicode = 0230;
},
{
glyphname = uni1ECC;
lastChange = "2019-09-04 10:55:16 +0000";
layers = (
{
hints = (
{
horizontal = 1;
place = "{-215, 169}";
type = Stem;
},
{
horizontal = 1;
place = "{0, 138}";
type = Stem;
},
{
horizontal = 1;
place = "{601, 137}";
type = Stem;
},
{
place = "{271, 125}";
type = Stem;
},
{
place = "{453, 125}";
type = Stem;
}
);
layerId = "59338637-1E5C-47E2-9B1C-5C70074789A9";
paths = (
{
closed = 1;
nodes = (
"702 0 LINE",
"833 94 LINE",
"930 645 LINE",
"832 738 LINE",
"277 738 LINE",
"147 645 LINE",
"50 94 LINE",
"147 0 LINE"
);
},
{
closed = 1;
nodes = (
"540 -215 LINE",
"570 -46 LINE",
"263 -46 LINE",
"233 -215 LINE"
);
},
{
closed = 1;
nodes = (
"502 601 LINE",
"559 601 LINE",
"477 138 LINE",
"420 138 LINE"
);
}
);
width = 849;
}
);
note = uni1ECC;
unicode = 1ECC;
},
{
glyphname = Ograve;
lastChange = "2019-09-04 10:55:16 +0000";
layers = (
{
hints = (
{
horizontal = 1;
place = "{0, 138}";
type = Stem;
},
{
horizontal = 1;
place = "{601, 137}";
type = Stem;
},
{
horizontal = 1;
place = "{783, 169}";
type = Stem;
},
{
place = "{33, 783}";
type = Stem;
}
);
layerId = "59338637-1E5C-47E2-9B1C-5C70074789A9";
paths = (
{
closed = 1;
nodes = (
"702 0 LINE",
"833 94 LINE",
"930 645 LINE",
"832 738 LINE",
"277 738 LINE",
"147 645 LINE",
"50 94 LINE",
"147 0 LINE"
);
},
{
closed = 1;
nodes = (
"502 601 LINE",
"559 601 LINE",
"477 138 LINE",
"420 138 LINE"
);
},
{
closed = 1;
nodes = (
"665 783 LINE",
"582 952 LINE",
"318 952 LINE",
"459 783 LINE"
);
}
);
width = 849;
}
);
note = Ograve;
unicode = 00D2;
},
{
glyphname = uni1ECE;
lastChange = "2019-09-04 10:55:16 +0000";
layers = (
{
hints = (
{
horizontal = 1;
place = "{0, 138}";
type = Stem;
},
{
horizontal = 1;
place = "{601, 137}";
type = Stem;
},
{
horizontal = 1;
place = "{908, 122}";
type = Stem;
},
{
place = "{227, 179}";
type = Stem;
},
{
place = "{445, 184}";
type = Stem;
},
{
horizontal = 1;
place = "{782, 98}";
type = Stem;
}
);
layerId = "59338637-1E5C-47E2-9B1C-5C70074789A9";
paths = (
{
closed = 1;
nodes = (
"702 0 LINE",
"833 94 LINE",
"930 645 LINE",
"832 738 LINE",
"277 738 LINE",
"147 645 LINE",
"50 94 LINE",
"147 0 LINE"
);
},
{
closed = 1;
nodes = (
"502 601 LINE",
"559 601 LINE",
"477 138 LINE",
"420 138 LINE"
);
},
{
closed = 1;
nodes = (
"673 782 LINE",
"679 814 LINE",
"719 814 LINE",
"782 868 LINE",
"801 975 LINE",
"746 1030 LINE",
"474 1030 LINE",
"399 975 LINE",
"387 908 LINE",
"566 908 LINE",
"575 960 LINE",
"614 960 LINE",
"600 880 LINE",
"516 880 LINE",
"462 834 LINE",
"453 782 LINE"
);
}
);
width = 849;
}
);
note = uni1ECE;
unicode = 1ECE;
},
{
glyphname = Ohorn;
lastChange = "2019-09-04 10:55:16 +0000";
layers = (
{
hints = (
{
horizontal = 1;
place = "{0, 138}";
type = Stem;
},
{
horizontal = 1;
place = "{601, 137}";
type = Stem;
},
{
place = "{33, 1065}";
type = Stem;
},
{
horizontal = 1;
place = "{595, 206}";
type = Stem;
}
);
layerId = "59338637-1E5C-47E2-9B1C-5C70074789A9";
paths = (
{
closed = 1;
nodes = (
"702 0 LINE",
"833 94 LINE",
"921 595 LINE",
"1041 595 LINE",
"1239 801 LINE",
"962 801 LINE",
"922 689 LINE",
"883 689 LINE",
"832 738 LINE",
"277 738 LINE",
"147 645 LINE",
"50 94 LINE",
"147 0 LINE"
);
},
{
closed = 1;
nodes = (
"502 601 LINE",
"559 601 LINE",
"477 138 LINE",
"420 138 LINE"
);
}
);
width = 849;
}
);
note = Ohorn;
unicode = 01A0;
},
{
glyphname = uni1EDA;
lastChange = "2019-09-04 10:55:16 +0000";
layers = (
{
hints = (
{
horizontal = 1;
place = "{0, 138}";
type = Stem;
},
{
horizontal = 1;
place = "{601, 137}";
type = Stem;
},
{
horizontal = 1;
place = "{783, 169}";
type = Stem;
},
{
place = "{33, 1065}";
type = Stem;
},
{
horizontal = 1;
place = "{595, 206}";
type = Stem;
}
);
layerId = "59338637-1E5C-47E2-9B1C-5C70074789A9";
paths = (
{
closed = 1;
nodes = (
"702 0 LINE",
"833 94 LINE",
"921 595 LINE",
"1041 595 LINE",
"1239 801 LINE",
"962 801 LINE",
"922 689 LINE",
"883 689 LINE",
"832 738 LINE",
"277 738 LINE",
"147 645 LINE",
"50 94 LINE",
"147 0 LINE"
);
},
{
closed = 1;
nodes = (
"502 601 LINE",
"559 601 LINE",
"477 138 LINE",
"420 138 LINE"
);
},
{
closed = 1;
nodes = (
"677 783 LINE",
"878 952 LINE",
"614 952 LINE",
"471 783 LINE"
);
}
);
width = 849;
}
);
note = uni1EDA;
unicode = 1EDA;
},
{
glyphname = uni1EE2;
lastChange = "2019-09-04 10:55:16 +0000";
layers = (
{
hints = (
{
horizontal = 1;
place = "{-215, 169}";
type = Stem;
},
{
horizontal = 1;
place = "{0, 138}";
type = Stem;
},
{
horizontal = 1;
place = "{601, 137}";
type = Stem;
},
{
place = "{271, 125}";
type = Stem;
},
{
place = "{453, 125}";
type = Stem;
},
{
horizontal = 1;
place = "{595, 206}";
type = Stem;
}
);
layerId = "59338637-1E5C-47E2-9B1C-5C70074789A9";
paths = (
{
closed = 1;
nodes = (
"702 0 LINE",
"833 94 LINE",
"921 595 LINE",
"1041 595 LINE",
"1239 801 LINE",
"962 801 LINE",
"922 689 LINE",
"883 689 LINE",
"832 738 LINE",
"277 738 LINE",
"147 645 LINE",
"50 94 LINE",
"147 0 LINE"
);
},
{
closed = 1;
nodes = (
"540 -215 LINE",
"570 -46 LINE",
"263 -46 LINE",
"233 -215 LINE"
);
},
{
closed = 1;
nodes = (
"502 601 LINE",
"559 601 LINE",
"477 138 LINE",
"420 138 LINE"
);
}
);
width = 849;
}
);
note = uni1EE2;
unicode = 1EE2;
},
{
glyphname = uni1EDC;
lastChange = "2019-09-04 10:55:16 +0000";
layers = (
{
hints = (
{
horizontal = 1;
place = "{0, 138}";
type = Stem;
},
{
horizontal = 1;
place = "{601, 137}";
type = Stem;
},
{
horizontal = 1;
place = "{783, 169}";
type = Stem;
},
{
place = "{33, 1065}";
type = Stem;
},
{
horizontal = 1;
place = "{595, 206}";
type = Stem;
}
);
layerId = "59338637-1E5C-47E2-9B1C-5C70074789A9";
paths = (
{
closed = 1;
nodes = (
"702 0 LINE",
"833 94 LINE",
"921 595 LINE",
"1041 595 LINE",
"1239 801 LINE",
"962 801 LINE",
"922 689 LINE",
"883 689 LINE",
"832 738 LINE",
"277 738 LINE",
"147 645 LINE",
"50 94 LINE",
"147 0 LINE"
);
},
{
closed = 1;
nodes = (
"502 601 LINE",
"559 601 LINE",
"477 138 LINE",
"420 138 LINE"
);
},
{
closed = 1;
nodes = (
"665 783 LINE",
"582 952 LINE",
"318 952 LINE",
"459 783 LINE"
);
}
);
width = 849;
}
);
note = uni1EDC;
unicode = 1EDC;
},
{
glyphname = uni1EDE;
lastChange = "2019-09-04 10:55:16 +0000";
layers = (
{
hints = (
{
horizontal = 1;
place = "{0, 138}";
type = Stem;
},
{
horizontal = 1;
place = "{601, 137}";
type = Stem;
},
{
horizontal = 1;
place = "{908, 122}";
type = Stem;
},
{
place = "{227, 179}";
type = Stem;
},
{
place = "{445, 184}";
type = Stem;
},
{
horizontal = 1;
place = "{782, 98}";
type = Stem;
},
{
horizontal = 1;
place = "{595, 206}";
type = Stem;
}
);
layerId = "59338637-1E5C-47E2-9B1C-5C70074789A9";
paths = (
{
closed = 1;
nodes = (
"702 0 LINE",
"833 94 LINE",
"921 595 LINE",
"1041 595 LINE",
"1239 801 LINE",
"962 801 LINE",
"922 689 LINE",
"883 689 LINE",
"832 738 LINE",
"277 738 LINE",
"147 645 LINE",
"50 94 LINE",
"147 0 LINE"
);
},
{
closed = 1;
nodes = (
"502 601 LINE",
"559 601 LINE",
"477 138 LINE",
"420 138 LINE"
);
},
{
closed = 1;
nodes = (
"673 782 LINE",
"679 814 LINE",
"719 814 LINE",
"782 868 LINE",
"801 975 LINE",
"746 1030 LINE",
"474 1030 LINE",
"399 975 LINE",
"387 908 LINE",
"566 908 LINE",
"575 960 LINE",
"614 960 LINE",
"600 880 LINE",
"516 880 LINE",
"462 834 LINE",
"453 782 LINE"
);
}
);
width = 849;
}
);
note = uni1EDE;
unicode = 1EDE;
},
{
glyphname = uni1EE0;
lastChange = "2019-09-04 10:55:16 +0000";
layers = (
{
hints = (
{
horizontal = 1;
place = "{0, 138}";
type = Stem;
},
{
horizontal = 1;
place = "{601, 137}";
type = Stem;
},
{
horizontal = 1;
place = "{789, 168}";
type = Stem;
},
{
place = "{158, 155}";
type = Stem;
},
{
place = "{536, 156}";
type = Stem;
},
{
horizontal = 1;
place = "{783, 169}";
type = Stem;
},
{
horizontal = 1;
place = "{595, 206}";
type = Stem;
}
);
layerId = "59338637-1E5C-47E2-9B1C-5C70074789A9";
paths = (
{
closed = 1;
nodes = (
"702 0 LINE",
"833 94 LINE",
"921 595 LINE",
"1041 595 LINE",
"1239 801 LINE",
"962 801 LINE",
"922 689 LINE",
"883 689 LINE",
"832 738 LINE",
"277 738 LINE",
"147 645 LINE",
"50 94 LINE",
"147 0 LINE"
);
},
{
closed = 1;
nodes = (
"502 601 LINE",
"559 601 LINE",
"477 138 LINE",
"420 138 LINE"
);
},
{
closed = 1;
nodes = (
"737 783 LINE",
"843 859 LINE",
"860 952 LINE",
"704 952 LINE",
"696 910 LINE",
"661 910 LINE",
"615 957 LINE",
"419 957 LINE",
"313 881 LINE",
"297 789 LINE",
"452 789 LINE",
"460 831 LINE",
"495 831 LINE",
"541 783 LINE"
);
}
);
width = 849;
}
);
note = uni1EE0;
unicode = 1EE0;
},
{
glyphname = Ohungarumlaut;
lastChange = "2019-09-04 10:55:16 +0000";
layers = (
{
hints = (
{
horizontal = 1;
place = "{0, 138}";
type = Stem;
},
{
horizontal = 1;
place = "{601, 137}";
type = Stem;
},
{
horizontal = 1;
place = "{783, 169}";
type = Stem;
},
{
place = "{33, 814}";
type = Stem;
}
);
layerId = "59338637-1E5C-47E2-9B1C-5C70074789A9";
paths = (
{
closed = 1;
nodes = (
"702 0 LINE",
"833 94 LINE",
"930 645 LINE",
"832 738 LINE",
"277 738 LINE",
"147 645 LINE",
"50 94 LINE",
"147 0 LINE"
);
},
{
closed = 1;
nodes = (
"502 601 LINE",
"559 601 LINE",
"477 138 LINE",
"420 138 LINE"
);
},
{
closed = 1;
nodes = (
"525 783 LINE",
"726 952 LINE",
"456 952 LINE",
"330 783 LINE"
);
},
{
closed = 1;
nodes = (
"813 783 LINE",
"1015 952 LINE",
"744 952 LINE",
"618 783 LINE"
);
}
);
width = 849;
}
);
note = Ohungarumlaut;
unicode = 0150;
},
{
glyphname = uni020E;
lastChange = "2019-09-04 10:55:16 +0000";
layers = (
{
hints = (
{
horizontal = 1;
place = "{0, 138}";
type = Stem;
},
{
horizontal = 1;
place = "{601, 137}";
type = Stem;
},
{
horizontal = 1;
place = "{783, 169}";
type = Stem;
},
{
place = "{188, 174}";
type = Stem;
},
{
place = "{487, 174}";
type = Stem;
}
);
layerId = "59338637-1E5C-47E2-9B1C-5C70074789A9";
paths = (
{
closed = 1;
nodes = (
"702 0 LINE",
"833 94 LINE",
"930 645 LINE",
"832 738 LINE",
"277 738 LINE",
"147 645 LINE",
"50 94 LINE",
"147 0 LINE"
);
},
{
closed = 1;
nodes = (
"502 601 LINE",
"559 601 LINE",
"477 138 LINE",
"420 138 LINE"
);
},
{
closed = 1;
nodes = (
"500 783 LINE",
"507 825 LINE",
"632 825 LINE",
"625 783 LINE",
"799 783 LINE",
"814 865 LINE",
"733 952 LINE",
"451 952 LINE",
"341 865 LINE",
"326 783 LINE"
);
}
);
width = 849;
}
);
note = uni020E;
unicode = 020E;
},
{
glyphname = Omacron;
lastChange = "2019-09-04 10:55:16 +0000";
layers = (
{
hints = (
{
horizontal = 1;
place = "{0, 138}";
type = Stem;
},
{
horizontal = 1;
place = "{601, 137}";
type = Stem;
},
{
horizontal = 1;
place = "{783, 169}";
type = Stem;
},
{
place = "{33, 783}";
type = Stem;
}
);
layerId = "59338637-1E5C-47E2-9B1C-5C70074789A9";
paths = (
{
closed = 1;
nodes = (
"702 0 LINE",
"833 94 LINE",
"930 645 LINE",
"832 738 LINE",
"277 738 LINE",
"147 645 LINE",
"50 94 LINE",
"147 0 LINE"
);
},
{
closed = 1;
nodes = (
"502 601 LINE",
"559 601 LINE",
"477 138 LINE",
"420 138 LINE"
);
},
{
closed = 1;
nodes = (
"860 783 LINE",
"890 952 LINE",
"296 952 LINE",
"266 783 LINE"
);
}
);
width = 849;
}
);
note = Omacron;
unicode = 014C;
},
{
glyphname = uni01EA;
lastChange = "2019-09-04 16:37:54 +0000";
layers = (
{
hints = (
{
horizontal = 1;
place = "{-198, 143}";
type = Stem;
},
{
horizontal = 1;
place = "{0, 138}";
type = Stem;
},
{
horizontal = 1;
place = "{601, 137}";
type = Stem;
},
{
place = "{519, 188}";
type = Stem;
}
);
layerId = "59338637-1E5C-47E2-9B1C-5C70074789A9";
paths = (
{
closed = 1;
nodes = (
"672 -198 LINE",
"697 -55 LINE",
"676 -55 LINE",
"665 -44 LINE",
"669 -23 LINE",
"833 94 LINE",
"930 645 LINE",
"832 738 LINE",
"277 738 LINE",
"147 645 LINE",
"50 94 LINE",
"147 0 LINE",
"565 0 LINE",
"513 -33 LINE",
"497 -127 LINE",
"572 -198 LINE"
);
},
{
closed = 1;
nodes = (
"502 601 LINE",
"559 601 LINE",
"477 138 LINE",
"420 138 LINE"
);
}
);
width = 849;
}
);
note = uni01EA;
unicode = 01EA;
},
{
glyphname = Oslash;
lastChange = "2019-09-04 10:55:16 +0000";
layers = (
{
hints = (
{
horizontal = 1;
place = "{0, 138}";
type = Stem;
},
{
horizontal = 1;
place = "{601, 137}";
type = Stem;
},
{
place = "{33, 783}";
type = Stem;
}
);
layerId = "59338637-1E5C-47E2-9B1C-5C70074789A9";
paths = (
{
closed = 1;
nodes = (
"702 0 LINE",
"833 94 LINE",
"930 645 LINE",
"832 738 LINE",
"277 738 LINE",
"147 645 LINE",
"50 94 LINE",
"147 0 LINE"
);
},
{
closed = 1;
nodes = (
"434 213 LINE",
"507 304 LINE",
"477 138 LINE",
"420 138 LINE"
);
},
{
closed = 1;
nodes = (
"502 601 LINE",
"559 601 LINE",
"545 524 LINE",
"472 432 LINE"
);
}
);
width = 849;
}
);
note = Oslash;
unicode = 00D8;
},
{
glyphname = Oslashacute;
lastChange = "2019-09-04 10:55:16 +0000";
layers = (
{
hints = (
{
horizontal = 1;
place = "{0, 138}";
type = Stem;
},
{
horizontal = 1;
place = "{601, 137}";
type = Stem;
},
{
horizontal = 1;
place = "{783, 169}";
type = Stem;
},
{
place = "{33, 783}";
type = Stem;
}
);
layerId = "59338637-1E5C-47E2-9B1C-5C70074789A9";
paths = (
{
closed = 1;
nodes = (
"702 0 LINE",
"833 94 LINE",
"930 645 LINE",
"832 738 LINE",
"277 738 LINE",
"147 645 LINE",
"50 94 LINE",
"147 0 LINE"
);
},
{
closed = 1;
nodes = (
"434 213 LINE",
"507 304 LINE",
"477 138 LINE",
"420 138 LINE"
);
},
{
closed = 1;
nodes = (
"502 601 LINE",
"559 601 LINE",
"545 524 LINE",
"472 432 LINE"
);
},
{
closed = 1;
nodes = (
"677 783 LINE",
"878 952 LINE",
"614 952 LINE",
"471 783 LINE"
);
}
);
width = 849;
}
);
note = Oslashacute;
unicode = 01FE;
},
{
glyphname = Otilde;
lastChange = "2019-09-04 10:55:16 +0000";
layers = (
{
hints = (
{
horizontal = 1;
place = "{0, 138}";
type = Stem;
},
{
horizontal = 1;
place = "{601, 137}";
type = Stem;
},
{
horizontal = 1;
place = "{789, 168}";
type = Stem;
},
{
place = "{158, 155}";
type = Stem;
},
{
place = "{536, 156}";
type = Stem;
},
{
horizontal = 1;
place = "{783, 169}";
type = Stem;
}
);
layerId = "59338637-1E5C-47E2-9B1C-5C70074789A9";
paths = (
{
closed = 1;
nodes = (
"702 0 LINE",
"833 94 LINE",
"930 645 LINE",
"832 738 LINE",
"277 738 LINE",
"147 645 LINE",
"50 94 LINE",
"147 0 LINE"
);
},
{
closed = 1;
nodes = (
"502 601 LINE",
"559 601 LINE",
"477 138 LINE",
"420 138 LINE"
);
},
{
closed = 1;
nodes = (
"737 783 LINE",
"843 859 LINE",
"860 952 LINE",
"704 952 LINE",
"696 910 LINE",
"661 910 LINE",
"615 957 LINE",
"419 957 LINE",
"313 881 LINE",
"297 789 LINE",
"452 789 LINE",
"460 831 LINE",
"495 831 LINE",
"541 783 LINE"
);
}
);
width = 849;
}
);
note = Otilde;
unicode = 00D5;
},
{
glyphname = uni022C;
lastChange = "2019-09-04 10:55:16 +0000";
layers = (
{
hints = (
{
horizontal = 1;
place = "{0, 138}";
type = Stem;
},
{
horizontal = 1;
place = "{601, 137}";
type = Stem;
},
{
horizontal = 1;
place = "{789, 168}";
type = Stem;
},
{
horizontal = 1;
place = "{989, 169}";
type = Stem;
},
{
place = "{158, 155}";
type = Stem;
},
{
place = "{536, 156}";
type = Stem;
},
{
horizontal = 1;
place = "{783, 169}";
type = Stem;
}
);
layerId = "59338637-1E5C-47E2-9B1C-5C70074789A9";
paths = (
{
closed = 1;
nodes = (
"702 0 LINE",
"833 94 LINE",
"930 645 LINE",
"832 738 LINE",
"277 738 LINE",
"147 645 LINE",
"50 94 LINE",
"147 0 LINE"
);
},
{
closed = 1;
nodes = (
"502 601 LINE",
"559 601 LINE",
"477 138 LINE",
"420 138 LINE"
);
},
{
closed = 1;
nodes = (
"737 783 LINE",
"843 859 LINE",
"860 952 LINE",
"704 952 LINE",
"696 910 LINE",
"661 910 LINE",
"615 957 LINE",
"419 957 LINE",
"313 881 LINE",
"297 789 LINE",
"452 789 LINE",
"460 831 LINE",
"495 831 LINE",
"541 783 LINE"
);
},
{
closed = 1;
nodes = (
"896 989 LINE",
"926 1158 LINE",
"332 1158 LINE",
"302 989 LINE"
);
}
);
width = 849;
}
);
note = uni022C;
unicode = 022C;
},
{
glyphname = OE;
lastChange = "2019-09-04 10:55:16 +0000";
layers = (
{
hints = (
{
horizontal = 1;
place = "{0, 138}";
type = Stem;
},
{
horizontal = 1;
place = "{294, 149}";
type = Stem;
},
{
horizontal = 1;
place = "{601, 137}";
type = Stem;
},
{
place = "{33, 1114}";
type = Stem;
},
{
horizontal = 1;
place = "{501, 236}";
type = Stem;
}
);
layerId = "59338637-1E5C-47E2-9B1C-5C70074789A9";
paths = (
{
closed = 1;
nodes = (
"1147 0 LINE",
"1189 237 LINE",
"858 237 LINE",
"868 294 LINE",
"1153 294 LINE",
"1179 443 LINE",
"894 443 LINE",
"904 501 LINE",
"1235 501 LINE",
"1277 737 LINE",
"277 738 LINE",
"147 645 LINE",
"50 94 LINE",
"147 0 LINE"
);
},
{
closed = 1;
nodes = (
"502 601 LINE",
"559 601 LINE",
"477 138 LINE",
"420 138 LINE"
);
}
);
width = 1180;
}
);
note = OE;
unicode = 0152;
},
{
glyphname = P;
lastChange = "2019-09-04 10:55:16 +0000";
layers = (
{
hints = (
{
horizontal = 1;
place = "{189, 138}";
type = Stem;
},
{
horizontal = 1;
place = "{601, 137}";
type = Stem;
},
{
place = "{33, 783}";
type = Stem;
}
);
layerId = "59338637-1E5C-47E2-9B1C-5C70074789A9";
paths = (
{
closed = 1;
nodes = (
"396 0 LINE",
"429 189 LINE",
"735 189 LINE",
"866 283 LINE",
"930 645 LINE",
"832 738 LINE",
"163 737 LINE",
"33 0 LINE"
);
},
{
closed = 1;
nodes = (
"502 601 LINE",
"559 601 LINE",
"511 327 LINE",
"454 327 LINE"
);
}
);
width = 838;
}
);
note = P;
rightKerningGroup = P;
unicode = 0050;
},
{
glyphname = Thorn;
lastChange = "2019-09-04 10:55:16 +0000";
layers = (
{
hints = (
{
horizontal = 1;
place = "{107, 137}";
type = Stem;
},
{
horizontal = 1;
place = "{518, 138}";
type = Stem;
},
{
place = "{33, 783}";
type = Stem;
}
);
layerId = "59338637-1E5C-47E2-9B1C-5C70074789A9";
paths = (
{
closed = 1;
nodes = (
"396 1 LINE",
"415 107 LINE",
"721 107 LINE",
"851 200 LINE",
"915 562 LINE",
"818 656 LINE",
"512 656 LINE",
"526 738 LINE",
"163 738 LINE",
"33 1 LINE"
);
},
{
closed = 1;
nodes = (
"487 518 LINE",
"544 518 LINE",
"496 244 LINE",
"439 244 LINE"
);
}
);
width = 838;
}
);
note = Thorn;
unicode = 00DE;
},
{
glyphname = Q;
lastChange = "2019-09-04 10:55:16 +0000";
layers = (
{
hints = (
{
horizontal = 1;
place = "{-87, 225}";
type = Stem;
},
{
horizontal = 1;
place = "{601, 137}";
type = Stem;
},
{
place = "{295, 101}";
type = Stem;
},
{
place = "{453, 102}";
type = Stem;
}
);
layerId = "59338637-1E5C-47E2-9B1C-5C70074789A9";
paths = (
{
closed = 1;
nodes = (
"540 -87 LINE",
"555 0 LINE",
"702 0 LINE",
"833 94 LINE",
"930 645 LINE",
"832 738 LINE",
"277 738 LINE",
"147 645 LINE",
"50 94 LINE",
"147 0 LINE",
"295 0 LINE",
"280 -87 LINE"
);
},
{
closed = 1;
nodes = (
"502 601 LINE",
"559 601 LINE",
"477 138 LINE",
"420 138 LINE"
);
}
);
width = 849;
}
);
note = Q;
unicode = 0051;
},
{
glyphname = R;
lastChange = "2019-09-04 10:55:16 +0000";
layers = (
{
hints = (
{
horizontal = 1;
place = "{240, 168}";
type = Stem;
},
{
horizontal = 1;
place = "{600, 137}";
type = Stem;
},
{
place = "{33, 818}";
type = Stem;
}
);
layerId = "59338637-1E5C-47E2-9B1C-5C70074789A9";
paths = (
{
closed = 1;
nodes = (
"396 0 LINE",
"438 240 LINE",
"459 240 LINE",
"472 0 LINE",
"851 0 LINE",
"796 277 LINE",
"875 333 LINE",
"930 644 LINE",
"832 737 LINE",
"163 737 LINE",
"33 0 LINE"
);
},
{
closed = 1;
nodes = (
"502 600 LINE",
"559 600 LINE",
"525 408 LINE",
"468 408 LINE"
);
}
);
width = 862;
}
);
note = R;
rightKerningGroup = R;
unicode = 0052;
},
{
glyphname = Racute;
lastChange = "2019-09-04 10:55:16 +0000";
layers = (
{
hints = (
{
horizontal = 1;
place = "{240, 168}";
type = Stem;
},
{
horizontal = 1;
place = "{600, 137}";
type = Stem;
},
{
horizontal = 1;
place = "{783, 169}";
type = Stem;
},
{
place = "{33, 818}";
type = Stem;
}
);
layerId = "59338637-1E5C-47E2-9B1C-5C70074789A9";
paths = (
{
closed = 1;
nodes = (
"396 0 LINE",
"438 240 LINE",
"459 240 LINE",
"472 0 LINE",
"851 0 LINE",
"796 277 LINE",
"875 333 LINE",
"930 644 LINE",
"832 737 LINE",
"163 737 LINE",
"33 0 LINE"
);
},
{
closed = 1;
nodes = (
"502 600 LINE",
"559 600 LINE",
"525 408 LINE",
"468 408 LINE"
);
},
{
closed = 1;
nodes = (
"661 783 LINE",
"862 952 LINE",
"598 952 LINE",
"455 783 LINE"
);
}
);
width = 862;
}
);
note = Racute;
rightKerningGroup = R;
unicode = 0154;
},
{
glyphname = Rcaron;
lastChange = "2019-09-04 10:55:16 +0000";
layers = (
{
hints = (
{
horizontal = 1;
place = "{240, 168}";
type = Stem;
},
{
horizontal = 1;
place = "{600, 137}";
type = Stem;
},
{
horizontal = 1;
place = "{783, 169}";
type = Stem;
},
{
place = "{33, 818}";
type = Stem;
}
);
layerId = "59338637-1E5C-47E2-9B1C-5C70074789A9";
paths = (
{
closed = 1;
nodes = (
"396 0 LINE",
"438 240 LINE",
"459 240 LINE",
"472 0 LINE",
"851 0 LINE",
"796 277 LINE",
"875 333 LINE",
"930 644 LINE",
"832 737 LINE",
"163 737 LINE",
"33 0 LINE"
);
},
{
closed = 1;
nodes = (
"502 600 LINE",
"559 600 LINE",
"525 408 LINE",
"468 408 LINE"
);
},
{
closed = 1;
nodes = (
"710 783 LINE",
"869 952 LINE",
"654 952 LINE",
"562 875 LINE",
"498 952 LINE",
"284 952 LINE",
"382 783 LINE"
);
}
);
width = 862;
}
);
note = Rcaron;
rightKerningGroup = R;
unicode = 0158;
},
{
glyphname = uni0156;
lastChange = "2019-09-04 10:55:16 +0000";
layers = (
{
hints = (
{
horizontal = 1;
place = "{-229, 183}";
type = Stem;
},
{
horizontal = 1;
place = "{240, 168}";
type = Stem;
},
{
horizontal = 1;
place = "{600, 137}";
type = Stem;
},
{
place = "{33, 818}";
type = Stem;
}
);
layerId = "59338637-1E5C-47E2-9B1C-5C70074789A9";
paths = (
{
closed = 1;
nodes = (
"396 0 LINE",
"438 240 LINE",
"459 240 LINE",
"472 0 LINE",
"851 0 LINE",
"796 277 LINE",
"875 333 LINE",
"930 644 LINE",
"832 737 LINE",
"163 737 LINE",
"33 0 LINE"
);
},
{
closed = 1;
nodes = (
"376 -229 LINE",
"559 -46 LINE",
"282 -46 LINE",
"194 -229 LINE"
);
},
{
closed = 1;
nodes = (
"502 600 LINE",
"559 600 LINE",
"525 408 LINE",
"468 408 LINE"
);
}
);
width = 862;
}
);
note = uni0156;
rightKerningGroup = R;
unicode = 0156;
},
{
glyphname = uni0210;
lastChange = "2019-09-04 10:55:16 +0000";
layers = (
{
hints = (
{
horizontal = 1;
place = "{240, 168}";
type = Stem;
},
{
horizontal = 1;
place = "{600, 137}";
type = Stem;
},
{
horizontal = 1;
place = "{783, 169}";
type = Stem;
},
{
place = "{-4, 856}";
type = Stem;
}
);
layerId = "59338637-1E5C-47E2-9B1C-5C70074789A9";
paths = (
{
closed = 1;
nodes = (
"500 783 LINE",
"417 952 LINE",
"164 952 LINE",
"306 783 LINE"
);
},
{
closed = 1;
nodes = (
"789 783 LINE",
"705 952 LINE",
"452 952 LINE",
"594 783 LINE"
);
},
{
closed = 1;
nodes = (
"396 0 LINE",
"438 240 LINE",
"459 240 LINE",
"472 0 LINE",
"851 0 LINE",
"796 277 LINE",
"875 333 LINE",
"930 644 LINE",
"832 737 LINE",
"163 737 LINE",
"33 0 LINE"
);
},
{
closed = 1;
nodes = (
"502 600 LINE",
"559 600 LINE",
"525 408 LINE",
"468 408 LINE"
);
}
);
width = 862;
}
);
note = uni0210;
rightKerningGroup = R;
unicode = 0210;
},
{
glyphname = uni0212;
lastChange = "2019-09-04 10:55:16 +0000";
layers = (
{
hints = (
{
horizontal = 1;
place = "{240, 168}";
type = Stem;
},
{
horizontal = 1;
place = "{600, 137}";
type = Stem;
},
{
horizontal = 1;
place = "{783, 169}";
type = Stem;
},
{
place = "{172, 174}";
type = Stem;
},
{
place = "{471, 174}";
type = Stem;
}
);
layerId = "59338637-1E5C-47E2-9B1C-5C70074789A9";
paths = (
{
closed = 1;
nodes = (
"396 0 LINE",
"438 240 LINE",
"459 240 LINE",
"472 0 LINE",
"851 0 LINE",
"796 277 LINE",
"875 333 LINE",
"930 644 LINE",
"832 737 LINE",
"163 737 LINE",
"33 0 LINE"
);
},
{
closed = 1;
nodes = (
"502 600 LINE",
"559 600 LINE",
"525 408 LINE",
"468 408 LINE"
);
},
{
closed = 1;
nodes = (
"484 783 LINE",
"491 825 LINE",
"616 825 LINE",
"609 783 LINE",
"783 783 LINE",
"798 865 LINE",
"717 952 LINE",
"435 952 LINE",
"325 865 LINE",
"310 783 LINE"
);
}
);
width = 862;
}
);
note = uni0212;
rightKerningGroup = R;
unicode = 0212;
},
{
glyphname = S;
lastChange = "2019-09-04 10:55:16 +0000";
layers = (
{
hints = (
{
horizontal = 1;
place = "{0, 215}";
type = Stem;
},
{
horizontal = 1;
place = "{272, 193}";
type = Stem;
},
{
horizontal = 1;
place = "{523, 214}";
type = Stem;
},
{
place = "{22, 341}";
type = Stem;
},
{
place = "{420, 341}";
type = Stem;
}
);
layerId = "59338637-1E5C-47E2-9B1C-5C70074789A9";
paths = (
{
closed = 1;
nodes = (
"647 0 LINE",
"778 94 LINE",
"827 372 LINE",
"729 465 LINE",
"445 465 LINE",
"455 523 LINE",
"818 523 LINE",
"856 737 LINE",
"266 737 LINE",
"136 644 LINE",
"86 365 LINE",
"184 272 LINE",
"468 272 LINE",
"458 215 LINE",
"93 215 LINE",
"55 0 LINE"
);
}
);
width = 783;
}
);
note = S;
unicode = 0053;
},
{
glyphname = Sacute;
lastChange = "2019-09-04 10:55:16 +0000";
layers = (
{
hints = (
{
horizontal = 1;
place = "{0, 215}";
type = Stem;
},
{
horizontal = 1;
place = "{272, 193}";
type = Stem;
},
{
horizontal = 1;
place = "{523, 214}";
type = Stem;
},
{
horizontal = 1;
place = "{783, 169}";
type = Stem;
},
{
place = "{22, 739}";
type = Stem;
},
{
place = "{22, 341}";
type = Stem;
},
{
place = "{420, 341}";
type = Stem;
}
);
layerId = "59338637-1E5C-47E2-9B1C-5C70074789A9";
paths = (
{
closed = 1;
nodes = (
"647 0 LINE",
"778 94 LINE",
"827 372 LINE",
"729 465 LINE",
"445 465 LINE",
"455 523 LINE",
"818 523 LINE",
"856 737 LINE",
"266 737 LINE",
"136 644 LINE",
"86 365 LINE",
"184 272 LINE",
"468 272 LINE",
"458 215 LINE",
"93 215 LINE",
"55 0 LINE"
);
},
{
closed = 1;
nodes = (
"644 783 LINE",
"845 952 LINE",
"581 952 LINE",
"438 783 LINE"
);
}
);
width = 783;
}
);
note = Sacute;
unicode = 015A;
},
{
glyphname = Scaron;
lastChange = "2019-09-04 10:55:16 +0000";
layers = (
{
hints = (
{
horizontal = 1;
place = "{0, 215}";
type = Stem;
},
{
horizontal = 1;
place = "{272, 193}";
type = Stem;
},
{
horizontal = 1;
place = "{523, 214}";
type = Stem;
},
{
horizontal = 1;
place = "{783, 169}";
type = Stem;
},
{
place = "{22, 739}";
type = Stem;
},
{
place = "{22, 341}";
type = Stem;
},
{
place = "{420, 341}";
type = Stem;
}
);
layerId = "59338637-1E5C-47E2-9B1C-5C70074789A9";
paths = (
{
closed = 1;
nodes = (
"647 0 LINE",
"778 94 LINE",
"827 372 LINE",
"729 465 LINE",
"445 465 LINE",
"455 523 LINE",
"818 523 LINE",
"856 737 LINE",
"266 737 LINE",
"136 644 LINE",
"86 365 LINE",
"184 272 LINE",
"468 272 LINE",
"458 215 LINE",
"93 215 LINE",
"55 0 LINE"
);
},
{
closed = 1;
nodes = (
"693 783 LINE",
"852 952 LINE",
"637 952 LINE",
"545 875 LINE",
"481 952 LINE",
"267 952 LINE",
"365 783 LINE"
);
}
);
width = 783;
}
);
note = Scaron;
unicode = 0160;
},
{
glyphname = Scedilla;
lastChange = "2019-09-04 10:55:16 +0000";
layers = (
{
hints = (
{
horizontal = 1;
place = "{0, 215}";
type = Stem;
},
{
horizontal = 1;
place = "{272, 193}";
type = Stem;
},
{
horizontal = 1;
place = "{523, 214}";
type = Stem;
},
{
place = "{22, 341}";
type = Stem;
},
{
place = "{420, 341}";
type = Stem;
}
);
layerId = "59338637-1E5C-47E2-9B1C-5C70074789A9";
paths = (
{
closed = 1;
nodes = (
"418 -125 LINE",
"511 0 LINE",
"647 0 LINE",
"778 94 LINE",
"827 372 LINE",
"729 465 LINE",
"445 465 LINE",
"455 523 LINE",
"818 523 LINE",
"856 737 LINE",
"266 737 LINE",
"136 644 LINE",
"86 365 LINE",
"184 272 LINE",
"468 272 LINE",
"458 215 LINE",
"93 215 LINE",
"55 0 LINE",
"273 0 LINE",
"230 -125 LINE"
);
}
);
width = 783;
}
);
note = Scedilla;
unicode = 015E;
},
{
glyphname = Scircumflex;
lastChange = "2019-09-04 10:55:16 +0000";
layers = (
{
hints = (
{
horizontal = 1;
place = "{0, 215}";
type = Stem;
},
{
horizontal = 1;
place = "{272, 193}";
type = Stem;
},
{
horizontal = 1;
place = "{523, 214}";
type = Stem;
},
{
horizontal = 1;
place = "{783, 169}";
type = Stem;
},
{
place = "{22, 739}";
type = Stem;
},
{
place = "{22, 341}";
type = Stem;
},
{
place = "{420, 341}";
type = Stem;
}
);
layerId = "59338637-1E5C-47E2-9B1C-5C70074789A9";
paths = (
{
closed = 1;
nodes = (
"647 0 LINE",
"778 94 LINE",
"827 372 LINE",
"729 465 LINE",
"445 465 LINE",
"455 523 LINE",
"818 523 LINE",
"856 737 LINE",
"266 737 LINE",
"136 644 LINE",
"86 365 LINE",
"184 272 LINE",
"468 272 LINE",
"458 215 LINE",
"93 215 LINE",
"55 0 LINE"
);
},
{
closed = 1;
nodes = (
"452 783 LINE",
"544 860 LINE",
"608 783 LINE",
"822 783 LINE",
"724 952 LINE",
"396 952 LINE",
"237 783 LINE"
);
}
);
width = 783;
}
);
note = Scircumflex;
unicode = 015C;
},
{
glyphname = uni0218;
lastChange = "2019-09-04 10:55:16 +0000";
layers = (
{
hints = (
{
horizontal = 1;
place = "{-229, 183}";
type = Stem;
},
{
horizontal = 1;
place = "{0, 215}";
type = Stem;
},
{
horizontal = 1;
place = "{272, 193}";
type = Stem;
},
{
horizontal = 1;
place = "{523, 214}";
type = Stem;
},
{
place = "{22, 341}";
type = Stem;
},
{
place = "{420, 341}";
type = Stem;
}
);
layerId = "59338637-1E5C-47E2-9B1C-5C70074789A9";
paths = (
{
closed = 1;
nodes = (
"647 0 LINE",
"778 94 LINE",
"827 372 LINE",
"729 465 LINE",
"445 465 LINE",
"455 523 LINE",
"818 523 LINE",
"856 737 LINE",
"266 737 LINE",
"136 644 LINE",
"86 365 LINE",
"184 272 LINE",
"468 272 LINE",
"458 215 LINE",
"93 215 LINE",
"55 0 LINE"
);
},
{
closed = 1;
nodes = (
"338 -229 LINE",
"521 -46 LINE",
"244 -46 LINE",
"156 -229 LINE"
);
}
);
width = 783;
}
);
note = uni0218;
unicode = 0218;
},
{
glyphname = uni1E9E;
lastChange = "2019-09-04 10:55:16 +0000";
layers = (
{
hints = (
{
horizontal = 1;
place = "{0, 138}";
type = Stem;
},
{
horizontal = 1;
place = "{600, 137}";
type = Stem;
},
{
place = "{33, 772}";
type = Stem;
}
);
layerId = "59338637-1E5C-47E2-9B1C-5C70074789A9";
paths = (
{
closed = 1;
nodes = (
"385 0 LINE",
"491 600 LINE",
"561 600 LINE",
"550 536 LINE",
"492 443 LINE",
"468 306 LINE",
"495 306 LINE",
"466 138 LINE",
"438 138 LINE",
"414 0 LINE",
"691 0 LINE",
"822 94 LINE",
"855 281 LINE",
"730 400 LINE",
"839 560 LINE",
"854 644 LINE",
"756 737 LINE",
"277 737 LINE",
"147 644 LINE",
"33 0 LINE"
);
}
);
width = 838;
}
);
note = uni1E9E;
unicode = 1E9E;
},
{
glyphname = uni018F;
lastChange = "2019-09-04 10:55:16 +0000";
layers = (
{
hints = (
{
horizontal = 1;
place = "{0, 138}";
type = Stem;
},
{
horizontal = 1;
place = "{294, 149}";
type = Stem;
},
{
horizontal = 1;
place = "{501, 236}";
type = Stem;
},
{
place = "{33, 783}";
type = Stem;
}
);
layerId = "59338637-1E5C-47E2-9B1C-5C70074789A9";
paths = (
{
closed = 1;
nodes = (
"702 0 LINE",
"833 94 LINE",
"930 645 LINE",
"832 737 LINE",
"163 737 LINE",
"121 501 LINE",
"541 501 LINE",
"531 443 LINE",
"111 443 LINE",
"50 94 LINE",
"147 0 LINE"
);
},
{
closed = 1;
nodes = (
"448 294 LINE",
"505 294 LINE",
"477 138 LINE",
"420 138 LINE"
);
}
);
width = 849;
}
);
note = uni018F;
unicode = 018F;
},
{
glyphname = T;
lastChange = "2019-09-04 10:55:16 +0000";
layers = (
{
hints = (
{
horizontal = 1;
place = "{501, 236}";
type = Stem;
},
{
place = "{11, 717}";
type = Stem;
}
);
layerId = "59338637-1E5C-47E2-9B1C-5C70074789A9";
paths = (
{
closed = 1;
nodes = (
"551 0 LINE",
"639 501 LINE",
"816 501 LINE",
"858 737 LINE",
"141 737 LINE",
"99 501 LINE",
"276 501 LINE",
"188 0 LINE"
);
}
);
width = 739;
}
);
leftKerningGroup = T;
note = T;
rightKerningGroup = T;
unicode = 0054;
},
{
glyphname = Tbar;
lastChange = "2019-09-04 10:55:16 +0000";
layers = (
{
hints = (
{
horizontal = 1;
place = "{208, 192}";
type = Stem;
},
{
horizontal = 1;
place = "{501, 236}";
type = Stem;
},
{
place = "{11, 717}";
type = Stem;
}
);
layerId = "59338637-1E5C-47E2-9B1C-5C70074789A9";
paths = (
{
closed = 1;
nodes = (
"551 0 LINE",
"588 208 LINE",
"715 208 LINE",
"749 400 LINE",
"622 400 LINE",
"639 501 LINE",
"816 501 LINE",
"858 737 LINE",
"141 737 LINE",
"99 501 LINE",
"276 501 LINE",
"259 400 LINE",
"133 400 LINE",
"99 208 LINE",
"225 208 LINE",
"188 0 LINE"
);
}
);
width = 739;
}
);
leftKerningGroup = T;
note = Tbar;
rightKerningGroup = T;
unicode = 0166;
},
{
glyphname = Tcaron;
lastChange = "2019-09-04 10:55:16 +0000";
layers = (
{
hints = (
{
horizontal = 1;
place = "{501, 236}";
type = Stem;
},
{
horizontal = 1;
place = "{783, 169}";
type = Stem;
},
{
place = "{11, 717}";
type = Stem;
}
);
layerId = "59338637-1E5C-47E2-9B1C-5C70074789A9";
paths = (
{
closed = 1;
nodes = (
"551 0 LINE",
"639 501 LINE",
"816 501 LINE",
"858 737 LINE",
"141 737 LINE",
"99 501 LINE",
"276 501 LINE",
"188 0 LINE"
);
},
{
closed = 1;
nodes = (
"671 783 LINE",
"830 952 LINE",
"615 952 LINE",
"523 875 LINE",
"459 952 LINE",
"245 952 LINE",
"343 783 LINE"
);
}
);
width = 739;
}
);
leftKerningGroup = T;
note = Tcaron;
rightKerningGroup = T;
unicode = 0164;
},
{
glyphname = uni0162;
lastChange = "2019-09-04 10:55:16 +0000";
layers = (
{
hints = (
{
horizontal = 1;
place = "{501, 236}";
type = Stem;
},
{
place = "{11, 717}";
type = Stem;
}
);
layerId = "59338637-1E5C-47E2-9B1C-5C70074789A9";
paths = (
{
closed = 1;
nodes = (
"458 -125 LINE",
"551 0 LINE",
"639 501 LINE",
"816 501 LINE",
"858 737 LINE",
"141 737 LINE",
"99 501 LINE",
"276 501 LINE",
"188 0 LINE",
"313 0 LINE",
"270 -125 LINE"
);
}
);
width = 739;
}
);
leftKerningGroup = T;
note = uni0162;
rightKerningGroup = T;
unicode = 0162;
},
{
glyphname = uni021A;
lastChange = "2019-09-04 10:55:16 +0000";
layers = (
{
hints = (
{
horizontal = 1;
place = "{-229, 183}";
type = Stem;
},
{
horizontal = 1;
place = "{501, 236}";
type = Stem;
},
{
place = "{11, 717}";
type = Stem;
}
);
layerId = "59338637-1E5C-47E2-9B1C-5C70074789A9";
paths = (
{
closed = 1;
nodes = (
"551 0 LINE",
"639 501 LINE",
"816 501 LINE",
"858 737 LINE",
"141 737 LINE",
"99 501 LINE",
"276 501 LINE",
"188 0 LINE"
);
},
{
closed = 1;
nodes = (
"316 -229 LINE",
"499 -46 LINE",
"222 -46 LINE",
"134 -229 LINE"
);
}
);
width = 739;
}
);
leftKerningGroup = T;
note = uni021A;
rightKerningGroup = T;
unicode = 021A;
},
{
glyphname = U;
lastChange = "2019-09-04 10:55:16 +0000";
layers = (
{
hints = (
{
horizontal = 1;
place = "{0, 138}";
type = Stem;
},
{
place = "{33, 783}";
type = Stem;
}
);
layerId = "59338637-1E5C-47E2-9B1C-5C70074789A9";
paths = (
{
closed = 1;
nodes = (
"702 0 LINE",
"833 94 LINE",
"946 737 LINE",
"583 737 LINE",
"477 138 LINE",
"420 138 LINE",
"526 737 LINE",
"163 737 LINE",
"50 94 LINE",
"147 0 LINE"
);
}
);
width = 849;
}
);
note = U;
unicode = 0055;
},
{
glyphname = Uacute;
lastChange = "2019-09-04 10:55:16 +0000";
layers = (
{
hints = (
{
horizontal = 1;
place = "{0, 138}";
type = Stem;
},
{
horizontal = 1;
place = "{783, 169}";
type = Stem;
},
{
place = "{333, 63}";
type = Stem;
}
);
layerId = "59338637-1E5C-47E2-9B1C-5C70074789A9";
paths = (
{
closed = 1;
nodes = (
"702 0 LINE",
"833 94 LINE",
"946 737 LINE",
"583 737 LINE",
"477 138 LINE",
"420 138 LINE",
"526 737 LINE",
"163 737 LINE",
"50 94 LINE",
"147 0 LINE"
);
},
{
closed = 1;
nodes = (
"677 783 LINE",
"878 952 LINE",
"614 952 LINE",
"471 783 LINE"
);
}
);
width = 849;
}
);
note = Uacute;
unicode = 00DA;
},
{
glyphname = Ubreve;
lastChange = "2019-09-04 10:55:16 +0000";
layers = (
{
hints = (
{
horizontal = 1;
place = "{0, 138}";
type = Stem;
},
{
horizontal = 1;
place = "{783, 169}";
type = Stem;
},
{
place = "{154, 226}";
type = Stem;
},
{
place = "{470, 225}";
type = Stem;
}
);
layerId = "59338637-1E5C-47E2-9B1C-5C70074789A9";
paths = (
{
closed = 1;
nodes = (
"702 0 LINE",
"833 94 LINE",
"946 737 LINE",
"583 737 LINE",
"477 138 LINE",
"420 138 LINE",
"526 737 LINE",
"163 737 LINE",
"50 94 LINE",
"147 0 LINE"
);
},
{
closed = 1;
nodes = (
"719 783 LINE",
"850 877 LINE",
"863 952 LINE",
"638 952 LINE",
"629 904 LINE",
"539 904 LINE",
"548 952 LINE",
"322 952 LINE",
"309 877 LINE",
"406 783 LINE"
);
}
);
width = 849;
}
);
note = Ubreve;
unicode = 016C;
},
{
glyphname = Ucircumflex;
lastChange = "2019-09-04 10:55:16 +0000";
layers = (
{
hints = (
{
horizontal = 1;
place = "{0, 138}";
type = Stem;
},
{
horizontal = 1;
place = "{783, 169}";
type = Stem;
},
{
place = "{33, 783}";
type = Stem;
}
);
layerId = "59338637-1E5C-47E2-9B1C-5C70074789A9";
paths = (
{
closed = 1;
nodes = (
"702 0 LINE",
"833 94 LINE",
"946 737 LINE",
"583 737 LINE",
"477 138 LINE",
"420 138 LINE",
"526 737 LINE",
"163 737 LINE",
"50 94 LINE",
"147 0 LINE"
);
},
{
closed = 1;
nodes = (
"485 783 LINE",
"577 860 LINE",
"641 783 LINE",
"855 783 LINE",
"757 952 LINE",
"429 952 LINE",
"270 783 LINE"
);
}
);
width = 849;
}
);
note = Ucircumflex;
unicode = 00DB;
},
{
glyphname = uni0214;
lastChange = "2019-09-04 10:55:16 +0000";
layers = (
{
hints = (
{
horizontal = 1;
place = "{0, 138}";
type = Stem;
},
{
horizontal = 1;
place = "{783, 169}";
type = Stem;
},
{
place = "{11, 805}";
type = Stem;
}
);
layerId = "59338637-1E5C-47E2-9B1C-5C70074789A9";
paths = (
{
closed = 1;
nodes = (
"702 0 LINE",
"833 94 LINE",
"946 737 LINE",
"583 737 LINE",
"477 138 LINE",
"420 138 LINE",
"526 737 LINE",
"163 737 LINE",
"50 94 LINE",
"147 0 LINE"
);
},
{
closed = 1;
nodes = (
"515 783 LINE",
"432 952 LINE",
"179 952 LINE",
"321 783 LINE"
);
},
{
closed = 1;
nodes = (
"804 783 LINE",
"720 952 LINE",
"467 952 LINE",
"609 783 LINE"
);
}
);
width = 849;
}
);
note = uni0214;
unicode = 0214;
},
{
glyphname = Udieresis;
lastChange = "2019-09-04 10:55:16 +0000";
layers = (
{
hints = (
{
horizontal = 1;
place = "{0, 138}";
type = Stem;
},
{
horizontal = 1;
place = "{783, 169}";
type = Stem;
},
{
place = "{129, 267}";
type = Stem;
},
{
place = "{453, 270}";
type = Stem;
}
);
layerId = "59338637-1E5C-47E2-9B1C-5C70074789A9";
paths = (
{
closed = 1;
nodes = (
"702 0 LINE",
"833 94 LINE",
"946 737 LINE",
"583 737 LINE",
"477 138 LINE",
"420 138 LINE",
"526 737 LINE",
"163 737 LINE",
"50 94 LINE",
"147 0 LINE"
);
},
{
closed = 1;
nodes = (
"541 783 LINE",
"571 952 LINE",
"297 952 LINE",
"267 783 LINE"
);
},
{
closed = 1;
nodes = (
"861 783 LINE",
"891 952 LINE",
"617 952 LINE",
"587 783 LINE"
);
}
);
width = 849;
}
);
note = Udieresis;
unicode = 00DC;
},
{
glyphname = uni1EE4;
lastChange = "2019-09-04 10:55:16 +0000";
layers = (
{
hints = (
{
horizontal = 1;
place = "{-215, 169}";
type = Stem;
},
{
horizontal = 1;
place = "{0, 138}";
type = Stem;
},
{
place = "{271, 125}";
type = Stem;
},
{
place = "{453, 125}";
type = Stem;
}
);
layerId = "59338637-1E5C-47E2-9B1C-5C70074789A9";
paths = (
{
closed = 1;
nodes = (
"702 0 LINE",
"833 94 LINE",
"946 737 LINE",
"583 737 LINE",
"477 138 LINE",
"420 138 LINE",
"526 737 LINE",
"163 737 LINE",
"50 94 LINE",
"147 0 LINE"
);
},
{
closed = 1;
nodes = (
"540 -215 LINE",
"570 -46 LINE",
"263 -46 LINE",
"233 -215 LINE"
);
}
);
width = 849;
}
);
note = uni1EE4;
unicode = 1EE4;
},
{
glyphname = Ugrave;
lastChange = "2019-09-04 10:55:16 +0000";
layers = (
{
hints = (
{
horizontal = 1;
place = "{0, 138}";
type = Stem;
},
{
horizontal = 1;
place = "{783, 169}";
type = Stem;
},
{
place = "{453, 74}";
type = Stem;
}
);
layerId = "59338637-1E5C-47E2-9B1C-5C70074789A9";
paths = (
{
closed = 1;
nodes = (
"702 0 LINE",
"833 94 LINE",
"946 737 LINE",
"583 737 LINE",
"477 138 LINE",
"420 138 LINE",
"526 737 LINE",
"163 737 LINE",
"50 94 LINE",
"147 0 LINE"
);
},
{
closed = 1;
nodes = (
"665 783 LINE",
"582 952 LINE",
"318 952 LINE",
"459 783 LINE"
);
}
);
width = 849;
}
);
note = Ugrave;
unicode = 00D9;
},
{
glyphname = uni1EE6;
lastChange = "2019-09-04 10:55:16 +0000";
layers = (
{
hints = (
{
horizontal = 1;
place = "{0, 138}";
type = Stem;
},
{
horizontal = 1;
place = "{908, 122}";
type = Stem;
},
{
place = "{227, 179}";
type = Stem;
},
{
place = "{445, 184}";
type = Stem;
},
{
horizontal = 1;
place = "{782, 98}";
type = Stem;
},
{
place = "{315, 81}";
type = Stem;
},
{
place = "{453, 82}";
type = Stem;
}
);
layerId = "59338637-1E5C-47E2-9B1C-5C70074789A9";
paths = (
{
closed = 1;
nodes = (
"702 0 LINE",
"833 94 LINE",
"946 737 LINE",
"583 737 LINE",
"477 138 LINE",
"420 138 LINE",
"526 737 LINE",
"163 737 LINE",
"50 94 LINE",
"147 0 LINE"
);
},
{
closed = 1;
nodes = (
"673 782 LINE",
"679 814 LINE",
"719 814 LINE",
"782 868 LINE",
"801 975 LINE",
"746 1030 LINE",
"474 1030 LINE",
"399 975 LINE",
"387 908 LINE",
"566 908 LINE",
"575 960 LINE",
"614 960 LINE",
"600 880 LINE",
"516 880 LINE",
"462 834 LINE",
"453 782 LINE"
);
}
);
width = 849;
}
);
note = uni1EE6;
unicode = 1EE6;
},
{
glyphname = Uhorn;
lastChange = "2019-09-04 10:55:16 +0000";
layers = (
{
hints = (
{
horizontal = 1;
place = "{0, 138}";
type = Stem;
},
{
horizontal = 1;
place = "{595, 142}";
type = Stem;
},
{
place = "{33, 1120}";
type = Stem;
}
);
layerId = "59338637-1E5C-47E2-9B1C-5C70074789A9";
paths = (
{
closed = 1;
nodes = (
"702 0 LINE",
"833 94 LINE",
"921 595 LINE",
"1096 595 LINE",
"1294 801 LINE",
"1017 801 LINE",
"977 689 LINE",
"937 689 LINE",
"946 737 LINE",
"583 737 LINE",
"477 138 LINE",
"420 138 LINE",
"526 737 LINE",
"163 737 LINE",
"50 94 LINE",
"147 0 LINE"
);
}
);
width = 849;
}
);
note = Uhorn;
unicode = 01AF;
},
{
glyphname = uni1EE8;
lastChange = "2019-09-04 10:55:16 +0000";
layers = (
{
hints = (
{
horizontal = 1;
place = "{0, 138}";
type = Stem;
},
{
horizontal = 1;
place = "{595, 142}";
type = Stem;
},
{
horizontal = 1;
place = "{783, 169}";
type = Stem;
},
{
place = "{333, 63}";
type = Stem;
}
);
layerId = "59338637-1E5C-47E2-9B1C-5C70074789A9";
paths = (
{
closed = 1;
nodes = (
"702 0 LINE",
"833 94 LINE",
"921 595 LINE",
"1096 595 LINE",
"1294 801 LINE",
"1017 801 LINE",
"977 689 LINE",
"937 689 LINE",
"946 737 LINE",
"583 737 LINE",
"477 138 LINE",
"420 138 LINE",
"526 737 LINE",
"163 737 LINE",
"50 94 LINE",
"147 0 LINE"
);
},
{
closed = 1;
nodes = (
"677 783 LINE",
"878 952 LINE",
"614 952 LINE",
"471 783 LINE"
);
}
);
width = 849;
}
);
note = uni1EE8;
unicode = 1EE8;
},
{
glyphname = uni1EF0;
lastChange = "2019-09-04 10:55:16 +0000";
layers = (
{
hints = (
{
horizontal = 1;
place = "{-215, 169}";
type = Stem;
},
{
horizontal = 1;
place = "{0, 138}";
type = Stem;
},
{
horizontal = 1;
place = "{595, 142}";
type = Stem;
},
{
place = "{271, 125}";
type = Stem;
},
{
place = "{453, 125}";
type = Stem;
}
);
layerId = "59338637-1E5C-47E2-9B1C-5C70074789A9";
paths = (
{
closed = 1;
nodes = (
"702 0 LINE",
"833 94 LINE",
"921 595 LINE",
"1096 595 LINE",
"1294 801 LINE",
"1017 801 LINE",
"977 689 LINE",
"937 689 LINE",
"946 737 LINE",
"583 737 LINE",
"477 138 LINE",
"420 138 LINE",
"526 737 LINE",
"163 737 LINE",
"50 94 LINE",
"147 0 LINE"
);
},
{
closed = 1;
nodes = (
"540 -215 LINE",
"570 -46 LINE",
"263 -46 LINE",
"233 -215 LINE"
);
}
);
width = 849;
}
);
note = uni1EF0;
unicode = 1EF0;
},
{
glyphname = uni1EEA;
lastChange = "2019-09-04 10:55:16 +0000";
layers = (
{
hints = (
{
horizontal = 1;
place = "{0, 138}";
type = Stem;
},
{
horizontal = 1;
place = "{595, 142}";
type = Stem;
},
{
horizontal = 1;
place = "{783, 169}";
type = Stem;
},
{
place = "{453, 74}";
type = Stem;
}
);
layerId = "59338637-1E5C-47E2-9B1C-5C70074789A9";
paths = (
{
closed = 1;
nodes = (
"702 0 LINE",
"833 94 LINE",
"921 595 LINE",
"1096 595 LINE",
"1294 801 LINE",
"1017 801 LINE",
"977 689 LINE",
"937 689 LINE",
"946 737 LINE",
"583 737 LINE",
"477 138 LINE",
"420 138 LINE",
"526 737 LINE",
"163 737 LINE",
"50 94 LINE",
"147 0 LINE"
);
},
{
closed = 1;
nodes = (
"665 783 LINE",
"582 952 LINE",
"318 952 LINE",
"459 783 LINE"
);
}
);
width = 849;
}
);
note = uni1EEA;
unicode = 1EEA;
},
{
glyphname = uni1EEC;
lastChange = "2019-09-04 10:55:16 +0000";
layers = (
{
hints = (
{
horizontal = 1;
place = "{0, 138}";
type = Stem;
},
{
horizontal = 1;
place = "{595, 142}";
type = Stem;
},
{
horizontal = 1;
place = "{908, 122}";
type = Stem;
},
{
place = "{227, 179}";
type = Stem;
},
{
place = "{445, 184}";
type = Stem;
},
{
horizontal = 1;
place = "{782, 98}";
type = Stem;
},
{
place = "{315, 81}";
type = Stem;
},
{
place = "{453, 82}";
type = Stem;
}
);
layerId = "59338637-1E5C-47E2-9B1C-5C70074789A9";
paths = (
{
closed = 1;
nodes = (
"702 0 LINE",
"833 94 LINE",
"921 595 LINE",
"1096 595 LINE",
"1294 801 LINE",
"1017 801 LINE",
"977 689 LINE",
"937 689 LINE",
"946 737 LINE",
"583 737 LINE",
"477 138 LINE",
"420 138 LINE",
"526 737 LINE",
"163 737 LINE",
"50 94 LINE",
"147 0 LINE"
);
},
{
closed = 1;
nodes = (
"673 782 LINE",
"679 814 LINE",
"719 814 LINE",
"782 868 LINE",
"801 975 LINE",
"746 1030 LINE",
"474 1030 LINE",
"399 975 LINE",
"387 908 LINE",
"566 908 LINE",
"575 960 LINE",
"614 960 LINE",
"600 880 LINE",
"516 880 LINE",
"462 834 LINE",
"453 782 LINE"
);
}
);
width = 849;
}
);
note = uni1EEC;
unicode = 1EEC;
},
{
glyphname = uni1EEE;
lastChange = "2019-09-04 10:55:16 +0000";
layers = (
{
hints = (
{
horizontal = 1;
place = "{0, 138}";
type = Stem;
},
{
horizontal = 1;
place = "{595, 142}";
type = Stem;
},
{
horizontal = 1;
place = "{789, 168}";
type = Stem;
},
{
place = "{158, 155}";
type = Stem;
},
{
place = "{536, 156}";
type = Stem;
},
{
horizontal = 1;
place = "{783, 169}";
type = Stem;
}
);
layerId = "59338637-1E5C-47E2-9B1C-5C70074789A9";
paths = (
{
closed = 1;
nodes = (
"702 0 LINE",
"833 94 LINE",
"921 595 LINE",
"1096 595 LINE",
"1294 801 LINE",
"1017 801 LINE",
"977 689 LINE",
"937 689 LINE",
"946 737 LINE",
"583 737 LINE",
"477 138 LINE",
"420 138 LINE",
"526 737 LINE",
"163 737 LINE",
"50 94 LINE",
"147 0 LINE"
);
},
{
closed = 1;
nodes = (
"737 783 LINE",
"843 859 LINE",
"860 952 LINE",
"704 952 LINE",
"696 910 LINE",
"661 910 LINE",
"615 957 LINE",
"419 957 LINE",
"313 881 LINE",
"297 789 LINE",
"452 789 LINE",
"460 831 LINE",
"495 831 LINE",
"541 783 LINE"
);
}
);
width = 849;
}
);
note = uni1EEE;
unicode = 1EEE;
},
{
glyphname = Uhungarumlaut;
lastChange = "2019-09-04 10:55:16 +0000";
layers = (
{
hints = (
{
horizontal = 1;
place = "{0, 138}";
type = Stem;
},
{
horizontal = 1;
place = "{783, 169}";
type = Stem;
},
{
place = "{33, 814}";
type = Stem;
}
);
layerId = "59338637-1E5C-47E2-9B1C-5C70074789A9";
paths = (
{
closed = 1;
nodes = (
"702 0 LINE",
"833 94 LINE",
"946 737 LINE",
"583 737 LINE",
"477 138 LINE",
"420 138 LINE",
"526 737 LINE",
"163 737 LINE",
"50 94 LINE",
"147 0 LINE"
);
},
{
closed = 1;
nodes = (
"525 783 LINE",
"726 952 LINE",
"456 952 LINE",
"330 783 LINE"
);
},
{
closed = 1;
nodes = (
"813 783 LINE",
"1015 952 LINE",
"744 952 LINE",
"618 783 LINE"
);
}
);
width = 849;
}
);
note = Uhungarumlaut;
unicode = 0170;
},
{
glyphname = uni0216;
lastChange = "2019-09-04 10:55:16 +0000";
layers = (
{
hints = (
{
horizontal = 1;
place = "{0, 138}";
type = Stem;
},
{
horizontal = 1;
place = "{783, 169}";
type = Stem;
},
{
place = "{188, 208}";
type = Stem;
},
{
place = "{453, 208}";
type = Stem;
}
);
layerId = "59338637-1E5C-47E2-9B1C-5C70074789A9";
paths = (
{
closed = 1;
nodes = (
"702 0 LINE",
"833 94 LINE",
"946 737 LINE",
"583 737 LINE",
"477 138 LINE",
"420 138 LINE",
"526 737 LINE",
"163 737 LINE",
"50 94 LINE",
"147 0 LINE"
);
},
{
closed = 1;
nodes = (
"500 783 LINE",
"507 825 LINE",
"632 825 LINE",
"625 783 LINE",
"799 783 LINE",
"814 865 LINE",
"733 952 LINE",
"451 952 LINE",
"341 865 LINE",
"326 783 LINE"
);
}
);
width = 849;
}
);
note = uni0216;
unicode = 0216;
},
{
glyphname = Umacron;
lastChange = "2019-09-04 10:55:16 +0000";
layers = (
{
hints = (
{
horizontal = 1;
place = "{0, 138}";
type = Stem;
},
{
horizontal = 1;
place = "{783, 169}";
type = Stem;
},
{
place = "{128, 268}";
type = Stem;
},
{
place = "{453, 269}";
type = Stem;
}
);
layerId = "59338637-1E5C-47E2-9B1C-5C70074789A9";
paths = (
{
closed = 1;
nodes = (
"702 0 LINE",
"833 94 LINE",
"946 737 LINE",
"583 737 LINE",
"477 138 LINE",
"420 138 LINE",
"526 737 LINE",
"163 737 LINE",
"50 94 LINE",
"147 0 LINE"
);
},
{
closed = 1;
nodes = (
"860 783 LINE",
"890 952 LINE",
"296 952 LINE",
"266 783 LINE"
);
}
);
width = 849;
}
);
note = Umacron;
unicode = 016A;
},
{
glyphname = Uogonek;
lastChange = "2019-09-04 10:55:16 +0000";
layers = (
{
hints = (
{
horizontal = 1;
place = "{-198, 143}";
type = Stem;
},
{
horizontal = 1;
place = "{0, 138}";
type = Stem;
},
{
place = "{334, 188}";
type = Stem;
}
);
layerId = "59338637-1E5C-47E2-9B1C-5C70074789A9";
paths = (
{
closed = 1;
nodes = (
"487 -198 LINE",
"512 -55 LINE",
"491 -55 LINE",
"480 -44 LINE",
"484 -23 LINE",
"517 0 LINE",
"702 0 LINE",
"833 94 LINE",
"946 737 LINE",
"583 737 LINE",
"477 138 LINE",
"420 138 LINE",
"526 737 LINE",
"163 737 LINE",
"50 94 LINE",
"147 0 LINE",
"380 0 LINE",
"328 -33 LINE",
"312 -127 LINE",
"387 -198 LINE"
);
}
);
width = 849;
}
);
note = Uogonek;
unicode = 0172;
},
{
glyphname = Uring;
lastChange = "2019-09-04 10:55:16 +0000";
layers = (
{
hints = (
{
horizontal = 1;
place = "{0, 138}";
type = Stem;
},
{
horizontal = 1;
place = "{783, 107}";
type = Stem;
},
{
horizontal = 1;
place = "{925, 107}";
type = Stem;
},
{
place = "{281, 115}";
type = Stem;
},
{
place = "{453, 116}";
type = Stem;
}
);
layerId = "59338637-1E5C-47E2-9B1C-5C70074789A9";
paths = (
{
closed = 1;
nodes = (
"702 0 LINE",
"833 94 LINE",
"946 737 LINE",
"583 737 LINE",
"477 138 LINE",
"420 138 LINE",
"526 737 LINE",
"163 737 LINE",
"50 94 LINE",
"147 0 LINE"
);
},
{
closed = 1;
nodes = (
"628 783 LINE",
"721 862 LINE",
"737 953 LINE",
"672 1032 LINE",
"542 1032 LINE",
"449 953 LINE",
"433 862 LINE",
"498 783 LINE"
);
},
{
closed = 1;
nodes = (
"567 901 LINE",
"569 914 LINE",
"582 925 LINE",
"595 925 LINE",
"604 914 LINE",
"602 901 LINE",
"589 890 LINE",
"576 890 LINE"
);
}
);
width = 849;
}
);
note = Uring;
unicode = 016E;
},
{
glyphname = Utilde;
lastChange = "2019-09-04 10:55:16 +0000";
layers = (
{
hints = (
{
horizontal = 1;
place = "{0, 138}";
type = Stem;
},
{
horizontal = 1;
place = "{789, 168}";
type = Stem;
},
{
place = "{158, 155}";
type = Stem;
},
{
place = "{536, 156}";
type = Stem;
},
{
horizontal = 1;
place = "{783, 169}";
type = Stem;
}
);
layerId = "59338637-1E5C-47E2-9B1C-5C70074789A9";
paths = (
{
closed = 1;
nodes = (
"702 0 LINE",
"833 94 LINE",
"946 737 LINE",
"583 737 LINE",
"477 138 LINE",
"420 138 LINE",
"526 737 LINE",
"163 737 LINE",
"50 94 LINE",
"147 0 LINE"
);
},
{
closed = 1;
nodes = (
"737 783 LINE",
"843 859 LINE",
"860 952 LINE",
"704 952 LINE",
"696 910 LINE",
"661 910 LINE",
"615 957 LINE",
"419 957 LINE",
"313 881 LINE",
"297 789 LINE",
"452 789 LINE",
"460 831 LINE",
"495 831 LINE",
"541 783 LINE"
);
}
);
width = 849;
}
);
note = Utilde;
unicode = 0168;
},
{
glyphname = V;
lastChange = "2019-09-04 10:55:16 +0000";
layers = (
{
hints = (
{
horizontal = 1;
place = "{0, 138}";
type = Stem;
},
{
place = "{33, 783}";
type = Stem;
}
);
layerId = "59338637-1E5C-47E2-9B1C-5C70074789A9";
paths = (
{
closed = 1;
nodes = (
"629 0 LINE",
"875 333 LINE",
"946 737 LINE",
"583 737 LINE",
"477 138 LINE",
"420 138 LINE",
"526 737 LINE",
"163 737 LINE",
"92 333 LINE",
"220 0 LINE"
);
}
);
width = 849;
}
);
leftKerningGroup = V;
note = V;
rightKerningGroup = V;
unicode = 0056;
},
{
glyphname = W;
lastChange = "2019-09-04 10:55:16 +0000";
layers = (
{
hints = (
{
horizontal = 1;
place = "{0, 138}";
type = Stem;
},
{
place = "{442, 330}";
type = Stem;
}
);
layerId = "59338637-1E5C-47E2-9B1C-5C70074789A9";
paths = (
{
closed = 1;
nodes = (
"547 0 LINE",
"621 79 LINE",
"668 0 LINE",
"1005 0 LINE",
"1249 321 LINE",
"1322 737 LINE",
"959 737 LINE",
"853 138 LINE",
"796 138 LINE",
"902 737 LINE",
"572 737 LINE",
"466 138 LINE",
"409 138 LINE",
"515 737 LINE",
"152 737 LINE",
"79 321 LINE",
"209 0 LINE"
);
}
);
width = 1214;
}
);
leftKerningGroup = W;
note = W;
rightKerningGroup = W;
unicode = 0057;
},
{
glyphname = Wacute;
lastChange = "2019-09-04 10:55:16 +0000";
layers = (
{
hints = (
{
horizontal = 1;
place = "{0, 138}";
type = Stem;
},
{
horizontal = 1;
place = "{783, 169}";
type = Stem;
},
{
place = "{442, 330}";
type = Stem;
}
);
layerId = "59338637-1E5C-47E2-9B1C-5C70074789A9";
paths = (
{
closed = 1;
nodes = (
"547 0 LINE",
"621 79 LINE",
"668 0 LINE",
"1005 0 LINE",
"1249 321 LINE",
"1322 737 LINE",
"959 737 LINE",
"853 138 LINE",
"796 138 LINE",
"902 737 LINE",
"572 737 LINE",
"466 138 LINE",
"409 138 LINE",
"515 737 LINE",
"152 737 LINE",
"79 321 LINE",
"209 0 LINE"
);
},
{
closed = 1;
nodes = (
"859 783 LINE",
"1060 952 LINE",
"796 952 LINE",
"653 783 LINE"
);
}
);
width = 1214;
}
);
leftKerningGroup = W;
note = Wacute;
rightKerningGroup = W;
unicode = 1E82;
},
{
glyphname = Wcircumflex;
lastChange = "2019-09-04 10:55:16 +0000";
layers = (
{
hints = (
{
horizontal = 1;
place = "{0, 138}";
type = Stem;
},
{
horizontal = 1;
place = "{783, 169}";
type = Stem;
},
{
place = "{314, 71}";
type = Stem;
},
{
place = "{442, 330}";
type = Stem;
},
{
place = "{829, 70}";
type = Stem;
}
);
layerId = "59338637-1E5C-47E2-9B1C-5C70074789A9";
paths = (
{
closed = 1;
nodes = (
"547 0 LINE",
"621 79 LINE",
"668 0 LINE",
"1005 0 LINE",
"1249 321 LINE",
"1322 737 LINE",
"959 737 LINE",
"853 138 LINE",
"796 138 LINE",
"902 737 LINE",
"572 737 LINE",
"466 138 LINE",
"409 138 LINE",
"515 737 LINE",
"152 737 LINE",
"79 321 LINE",
"209 0 LINE"
);
},
{
closed = 1;
nodes = (
"667 783 LINE",
"759 860 LINE",
"823 783 LINE",
"1037 783 LINE",
"939 952 LINE",
"611 952 LINE",
"452 783 LINE"
);
}
);
width = 1214;
}
);
leftKerningGroup = W;
note = Wcircumflex;
rightKerningGroup = W;
unicode = 0174;
},
{
glyphname = Wdieresis;
lastChange = "2019-09-04 10:55:16 +0000";
layers = (
{
hints = (
{
horizontal = 1;
place = "{0, 138}";
type = Stem;
},
{
horizontal = 1;
place = "{783, 169}";
type = Stem;
},
{
place = "{311, 74}";
type = Stem;
},
{
place = "{442, 143}";
type = Stem;
},
{
place = "{631, 141}";
type = Stem;
},
{
place = "{829, 76}";
type = Stem;
}
);
layerId = "59338637-1E5C-47E2-9B1C-5C70074789A9";
paths = (
{
closed = 1;
nodes = (
"547 0 LINE",
"621 79 LINE",
"668 0 LINE",
"1005 0 LINE",
"1249 321 LINE",
"1322 737 LINE",
"959 737 LINE",
"853 138 LINE",
"796 138 LINE",
"902 737 LINE",
"572 737 LINE",
"466 138 LINE",
"409 138 LINE",
"515 737 LINE",
"152 737 LINE",
"79 321 LINE",
"209 0 LINE"
);
},
{
closed = 1;
nodes = (
"723 783 LINE",
"753 952 LINE",
"479 952 LINE",
"449 783 LINE"
);
},
{
closed = 1;
nodes = (
"1043 783 LINE",
"1073 952 LINE",
"799 952 LINE",
"769 783 LINE"
);
}
);
width = 1214;
}
);
leftKerningGroup = W;
note = Wdieresis;
rightKerningGroup = W;
unicode = 1E84;
},
{
glyphname = Wgrave;
lastChange = "2019-09-04 10:55:16 +0000";
layers = (
{
hints = (
{
horizontal = 1;
place = "{0, 138}";
type = Stem;
},
{
horizontal = 1;
place = "{783, 169}";
type = Stem;
},
{
place = "{442, 330}";
type = Stem;
}
);
layerId = "59338637-1E5C-47E2-9B1C-5C70074789A9";
paths = (
{
closed = 1;
nodes = (
"547 0 LINE",
"621 79 LINE",
"668 0 LINE",
"1005 0 LINE",
"1249 321 LINE",
"1322 737 LINE",
"959 737 LINE",
"853 138 LINE",
"796 138 LINE",
"902 737 LINE",
"572 737 LINE",
"466 138 LINE",
"409 138 LINE",
"515 737 LINE",
"152 737 LINE",
"79 321 LINE",
"209 0 LINE"
);
},
{
closed = 1;
nodes = (
"847 783 LINE",
"764 952 LINE",
"500 952 LINE",
"641 783 LINE"
);
}
);
width = 1214;
}
);
leftKerningGroup = W;
note = Wgrave;
rightKerningGroup = W;
unicode = 1E80;
},
{
glyphname = X;
lastChange = "2019-09-04 10:55:16 +0000";
layers = (
{
hints = (
{
horizontal = 1;
place = "{0, 737}";
type = Stem;
},
{
place = "{33, 781}";
type = Stem;
},
{
horizontal = 1;
place = "{275, 235}";
type = Stem;
}
);
layerId = "59338637-1E5C-47E2-9B1C-5C70074789A9";
paths = (
{
closed = 1;
nodes = (
"396 0 LINE",
"444 275 LINE",
"499 275 LINE",
"451 0 LINE",
"814 0 LINE",
"869 311 LINE",
"790 393 LINE",
"897 473 LINE",
"944 737 LINE",
"581 737 LINE",
"541 510 LINE",
"486 510 LINE",
"526 737 LINE",
"163 737 LINE",
"116 473 LINE",
"196 393 LINE",
"88 311 LINE",
"33 0 LINE"
);
}
);
width = 847;
}
);
note = X;
unicode = 0058;
},
{
glyphname = Y;
lastChange = "2019-09-04 10:55:16 +0000";
layers = (
{
hints = (
{
horizontal = 1;
place = "{0, 737}";
type = Stem;
},
{
place = "{231, 154}";
type = Stem;
},
{
place = "{440, 154}";
type = Stem;
}
);
layerId = "59338637-1E5C-47E2-9B1C-5C70074789A9";
paths = (
{
closed = 1;
nodes = (
"594 0 LINE",
"630 205 LINE",
"871 385 LINE",
"933 737 LINE",
"570 737 LINE",
"505 367 LINE",
"450 367 LINE",
"515 737 LINE",
"152 737 LINE",
"90 385 LINE",
"267 206 LINE",
"231 0 LINE"
);
}
);
width = 825;
}
);
leftKerningGroup = Y;
note = Y;
rightKerningGroup = Y;
unicode = 0059;
},
{
glyphname = Yacute;
lastChange = "2019-09-04 10:55:16 +0000";
layers = (
{
hints = (
{
horizontal = 1;
place = "{783, 169}";
type = Stem;
},
{
place = "{231, 154}";
type = Stem;
},
{
place = "{440, 154}";
type = Stem;
}
);
layerId = "59338637-1E5C-47E2-9B1C-5C70074789A9";
paths = (
{
closed = 1;
nodes = (
"594 0 LINE",
"630 205 LINE",
"871 385 LINE",
"933 737 LINE",
"570 737 LINE",
"505 367 LINE",
"450 367 LINE",
"515 737 LINE",
"152 737 LINE",
"90 385 LINE",
"267 206 LINE",
"231 0 LINE"
);
},
{
closed = 1;
nodes = (
"665 783 LINE",
"866 952 LINE",
"602 952 LINE",
"459 783 LINE"
);
}
);
width = 825;
}
);
leftKerningGroup = Y;
note = Yacute;
rightKerningGroup = Y;
unicode = 00DD;
},
{
glyphname = Ycircumflex;
lastChange = "2019-09-04 10:55:16 +0000";
layers = (
{
hints = (
{
horizontal = 1;
place = "{783, 169}";
type = Stem;
},
{
place = "{231, 154}";
type = Stem;
},
{
place = "{440, 154}";
type = Stem;
}
);
layerId = "59338637-1E5C-47E2-9B1C-5C70074789A9";
paths = (
{
closed = 1;
nodes = (
"594 0 LINE",
"630 205 LINE",
"871 385 LINE",
"933 737 LINE",
"570 737 LINE",
"505 367 LINE",
"450 367 LINE",
"515 737 LINE",
"152 737 LINE",
"90 385 LINE",
"267 206 LINE",
"231 0 LINE"
);
},
{
closed = 1;
nodes = (
"473 783 LINE",
"565 860 LINE",
"629 783 LINE",
"843 783 LINE",
"745 952 LINE",
"417 952 LINE",
"258 783 LINE"
);
}
);
width = 825;
}
);
leftKerningGroup = Y;
note = Ycircumflex;
rightKerningGroup = Y;
unicode = 0176;
},
{
glyphname = Ydieresis;
lastChange = "2019-09-04 10:55:16 +0000";
layers = (
{
hints = (
{
horizontal = 1;
place = "{783, 169}";
type = Stem;
},
{
place = "{117, 274}";
type = Stem;
},
{
place = "{437, 274}";
type = Stem;
},
{
place = "{231, 154}";
type = Stem;
},
{
place = "{440, 154}";
type = Stem;
}
);
layerId = "59338637-1E5C-47E2-9B1C-5C70074789A9";
paths = (
{
closed = 1;
nodes = (
"594 0 LINE",
"630 205 LINE",
"871 385 LINE",
"933 737 LINE",
"570 737 LINE",
"505 367 LINE",
"450 367 LINE",
"515 737 LINE",
"152 737 LINE",
"90 385 LINE",
"267 206 LINE",
"231 0 LINE"
);
},
{
closed = 1;
nodes = (
"529 783 LINE",
"559 952 LINE",
"285 952 LINE",
"255 783 LINE"
);
},
{
closed = 1;
nodes = (
"849 783 LINE",
"879 952 LINE",
"605 952 LINE",
"575 783 LINE"
);
}
);
width = 825;
}
);
leftKerningGroup = Y;
note = Ydieresis;
rightKerningGroup = Y;
unicode = 0178;
},
{
glyphname = uni1EF4;
lastChange = "2019-09-04 10:55:16 +0000";
layers = (
{
hints = (
{
horizontal = 1;
place = "{-215, 169}";
type = Stem;
},
{
place = "{231, 154}";
type = Stem;
},
{
place = "{440, 154}";
type = Stem;
},
{
place = "{259, 307}";
type = Stem;
}
);
layerId = "59338637-1E5C-47E2-9B1C-5C70074789A9";
paths = (
{
closed = 1;
nodes = (
"594 0 LINE",
"630 205 LINE",
"871 385 LINE",
"933 737 LINE",
"570 737 LINE",
"505 367 LINE",
"450 367 LINE",
"515 737 LINE",
"152 737 LINE",
"90 385 LINE",
"267 206 LINE",
"231 0 LINE"
);
},
{
closed = 1;
nodes = (
"528 -215 LINE",
"558 -46 LINE",
"251 -46 LINE",
"221 -215 LINE"
);
}
);
width = 825;
}
);
leftKerningGroup = Y;
note = uni1EF4;
rightKerningGroup = Y;
unicode = 1EF4;
},
{
glyphname = Ygrave;
lastChange = "2019-09-04 10:55:16 +0000";
layers = (
{
hints = (
{
horizontal = 1;
place = "{783, 169}";
type = Stem;
},
{
place = "{231, 154}";
type = Stem;
},
{
place = "{440, 154}";
type = Stem;
}
);
layerId = "59338637-1E5C-47E2-9B1C-5C70074789A9";
paths = (
{
closed = 1;
nodes = (
"594 0 LINE",
"630 205 LINE",
"871 385 LINE",
"933 737 LINE",
"570 737 LINE",
"505 367 LINE",
"450 367 LINE",
"515 737 LINE",
"152 737 LINE",
"90 385 LINE",
"267 206 LINE",
"231 0 LINE"
);
},
{
closed = 1;
nodes = (
"653 783 LINE",
"570 952 LINE",
"306 952 LINE",
"447 783 LINE"
);
}
);
width = 825;
}
);
leftKerningGroup = Y;
note = Ygrave;
rightKerningGroup = Y;
unicode = 1EF2;
},
{
glyphname = uni1EF6;
lastChange = "2019-09-04 10:55:16 +0000";
layers = (
{
hints = (
{
horizontal = 1;
place = "{908, 122}";
type = Stem;
},
{
place = "{215, 179}";
type = Stem;
},
{
place = "{433, 184}";
type = Stem;
},
{
horizontal = 1;
place = "{782, 98}";
type = Stem;
},
{
place = "{303, 82}";
type = Stem;
},
{
place = "{440, 83}";
type = Stem;
}
);
layerId = "59338637-1E5C-47E2-9B1C-5C70074789A9";
paths = (
{
closed = 1;
nodes = (
"594 0 LINE",
"630 205 LINE",
"871 385 LINE",
"933 737 LINE",
"570 737 LINE",
"505 367 LINE",
"450 367 LINE",
"515 737 LINE",
"152 737 LINE",
"90 385 LINE",
"267 206 LINE",
"231 0 LINE"
);
},
{
closed = 1;
nodes = (
"661 782 LINE",
"667 814 LINE",
"707 814 LINE",
"770 868 LINE",
"789 975 LINE",
"734 1030 LINE",
"462 1030 LINE",
"387 975 LINE",
"375 908 LINE",
"554 908 LINE",
"563 960 LINE",
"602 960 LINE",
"588 880 LINE",
"504 880 LINE",
"450 834 LINE",
"441 782 LINE"
);
}
);
width = 825;
}
);
leftKerningGroup = Y;
note = uni1EF6;
rightKerningGroup = Y;
unicode = 1EF6;
},
{
glyphname = uni0232;
lastChange = "2019-09-04 10:55:16 +0000";
layers = (
{
hints = (
{
horizontal = 1;
place = "{783, 169}";
type = Stem;
},
{
place = "{231, 154}";
type = Stem;
},
{
place = "{440, 154}";
type = Stem;
}
);
layerId = "59338637-1E5C-47E2-9B1C-5C70074789A9";
paths = (
{
closed = 1;
nodes = (
"594 0 LINE",
"630 205 LINE",
"871 385 LINE",
"933 737 LINE",
"570 737 LINE",
"505 367 LINE",
"450 367 LINE",
"515 737 LINE",
"152 737 LINE",
"90 385 LINE",
"267 206 LINE",
"231 0 LINE"
);
},
{
closed = 1;
nodes = (
"848 783 LINE",
"878 952 LINE",
"284 952 LINE",
"254 783 LINE"
);
}
);
width = 825;
}
);
leftKerningGroup = Y;
note = uni0232;
rightKerningGroup = Y;
unicode = 0232;
},
{
glyphname = uni1EF8;
lastChange = "2019-09-04 10:55:16 +0000";
layers = (
{
hints = (
{
horizontal = 1;
place = "{789, 168}";
type = Stem;
},
{
place = "{146, 155}";
type = Stem;
},
{
place = "{524, 156}";
type = Stem;
},
{
horizontal = 1;
place = "{783, 169}";
type = Stem;
},
{
place = "{231, 154}";
type = Stem;
},
{
place = "{440, 154}";
type = Stem;
}
);
layerId = "59338637-1E5C-47E2-9B1C-5C70074789A9";
paths = (
{
closed = 1;
nodes = (
"594 0 LINE",
"630 205 LINE",
"871 385 LINE",
"933 737 LINE",
"570 737 LINE",
"505 367 LINE",
"450 367 LINE",
"515 737 LINE",
"152 737 LINE",
"90 385 LINE",
"267 206 LINE",
"231 0 LINE"
);
},
{
closed = 1;
nodes = (
"725 783 LINE",
"831 859 LINE",
"848 952 LINE",
"692 952 LINE",
"684 910 LINE",
"649 910 LINE",
"603 957 LINE",
"407 957 LINE",
"301 881 LINE",
"285 789 LINE",
"440 789 LINE",
"448 831 LINE",
"483 831 LINE",
"529 783 LINE"
);
}
);
width = 825;
}
);
leftKerningGroup = Y;
note = uni1EF8;
rightKerningGroup = Y;
unicode = 1EF8;
},
{
glyphname = Z;
lastChange = "2019-09-04 10:55:16 +0000";
layers = (
{
hints = (
{
horizontal = 1;
place = "{0, 237}";
type = Stem;
},
{
horizontal = 1;
place = "{501, 236}";
type = Stem;
},
{
place = "{22, 716}";
type = Stem;
}
);
layerId = "59338637-1E5C-47E2-9B1C-5C70074789A9";
paths = (
{
closed = 1;
nodes = (
"738 0 LINE",
"780 237 LINE",
"507 237 LINE",
"826 501 LINE",
"868 737 LINE",
"164 737 LINE",
"122 501 LINE",
"383 501 LINE",
"64 237 LINE",
"22 0 LINE"
);
}
);
width = 760;
}
);
note = Z;
unicode = 005A;
},
{
glyphname = Zacute;
lastChange = "2019-09-04 10:55:16 +0000";
layers = (
{
hints = (
{
horizontal = 1;
place = "{0, 237}";
type = Stem;
},
{
horizontal = 1;
place = "{501, 236}";
type = Stem;
},
{
horizontal = 1;
place = "{783, 169}";
type = Stem;
},
{
place = "{22, 716}";
type = Stem;
}
);
layerId = "59338637-1E5C-47E2-9B1C-5C70074789A9";
paths = (
{
closed = 1;
nodes = (
"738 0 LINE",
"780 237 LINE",
"507 237 LINE",
"826 501 LINE",
"868 737 LINE",
"164 737 LINE",
"122 501 LINE",
"383 501 LINE",
"64 237 LINE",
"22 0 LINE"
);
},
{
closed = 1;
nodes = (
"633 783 LINE",
"834 952 LINE",
"570 952 LINE",
"427 783 LINE"
);
}
);
width = 760;
}
);
note = Zacute;
unicode = 0179;
},
{
glyphname = Zcaron;
lastChange = "2019-09-04 10:55:16 +0000";
layers = (
{
hints = (
{
horizontal = 1;
place = "{0, 237}";
type = Stem;
},
{
horizontal = 1;
place = "{501, 236}";
type = Stem;
},
{
horizontal = 1;
place = "{783, 169}";
type = Stem;
},
{
place = "{22, 716}";
type = Stem;
}
);
layerId = "59338637-1E5C-47E2-9B1C-5C70074789A9";
paths = (
{
closed = 1;
nodes = (
"738 0 LINE",
"780 237 LINE",
"507 237 LINE",
"826 501 LINE",
"868 737 LINE",
"164 737 LINE",
"122 501 LINE",
"383 501 LINE",
"64 237 LINE",
"22 0 LINE"
);
},
{
closed = 1;
nodes = (
"682 783 LINE",
"841 952 LINE",
"626 952 LINE",
"534 875 LINE",
"470 952 LINE",
"256 952 LINE",
"354 783 LINE"
);
}
);
width = 760;
}
);
note = Zcaron;
unicode = 017D;
},
{
glyphname = Zdotaccent;
lastChange = "2019-09-04 10:55:16 +0000";
layers = (
{
hints = (
{
horizontal = 1;
place = "{0, 237}";
type = Stem;
},
{
horizontal = 1;
place = "{501, 236}";
type = Stem;
},
{
horizontal = 1;
place = "{783, 168}";
type = Stem;
},
{
place = "{227, 307}";
type = Stem;
}
);
layerId = "59338637-1E5C-47E2-9B1C-5C70074789A9";
paths = (
{
closed = 1;
nodes = (
"738 0 LINE",
"780 237 LINE",
"507 237 LINE",
"826 501 LINE",
"868 737 LINE",
"164 737 LINE",
"122 501 LINE",
"383 501 LINE",
"64 237 LINE",
"22 0 LINE"
);
},
{
closed = 1;
nodes = (
"672 783 LINE",
"702 951 LINE",
"395 951 LINE",
"365 783 LINE"
);
}
);
width = 760;
}
);
note = Zdotaccent;
unicode = 017B;
},
{
glyphname = a;
lastChange = "2019-09-04 10:55:16 +0000";
layers = (
{
hints = (
{
horizontal = 1;
place = "{242, 80}";
type = Stem;
},
{
horizontal = 1;
place = "{369, 154}";
type = Stem;
},
{
place = "{11, 274}";
type = Stem;
},
{
place = "{331, 307}";
type = Stem;
}
);
layerId = "59338637-1E5C-47E2-9B1C-5C70074789A9";
paths = (
{
closed = 1;
nodes = (
"278 0 LINE",
"341 58 LINE",
"331 0 LINE",
"638 0 LINE",
"714 429 LINE",
"616 523 LINE",
"165 523 LINE",
"138 369 LINE",
"396 369 LINE",
"388 322 LINE",
"162 322 LINE",
"48 208 LINE",
"31 114 LINE",
"105 0 LINE"
);
},
{
closed = 1;
nodes = (
"328 242 LINE",
"374 242 LINE",
"358 154 LINE",
"347 144 LINE",
"303 102 LINE"
);
}
);
width = 671;
}
);
leftKerningGroup = a;
note = a;
rightKerningGroup = a;
unicode = 0061;
},
{
glyphname = aacute;
lastChange = "2019-09-04 10:55:16 +0000";
layers = (
{
hints = (
{
horizontal = 1;
place = "{242, 80}";
type = Stem;
},
{
horizontal = 1;
place = "{369, 154}";
type = Stem;
},
{
horizontal = 1;
place = "{569, 169}";
type = Stem;
},
{
place = "{11, 274}";
type = Stem;
},
{
place = "{331, 307}";
type = Stem;
}
);
layerId = "59338637-1E5C-47E2-9B1C-5C70074789A9";
paths = (
{
closed = 1;
nodes = (
"278 0 LINE",
"341 58 LINE",
"331 0 LINE",
"638 0 LINE",
"714 429 LINE",
"616 523 LINE",
"165 523 LINE",
"138 369 LINE",
"396 369 LINE",
"388 322 LINE",
"162 322 LINE",
"48 208 LINE",
"31 114 LINE",
"105 0 LINE"
);
},
{
closed = 1;
nodes = (
"328 242 LINE",
"374 242 LINE",
"358 154 LINE",
"347 144 LINE",
"303 102 LINE"
);
},
{
closed = 1;
nodes = (
"561 569 LINE",
"762 738 LINE",
"498 738 LINE",
"355 569 LINE"
);
}
);
width = 671;
}
);
leftKerningGroup = a;
note = aacute;
rightKerningGroup = a;
unicode = 00E1;
},
{
glyphname = abreve;
lastChange = "2019-09-04 10:55:16 +0000";
layers = (
{
hints = (
{
horizontal = 1;
place = "{242, 80}";
type = Stem;
},
{
horizontal = 1;
place = "{369, 154}";
type = Stem;
},
{
horizontal = 1;
place = "{569, 169}";
type = Stem;
},
{
place = "{76, 226}";
type = Stem;
},
{
place = "{392, 225}";
type = Stem;
},
{
place = "{11, 274}";
type = Stem;
},
{
place = "{331, 307}";
type = Stem;
}
);
layerId = "59338637-1E5C-47E2-9B1C-5C70074789A9";
paths = (
{
closed = 1;
nodes = (
"278 0 LINE",
"341 58 LINE",
"331 0 LINE",
"638 0 LINE",
"714 429 LINE",
"616 523 LINE",
"165 523 LINE",
"138 369 LINE",
"396 369 LINE",
"388 322 LINE",
"162 322 LINE",
"48 208 LINE",
"31 114 LINE",
"105 0 LINE"
);
},
{
closed = 1;
nodes = (
"328 242 LINE",
"374 242 LINE",
"358 154 LINE",
"347 144 LINE",
"303 102 LINE"
);
},
{
closed = 1;
nodes = (
"603 569 LINE",
"734 663 LINE",
"747 738 LINE",
"522 738 LINE",
"514 690 LINE",
"424 690 LINE",
"432 738 LINE",
"206 738 LINE",
"193 663 LINE",
"290 569 LINE"
);
}
);
width = 671;
}
);
leftKerningGroup = a;
note = abreve;
rightKerningGroup = a;
unicode = 0103;
},
{
glyphname = uni1EAF;
lastChange = "2019-09-04 10:55:16 +0000";
layers = (
{
hints = (
{
horizontal = 1;
place = "{242, 80}";
type = Stem;
},
{
horizontal = 1;
place = "{369, 154}";
type = Stem;
},
{
horizontal = 1;
place = "{569, 169}";
type = Stem;
},
{
horizontal = 1;
place = "{767, 169}";
type = Stem;
},
{
place = "{11, 274}";
type = Stem;
},
{
place = "{331, 307}";
type = Stem;
},
{
place = "{76, 226}";
type = Stem;
},
{
place = "{392, 225}";
type = Stem;
}
);
layerId = "59338637-1E5C-47E2-9B1C-5C70074789A9";
paths = (
{
closed = 1;
nodes = (
"278 0 LINE",
"341 58 LINE",
"331 0 LINE",
"638 0 LINE",
"714 429 LINE",
"616 523 LINE",
"165 523 LINE",
"138 369 LINE",
"396 369 LINE",
"388 322 LINE",
"162 322 LINE",
"48 208 LINE",
"31 114 LINE",
"105 0 LINE"
);
},
{
closed = 1;
nodes = (
"328 242 LINE",
"374 242 LINE",
"358 154 LINE",
"347 144 LINE",
"303 102 LINE"
);
},
{
closed = 1;
nodes = (
"603 569 LINE",
"734 663 LINE",
"747 738 LINE",
"522 738 LINE",
"514 690 LINE",
"424 690 LINE",
"432 738 LINE",
"206 738 LINE",
"193 663 LINE",
"290 569 LINE"
);
},
{
closed = 1;
nodes = (
"586 767 LINE",
"787 936 LINE",
"523 936 LINE",
"380 767 LINE"
);
}
);
width = 671;
}
);
leftKerningGroup = a;
note = uni1EAF;
rightKerningGroup = a;
unicode = 1EAF;
},
{
glyphname = uni1EB7;
lastChange = "2019-09-04 10:55:16 +0000";
layers = (
{
hints = (
{
horizontal = 1;
place = "{-215, 169}";
type = Stem;
},
{
horizontal = 1;
place = "{242, 80}";
type = Stem;
},
{
horizontal = 1;
place = "{369, 154}";
type = Stem;
},
{
horizontal = 1;
place = "{569, 169}";
type = Stem;
},
{
place = "{76, 226}";
type = Stem;
},
{
place = "{392, 225}";
type = Stem;
},
{
place = "{193, 92}";
type = Stem;
},
{
place = "{331, 169}";
type = Stem;
},
{
place = "{331, 307}";
type = Stem;
}
);
layerId = "59338637-1E5C-47E2-9B1C-5C70074789A9";
paths = (
{
closed = 1;
nodes = (
"278 0 LINE",
"341 58 LINE",
"331 0 LINE",
"638 0 LINE",
"714 429 LINE",
"616 523 LINE",
"165 523 LINE",
"138 369 LINE",
"396 369 LINE",
"388 322 LINE",
"162 322 LINE",
"48 208 LINE",
"31 114 LINE",
"105 0 LINE"
);
},
{
closed = 1;
nodes = (
"462 -215 LINE",
"492 -46 LINE",
"185 -46 LINE",
"155 -215 LINE"
);
},
{
closed = 1;
nodes = (
"328 242 LINE",
"374 242 LINE",
"358 154 LINE",
"347 144 LINE",
"303 102 LINE"
);
},
{
closed = 1;
nodes = (
"603 569 LINE",
"734 663 LINE",
"747 738 LINE",
"522 738 LINE",
"514 690 LINE",
"424 690 LINE",
"432 738 LINE",
"206 738 LINE",
"193 663 LINE",
"290 569 LINE"
);
}
);
width = 671;
}
);
leftKerningGroup = a;
note = uni1EB7;
rightKerningGroup = a;
unicode = 1EB7;
},
{
glyphname = uni1EB1;
lastChange = "2019-09-04 10:55:16 +0000";
layers = (
{
hints = (
{
horizontal = 1;
place = "{242, 80}";
type = Stem;
},
{
horizontal = 1;
place = "{369, 154}";
type = Stem;
},
{
horizontal = 1;
place = "{569, 169}";
type = Stem;
},
{
horizontal = 1;
place = "{767, 169}";
type = Stem;
},
{
place = "{11, 274}";
type = Stem;
},
{
place = "{331, 307}";
type = Stem;
},
{
place = "{77, 225}";
type = Stem;
},
{
place = "{392, 226}";
type = Stem;
}
);
layerId = "59338637-1E5C-47E2-9B1C-5C70074789A9";
paths = (
{
closed = 1;
nodes = (
"278 0 LINE",
"341 58 LINE",
"331 0 LINE",
"638 0 LINE",
"714 429 LINE",
"616 523 LINE",
"165 523 LINE",
"138 369 LINE",
"396 369 LINE",
"388 322 LINE",
"162 322 LINE",
"48 208 LINE",
"31 114 LINE",
"105 0 LINE"
);
},
{
closed = 1;
nodes = (
"328 242 LINE",
"374 242 LINE",
"358 154 LINE",
"347 144 LINE",
"303 102 LINE"
);
},
{
closed = 1;
nodes = (
"604 569 LINE",
"735 663 LINE",
"748 738 LINE",
"522 738 LINE",
"514 690 LINE",
"424 690 LINE",
"432 738 LINE",
"207 738 LINE",
"194 663 LINE",
"291 569 LINE"
);
},
{
closed = 1;
nodes = (
"584 767 LINE",
"501 936 LINE",
"237 936 LINE",
"378 767 LINE"
);
}
);
width = 671;
}
);
leftKerningGroup = a;
note = uni1EB1;
rightKerningGroup = a;
unicode = 1EB1;
},
{
glyphname = uni1EB3;
lastChange = "2019-09-04 10:55:16 +0000";
layers = (
{
hints = (
{
horizontal = 1;
place = "{242, 80}";
type = Stem;
},
{
horizontal = 1;
place = "{369, 154}";
type = Stem;
},
{
horizontal = 1;
place = "{569, 169}";
type = Stem;
},
{
horizontal = 1;
place = "{893, 122}";
type = Stem;
},
{
place = "{146, 179}";
type = Stem;
},
{
place = "{364, 184}";
type = Stem;
},
{
horizontal = 1;
place = "{767, 98}";
type = Stem;
},
{
place = "{234, 68}";
type = Stem;
},
{
place = "{392, 62}";
type = Stem;
},
{
place = "{11, 274}";
type = Stem;
},
{
place = "{331, 307}";
type = Stem;
}
);
layerId = "59338637-1E5C-47E2-9B1C-5C70074789A9";
paths = (
{
closed = 1;
nodes = (
"278 0 LINE",
"341 58 LINE",
"331 0 LINE",
"638 0 LINE",
"714 429 LINE",
"616 523 LINE",
"165 523 LINE",
"138 369 LINE",
"396 369 LINE",
"388 322 LINE",
"162 322 LINE",
"48 208 LINE",
"31 114 LINE",
"105 0 LINE"
);
},
{
closed = 1;
nodes = (
"328 242 LINE",
"374 242 LINE",
"358 154 LINE",
"347 144 LINE",
"303 102 LINE"
);
},
{
closed = 1;
nodes = (
"603 569 LINE",
"734 663 LINE",
"747 738 LINE",
"522 738 LINE",
"514 690 LINE",
"424 690 LINE",
"432 738 LINE",
"206 738 LINE",
"193 663 LINE",
"290 569 LINE"
);
},
{
closed = 1;
nodes = (
"589 767 LINE",
"595 799 LINE",
"635 799 LINE",
"698 853 LINE",
"717 960 LINE",
"662 1015 LINE",
"390 1015 LINE",
"315 960 LINE",
"303 893 LINE",
"482 893 LINE",
"492 945 LINE",
"531 945 LINE",
"517 865 LINE",
"433 865 LINE",
"378 819 LINE",
"369 767 LINE"
);
}
);
width = 671;
}
);
leftKerningGroup = a;
note = uni1EB3;
rightKerningGroup = a;
unicode = 1EB3;
},
{
glyphname = uni1EB5;
lastChange = "2019-09-04 10:55:16 +0000";
layers = (
{
hints = (
{
horizontal = 1;
place = "{242, 80}";
type = Stem;
},
{
horizontal = 1;
place = "{369, 154}";
type = Stem;
},
{
horizontal = 1;
place = "{569, 169}";
type = Stem;
},
{
horizontal = 1;
place = "{773, 168}";
type = Stem;
},
{
place = "{80, 155}";
type = Stem;
},
{
place = "{458, 156}";
type = Stem;
},
{
horizontal = 1;
place = "{767, 169}";
type = Stem;
},
{
place = "{392, 225}";
type = Stem;
},
{
place = "{76, 226}";
type = Stem;
},
{
place = "{11, 274}";
type = Stem;
},
{
place = "{331, 307}";
type = Stem;
}
);
layerId = "59338637-1E5C-47E2-9B1C-5C70074789A9";
paths = (
{
closed = 1;
nodes = (
"278 0 LINE",
"341 58 LINE",
"331 0 LINE",
"638 0 LINE",
"714 429 LINE",
"616 523 LINE",
"165 523 LINE",
"138 369 LINE",
"396 369 LINE",
"388 322 LINE",
"162 322 LINE",
"48 208 LINE",
"31 114 LINE",
"105 0 LINE"
);
},
{
closed = 1;
nodes = (
"328 242 LINE",
"374 242 LINE",
"358 154 LINE",
"347 144 LINE",
"303 102 LINE"
);
},
{
closed = 1;
nodes = (
"603 569 LINE",
"734 663 LINE",
"747 738 LINE",
"522 738 LINE",
"514 690 LINE",
"424 690 LINE",
"432 738 LINE",
"206 738 LINE",
"193 663 LINE",
"290 569 LINE"
);
},
{
closed = 1;
nodes = (
"656 767 LINE",
"763 843 LINE",
"779 936 LINE",
"623 936 LINE",
"616 894 LINE",
"581 894 LINE",
"534 941 LINE",
"338 941 LINE",
"233 865 LINE",
"216 773 LINE",
"371 773 LINE",
"379 815 LINE",
"414 815 LINE",
"460 767 LINE"
);
}
);
width = 671;
}
);
leftKerningGroup = a;
note = uni1EB5;
rightKerningGroup = a;
unicode = 1EB5;
},
{
glyphname = acircumflex;
lastChange = "2019-09-04 10:55:16 +0000";
layers = (
{
hints = (
{
horizontal = 1;
place = "{242, 80}";
type = Stem;
},
{
horizontal = 1;
place = "{369, 154}";
type = Stem;
},
{
horizontal = 1;
place = "{569, 169}";
type = Stem;
},
{
place = "{11, 274}";
type = Stem;
},
{
place = "{331, 307}";
type = Stem;
}
);
layerId = "59338637-1E5C-47E2-9B1C-5C70074789A9";
paths = (
{
closed = 1;
nodes = (
"278 0 LINE",
"341 58 LINE",
"331 0 LINE",
"638 0 LINE",
"714 429 LINE",
"616 523 LINE",
"165 523 LINE",
"138 369 LINE",
"396 369 LINE",
"388 322 LINE",
"162 322 LINE",
"48 208 LINE",
"31 114 LINE",
"105 0 LINE"
);
},
{
closed = 1;
nodes = (
"328 242 LINE",
"374 242 LINE",
"358 154 LINE",
"347 144 LINE",
"303 102 LINE"
);
},
{
closed = 1;
nodes = (
"369 569 LINE",
"461 646 LINE",
"525 569 LINE",
"739 569 LINE",
"641 738 LINE",
"313 738 LINE",
"154 569 LINE"
);
}
);
width = 671;
}
);
leftKerningGroup = a;
note = acircumflex;
rightKerningGroup = a;
unicode = 00E2;
},
{
glyphname = uni1EA5;
lastChange = "2019-09-04 10:55:16 +0000";
layers = (
{
hints = (
{
horizontal = 1;
place = "{242, 80}";
type = Stem;
},
{
horizontal = 1;
place = "{369, 154}";
type = Stem;
},
{
horizontal = 1;
place = "{666, 169}";
type = Stem;
},
{
place = "{11, 274}";
type = Stem;
},
{
place = "{331, 307}";
type = Stem;
},
{
horizontal = 1;
place = "{569, 169}";
type = Stem;
}
);
layerId = "59338637-1E5C-47E2-9B1C-5C70074789A9";
paths = (
{
closed = 1;
nodes = (
"278 0 LINE",
"341 58 LINE",
"331 0 LINE",
"638 0 LINE",
"714 429 LINE",
"616 523 LINE",
"165 523 LINE",
"138 369 LINE",
"396 369 LINE",
"388 322 LINE",
"162 322 LINE",
"48 208 LINE",
"31 114 LINE",
"105 0 LINE"
);
},
{
closed = 1;
nodes = (
"328 242 LINE",
"374 242 LINE",
"358 154 LINE",
"347 144 LINE",
"303 102 LINE"
);
},
{
closed = 1;
nodes = (
"369 569 LINE",
"461 646 LINE",
"525 569 LINE",
"740 569 LINE",
"641 738 LINE",
"313 738 LINE",
"155 569 LINE"
);
},
{
closed = 1;
nodes = (
"929 666 LINE",
"1130 835 LINE",
"866 835 LINE",
"723 666 LINE"
);
}
);
width = 671;
}
);
leftKerningGroup = a;
note = uni1EA5;
rightKerningGroup = a;
unicode = 1EA5;
},
{
glyphname = uni1EAD;
lastChange = "2019-09-04 10:55:16 +0000";
layers = (
{
hints = (
{
horizontal = 1;
place = "{-215, 169}";
type = Stem;
},
{
horizontal = 1;
place = "{242, 80}";
type = Stem;
},
{
horizontal = 1;
place = "{369, 154}";
type = Stem;
},
{
horizontal = 1;
place = "{569, 169}";
type = Stem;
},
{
place = "{193, 92}";
type = Stem;
},
{
place = "{331, 169}";
type = Stem;
},
{
place = "{331, 307}";
type = Stem;
}
);
layerId = "59338637-1E5C-47E2-9B1C-5C70074789A9";
paths = (
{
closed = 1;
nodes = (
"278 0 LINE",
"341 58 LINE",
"331 0 LINE",
"638 0 LINE",
"714 429 LINE",
"616 523 LINE",
"165 523 LINE",
"138 369 LINE",
"396 369 LINE",
"388 322 LINE",
"162 322 LINE",
"48 208 LINE",
"31 114 LINE",
"105 0 LINE"
);
},
{
closed = 1;
nodes = (
"462 -215 LINE",
"492 -46 LINE",
"185 -46 LINE",
"155 -215 LINE"
);
},
{
closed = 1;
nodes = (
"328 242 LINE",
"374 242 LINE",
"358 154 LINE",
"347 144 LINE",
"303 102 LINE"
);
},
{
closed = 1;
nodes = (
"369 569 LINE",
"461 646 LINE",
"525 569 LINE",
"739 569 LINE",
"641 738 LINE",
"313 738 LINE",
"154 569 LINE"
);
}
);
width = 671;
}
);
leftKerningGroup = a;
note = uni1EAD;
rightKerningGroup = a;
unicode = 1EAD;
},
{
glyphname = uni1EA7;
lastChange = "2019-09-04 10:55:16 +0000";
layers = (
{
hints = (
{
horizontal = 1;
place = "{242, 80}";
type = Stem;
},
{
horizontal = 1;
place = "{369, 154}";
type = Stem;
},
{
horizontal = 1;
place = "{666, 169}";
type = Stem;
},
{
place = "{11, 274}";
type = Stem;
},
{
place = "{331, 307}";
type = Stem;
},
{
horizontal = 1;
place = "{569, 169}";
type = Stem;
}
);
layerId = "59338637-1E5C-47E2-9B1C-5C70074789A9";
paths = (
{
closed = 1;
nodes = (
"278 0 LINE",
"341 58 LINE",
"331 0 LINE",
"638 0 LINE",
"714 429 LINE",
"616 523 LINE",
"165 523 LINE",
"138 369 LINE",
"396 369 LINE",
"388 322 LINE",
"162 322 LINE",
"48 208 LINE",
"31 114 LINE",
"105 0 LINE"
);
},
{
closed = 1;
nodes = (
"328 242 LINE",
"374 242 LINE",
"358 154 LINE",
"347 144 LINE",
"303 102 LINE"
);
},
{
closed = 1;
nodes = (
"205 666 LINE",
"122 835 LINE",
"-142 835 LINE",
"-1 666 LINE"
);
},
{
closed = 1;
nodes = (
"369 569 LINE",
"461 646 LINE",
"525 569 LINE",
"739 569 LINE",
"641 738 LINE",
"313 738 LINE",
"154 569 LINE"
);
}
);
width = 671;
}
);
leftKerningGroup = a;
note = uni1EA7;
rightKerningGroup = a;
unicode = 1EA7;
},
{
glyphname = uni1EA9;
lastChange = "2019-09-04 10:55:16 +0000";
layers = (
{
hints = (
{
horizontal = 1;
place = "{242, 80}";
type = Stem;
},
{
horizontal = 1;
place = "{369, 154}";
type = Stem;
},
{
horizontal = 1;
place = "{569, 169}";
type = Stem;
},
{
horizontal = 1;
place = "{792, 122}";
type = Stem;
},
{
place = "{11, 274}";
type = Stem;
},
{
place = "{506, 179}";
type = Stem;
},
{
place = "{724, 184}";
type = Stem;
},
{
horizontal = 1;
place = "{666, 98}";
type = Stem;
},
{
place = "{331, 307}";
type = Stem;
}
);
layerId = "59338637-1E5C-47E2-9B1C-5C70074789A9";
paths = (
{
closed = 1;
nodes = (
"278 0 LINE",
"341 58 LINE",
"331 0 LINE",
"638 0 LINE",
"714 429 LINE",
"616 523 LINE",
"165 523 LINE",
"138 369 LINE",
"396 369 LINE",
"388 322 LINE",
"162 322 LINE",
"48 208 LINE",
"31 114 LINE",
"105 0 LINE"
);
},
{
closed = 1;
nodes = (
"328 242 LINE",
"374 242 LINE",
"358 154 LINE",
"347 144 LINE",
"303 102 LINE"
);
},
{
closed = 1;
nodes = (
"369 569 LINE",
"461 646 LINE",
"525 569 LINE",
"739 569 LINE",
"641 738 LINE",
"313 738 LINE",
"154 569 LINE"
);
},
{
closed = 1;
nodes = (
"931 666 LINE",
"937 698 LINE",
"977 698 LINE",
"1041 752 LINE",
"1059 859 LINE",
"1004 914 LINE",
"732 914 LINE",
"657 859 LINE",
"646 792 LINE",
"825 792 LINE",
"834 844 LINE",
"873 844 LINE",
"859 764 LINE",
"775 764 LINE",
"721 718 LINE",
"711 666 LINE"
);
}
);
width = 671;
}
);
leftKerningGroup = a;
note = uni1EA9;
rightKerningGroup = a;
unicode = 1EA9;
},
{
glyphname = uni1EAB;
lastChange = "2019-09-04 10:55:16 +0000";
layers = (
{
hints = (
{
horizontal = 1;
place = "{242, 80}";
type = Stem;
},
{
horizontal = 1;
place = "{369, 154}";
type = Stem;
},
{
horizontal = 1;
place = "{569, 169}";
type = Stem;
},
{
horizontal = 1;
place = "{773, 168}";
type = Stem;
},
{
place = "{81, 155}";
type = Stem;
},
{
place = "{459, 156}";
type = Stem;
},
{
horizontal = 1;
place = "{767, 169}";
type = Stem;
},
{
place = "{11, 274}";
type = Stem;
},
{
place = "{331, 307}";
type = Stem;
}
);
layerId = "59338637-1E5C-47E2-9B1C-5C70074789A9";
paths = (
{
closed = 1;
nodes = (
"278 0 LINE",
"341 58 LINE",
"331 0 LINE",
"638 0 LINE",
"714 429 LINE",
"616 523 LINE",
"165 523 LINE",
"138 369 LINE",
"396 369 LINE",
"388 322 LINE",
"162 322 LINE",
"48 208 LINE",
"31 114 LINE",
"105 0 LINE"
);
},
{
closed = 1;
nodes = (
"328 242 LINE",
"374 242 LINE",
"358 154 LINE",
"347 144 LINE",
"303 102 LINE"
);
},
{
closed = 1;
nodes = (
"369 569 LINE",
"461 646 LINE",
"525 569 LINE",
"739 569 LINE",
"641 738 LINE",
"313 738 LINE",
"154 569 LINE"
);
},
{
closed = 1;
nodes = (
"657 767 LINE",
"764 843 LINE",
"780 936 LINE",
"624 936 LINE",
"617 894 LINE",
"582 894 LINE",
"535 941 LINE",
"339 941 LINE",
"234 865 LINE",
"217 773 LINE",
"372 773 LINE",
"380 815 LINE",
"415 815 LINE",
"461 767 LINE"
);
}
);
width = 671;
}
);
leftKerningGroup = a;
note = uni1EAB;
rightKerningGroup = a;
unicode = 1EAB;
},
{
glyphname = uni0201;
lastChange = "2019-09-04 10:55:16 +0000";
layers = (
{
hints = (
{
horizontal = 1;
place = "{242, 80}";
type = Stem;
},
{
horizontal = 1;
place = "{369, 154}";
type = Stem;
},
{
horizontal = 1;
place = "{569, 169}";
type = Stem;
},
{
place = "{11, 274}";
type = Stem;
},
{
place = "{331, 307}";
type = Stem;
}
);
layerId = "59338637-1E5C-47E2-9B1C-5C70074789A9";
paths = (
{
closed = 1;
nodes = (
"278 0 LINE",
"341 58 LINE",
"331 0 LINE",
"638 0 LINE",
"714 429 LINE",
"616 523 LINE",
"165 523 LINE",
"138 369 LINE",
"396 369 LINE",
"388 322 LINE",
"162 322 LINE",
"48 208 LINE",
"31 114 LINE",
"105 0 LINE"
);
},
{
closed = 1;
nodes = (
"328 242 LINE",
"374 242 LINE",
"358 154 LINE",
"347 144 LINE",
"303 102 LINE"
);
},
{
closed = 1;
nodes = (
"399 569 LINE",
"316 738 LINE",
"63 738 LINE",
"205 569 LINE"
);
},
{
closed = 1;
nodes = (
"688 569 LINE",
"604 738 LINE",
"351 738 LINE",
"493 569 LINE"
);
}
);
width = 671;
}
);
leftKerningGroup = a;
note = uni0201;
rightKerningGroup = a;
unicode = 0201;
},
{
glyphname = adieresis;
lastChange = "2019-09-04 10:55:16 +0000";
layers = (
{
hints = (
{
horizontal = 1;
place = "{242, 80}";
type = Stem;
},
{
horizontal = 1;
place = "{369, 154}";
type = Stem;
},
{
horizontal = 1;
place = "{569, 169}";
type = Stem;
},
{
place = "{51, 274}";
type = Stem;
},
{
place = "{371, 274}";
type = Stem;
},
{
place = "{11, 274}";
type = Stem;
},
{
place = "{331, 307}";
type = Stem;
}
);
layerId = "59338637-1E5C-47E2-9B1C-5C70074789A9";
paths = (
{
closed = 1;
nodes = (
"278 0 LINE",
"341 58 LINE",
"331 0 LINE",
"638 0 LINE",
"714 429 LINE",
"616 523 LINE",
"165 523 LINE",
"138 369 LINE",
"396 369 LINE",
"388 322 LINE",
"162 322 LINE",
"48 208 LINE",
"31 114 LINE",
"105 0 LINE"
);
},
{
closed = 1;
nodes = (
"328 242 LINE",
"374 242 LINE",
"358 154 LINE",
"347 144 LINE",
"303 102 LINE"
);
},
{
closed = 1;
nodes = (
"425 569 LINE",
"455 738 LINE",
"181 738 LINE",
"151 569 LINE"
);
},
{
closed = 1;
nodes = (
"745 569 LINE",
"775 738 LINE",
"501 738 LINE",
"471 569 LINE"
);
}
);
width = 671;
}
);
leftKerningGroup = a;
note = adieresis;
rightKerningGroup = a;
unicode = 00E4;
},
{
glyphname = uni1EA1;
lastChange = "2019-09-04 10:55:16 +0000";
layers = (
{
hints = (
{
horizontal = 1;
place = "{-215, 169}";
type = Stem;
},
{
horizontal = 1;
place = "{242, 80}";
type = Stem;
},
{
horizontal = 1;
place = "{369, 154}";
type = Stem;
},
{
place = "{193, 92}";
type = Stem;
},
{
place = "{331, 169}";
type = Stem;
},
{
place = "{331, 307}";
type = Stem;
}
);
layerId = "59338637-1E5C-47E2-9B1C-5C70074789A9";
paths = (
{
closed = 1;
nodes = (
"278 0 LINE",
"341 58 LINE",
"331 0 LINE",
"638 0 LINE",
"714 429 LINE",
"616 523 LINE",
"165 523 LINE",
"138 369 LINE",
"396 369 LINE",
"388 322 LINE",
"162 322 LINE",
"48 208 LINE",
"31 114 LINE",
"105 0 LINE"
);
},
{
closed = 1;
nodes = (
"462 -215 LINE",
"492 -46 LINE",
"185 -46 LINE",
"155 -215 LINE"
);
},
{
closed = 1;
nodes = (
"328 242 LINE",
"374 242 LINE",
"358 154 LINE",
"347 144 LINE",
"303 102 LINE"
);
}
);
width = 671;
}
);
leftKerningGroup = a;
note = uni1EA1;
rightKerningGroup = a;
unicode = 1EA1;
},
{
glyphname = agrave;
lastChange = "2019-09-04 10:55:16 +0000";
layers = (
{
hints = (
{
horizontal = 1;
place = "{242, 80}";
type = Stem;
},
{
horizontal = 1;
place = "{369, 154}";
type = Stem;
},
{
horizontal = 1;
place = "{569, 169}";
type = Stem;
},
{
place = "{11, 274}";
type = Stem;
},
{
place = "{331, 307}";
type = Stem;
}
);
layerId = "59338637-1E5C-47E2-9B1C-5C70074789A9";
paths = (
{
closed = 1;
nodes = (
"278 0 LINE",
"341 58 LINE",
"331 0 LINE",
"638 0 LINE",
"714 429 LINE",
"616 523 LINE",
"165 523 LINE",
"138 369 LINE",
"396 369 LINE",
"388 322 LINE",
"162 322 LINE",
"48 208 LINE",
"31 114 LINE",
"105 0 LINE"
);
},
{
closed = 1;
nodes = (
"328 242 LINE",
"374 242 LINE",
"358 154 LINE",
"347 144 LINE",
"303 102 LINE"
);
},
{
closed = 1;
nodes = (
"549 569 LINE",
"466 738 LINE",
"202 738 LINE",
"343 569 LINE"
);
}
);
width = 671;
}
);
leftKerningGroup = a;
note = agrave;
rightKerningGroup = a;
unicode = 00E0;
},
{
glyphname = uni1EA3;
lastChange = "2019-09-04 10:55:16 +0000";
layers = (
{
hints = (
{
horizontal = 1;
place = "{242, 80}";
type = Stem;
},
{
horizontal = 1;
place = "{369, 154}";
type = Stem;
},
{
horizontal = 1;
place = "{694, 122}";
type = Stem;
},
{
place = "{149, 179}";
type = Stem;
},
{
place = "{367, 184}";
type = Stem;
},
{
horizontal = 1;
place = "{568, 98}";
type = Stem;
},
{
place = "{11, 274}";
type = Stem;
},
{
place = "{331, 307}";
type = Stem;
}
);
layerId = "59338637-1E5C-47E2-9B1C-5C70074789A9";
paths = (
{
closed = 1;
nodes = (
"278 0 LINE",
"341 58 LINE",
"331 0 LINE",
"638 0 LINE",
"714 429 LINE",
"616 523 LINE",
"165 523 LINE",
"138 369 LINE",
"396 369 LINE",
"388 322 LINE",
"162 322 LINE",
"48 208 LINE",
"31 114 LINE",
"105 0 LINE"
);
},
{
closed = 1;
nodes = (
"328 242 LINE",
"374 242 LINE",
"358 154 LINE",
"347 144 LINE",
"303 102 LINE"
);
},
{
closed = 1;
nodes = (
"557 568 LINE",
"563 600 LINE",
"603 600 LINE",
"666 654 LINE",
"685 761 LINE",
"630 816 LINE",
"358 816 LINE",
"283 761 LINE",
"271 694 LINE",
"450 694 LINE",
"460 746 LINE",
"499 746 LINE",
"484 666 LINE",
"400 666 LINE",
"346 620 LINE",
"337 568 LINE"
);
}
);
width = 671;
}
);
leftKerningGroup = a;
note = uni1EA3;
rightKerningGroup = a;
unicode = 1EA3;
},
{
glyphname = uni0203;
lastChange = "2019-09-04 10:55:16 +0000";
layers = (
{
hints = (
{
horizontal = 1;
place = "{242, 80}";
type = Stem;
},
{
horizontal = 1;
place = "{369, 154}";
type = Stem;
},
{
horizontal = 1;
place = "{569, 169}";
type = Stem;
},
{
place = "{110, 174}";
type = Stem;
},
{
place = "{409, 174}";
type = Stem;
},
{
place = "{11, 274}";
type = Stem;
},
{
place = "{331, 307}";
type = Stem;
}
);
layerId = "59338637-1E5C-47E2-9B1C-5C70074789A9";
paths = (
{
closed = 1;
nodes = (
"278 0 LINE",
"341 58 LINE",
"331 0 LINE",
"638 0 LINE",
"714 429 LINE",
"616 523 LINE",
"165 523 LINE",
"138 369 LINE",
"396 369 LINE",
"388 322 LINE",
"162 322 LINE",
"48 208 LINE",
"31 114 LINE",
"105 0 LINE"
);
},
{
closed = 1;
nodes = (
"328 242 LINE",
"374 242 LINE",
"358 154 LINE",
"347 144 LINE",
"303 102 LINE"
);
},
{
closed = 1;
nodes = (
"384 569 LINE",
"392 611 LINE",
"517 611 LINE",
"509 569 LINE",
"683 569 LINE",
"698 651 LINE",
"617 738 LINE",
"335 738 LINE",
"225 651 LINE",
"210 569 LINE"
);
}
);
width = 671;
}
);
leftKerningGroup = a;
note = uni0203;
rightKerningGroup = a;
unicode = 0203;
},
{
glyphname = amacron;
lastChange = "2019-09-04 10:55:16 +0000";
layers = (
{
hints = (
{
horizontal = 1;
place = "{242, 80}";
type = Stem;
},
{
horizontal = 1;
place = "{369, 154}";
type = Stem;
},
{
horizontal = 1;
place = "{569, 169}";
type = Stem;
},
{
place = "{11, 274}";
type = Stem;
},
{
place = "{331, 307}";
type = Stem;
}
);
layerId = "59338637-1E5C-47E2-9B1C-5C70074789A9";
paths = (
{
closed = 1;
nodes = (
"278 0 LINE",
"341 58 LINE",
"331 0 LINE",
"638 0 LINE",
"714 429 LINE",
"616 523 LINE",
"165 523 LINE",
"138 369 LINE",
"396 369 LINE",
"388 322 LINE",
"162 322 LINE",
"48 208 LINE",
"31 114 LINE",
"105 0 LINE"
);
},
{
closed = 1;
nodes = (
"328 242 LINE",
"374 242 LINE",
"358 154 LINE",
"347 144 LINE",
"303 102 LINE"
);
},
{
closed = 1;
nodes = (
"744 569 LINE",
"774 738 LINE",
"180 738 LINE",
"150 569 LINE"
);
}
);
width = 671;
}
);
leftKerningGroup = a;
note = amacron;
rightKerningGroup = a;
unicode = 0101;
},
{
glyphname = aogonek;
lastChange = "2019-09-04 10:55:16 +0000";
layers = (
{
hints = (
{
horizontal = 1;
place = "{242, 80}";
type = Stem;
},
{
horizontal = 1;
place = "{369, 154}";
type = Stem;
},
{
place = "{11, 274}";
type = Stem;
},
{
horizontal = 1;
place = "{-198, 143}";
type = Stem;
},
{
place = "{285, 188}";
type = Stem;
},
{
place = "{331, 307}";
type = Stem;
}
);
layerId = "59338637-1E5C-47E2-9B1C-5C70074789A9";
paths = (
{
closed = 1;
nodes = (
"438 -198 LINE",
"463 -55 LINE",
"442 -55 LINE",
"431 -44 LINE",
"435 -23 LINE",
"468 0 LINE",
"638 0 LINE",
"714 429 LINE",
"616 523 LINE",
"165 523 LINE",
"138 369 LINE",
"396 369 LINE",
"388 322 LINE",
"162 322 LINE",
"48 208 LINE",
"31 114 LINE",
"105 0 LINE",
"278 0 LINE",
"341 58 LINE",
"331 0 LINE",
"279 -33 LINE",
"263 -127 LINE",
"338 -198 LINE"
);
},
{
closed = 1;
nodes = (
"328 242 LINE",
"374 242 LINE",
"358 154 LINE",
"347 144 LINE",
"303 102 LINE"
);
}
);
width = 671;
}
);
leftKerningGroup = a;
note = aogonek;
rightKerningGroup = a;
unicode = 0105;
},
{
glyphname = aring;
lastChange = "2019-09-04 10:55:16 +0000";
layers = (
{
hints = (
{
horizontal = 1;
place = "{242, 80}";
type = Stem;
},
{
horizontal = 1;
place = "{369, 154}";
type = Stem;
},
{
horizontal = 1;
place = "{569, 107}";
type = Stem;
},
{
horizontal = 1;
place = "{711, 107}";
type = Stem;
},
{
place = "{203, 127}";
type = Stem;
},
{
place = "{365, 126}";
type = Stem;
},
{
place = "{11, 274}";
type = Stem;
},
{
place = "{331, 307}";
type = Stem;
}
);
layerId = "59338637-1E5C-47E2-9B1C-5C70074789A9";
paths = (
{
closed = 1;
nodes = (
"278 0 LINE",
"341 58 LINE",
"331 0 LINE",
"638 0 LINE",
"714 429 LINE",
"616 523 LINE",
"165 523 LINE",
"138 369 LINE",
"396 369 LINE",
"388 322 LINE",
"162 322 LINE",
"48 208 LINE",
"31 114 LINE",
"105 0 LINE"
);
},
{
closed = 1;
nodes = (
"328 242 LINE",
"374 242 LINE",
"358 154 LINE",
"347 144 LINE",
"303 102 LINE"
);
},
{
closed = 1;
nodes = (
"512 569 LINE",
"605 648 LINE",
"621 739 LINE",
"556 818 LINE",
"426 818 LINE",
"333 739 LINE",
"317 648 LINE",
"382 569 LINE"
);
},
{
closed = 1;
nodes = (
"451 687 LINE",
"453 700 LINE",
"466 711 LINE",
"479 711 LINE",
"488 700 LINE",
"486 687 LINE",
"473 676 LINE",
"460 676 LINE"
);
}
);
width = 671;
}
);
leftKerningGroup = a;
note = aring;
rightKerningGroup = a;
unicode = 00E5;
},
{
glyphname = aringacute;
lastChange = "2019-09-04 10:55:16 +0000";
layers = (
{
hints = (
{
horizontal = 1;
place = "{242, 80}";
type = Stem;
},
{
horizontal = 1;
place = "{369, 154}";
type = Stem;
},
{
horizontal = 1;
place = "{569, 107}";
type = Stem;
},
{
horizontal = 1;
place = "{711, 107}";
type = Stem;
},
{
horizontal = 1;
place = "{850, 169}";
type = Stem;
},
{
place = "{11, 274}";
type = Stem;
},
{
place = "{331, 307}";
type = Stem;
},
{
place = "{203, 127}";
type = Stem;
},
{
place = "{365, 126}";
type = Stem;
}
);
layerId = "59338637-1E5C-47E2-9B1C-5C70074789A9";
paths = (
{
closed = 1;
nodes = (
"278 0 LINE",
"341 58 LINE",
"331 0 LINE",
"638 0 LINE",
"714 429 LINE",
"616 523 LINE",
"165 523 LINE",
"138 369 LINE",
"396 369 LINE",
"388 322 LINE",
"162 322 LINE",
"48 208 LINE",
"31 114 LINE",
"105 0 LINE"
);
},
{
closed = 1;
nodes = (
"328 242 LINE",
"374 242 LINE",
"358 154 LINE",
"347 144 LINE",
"303 102 LINE"
);
},
{
closed = 1;
nodes = (
"512 569 LINE",
"605 648 LINE",
"621 739 LINE",
"556 818 LINE",
"426 818 LINE",
"333 739 LINE",
"317 648 LINE",
"382 569 LINE"
);
},
{
closed = 1;
nodes = (
"451 687 LINE",
"453 700 LINE",
"466 711 LINE",
"479 711 LINE",
"488 700 LINE",
"486 687 LINE",
"473 676 LINE",
"460 676 LINE"
);
},
{
closed = 1;
nodes = (
"607 850 LINE",
"808 1019 LINE",
"544 1019 LINE",
"401 850 LINE"
);
}
);
width = 671;
}
);
leftKerningGroup = a;
note = aringacute;
rightKerningGroup = a;
unicode = 01FB;
},
{
glyphname = atilde;
lastChange = "2019-09-04 10:55:16 +0000";
layers = (
{
hints = (
{
horizontal = 1;
place = "{242, 80}";
type = Stem;
},
{
horizontal = 1;
place = "{369, 154}";
type = Stem;
},
{
horizontal = 1;
place = "{575, 168}";
type = Stem;
},
{
place = "{80, 155}";
type = Stem;
},
{
place = "{458, 156}";
type = Stem;
},
{
horizontal = 1;
place = "{569, 169}";
type = Stem;
},
{
place = "{11, 274}";
type = Stem;
},
{
place = "{331, 307}";
type = Stem;
}
);
layerId = "59338637-1E5C-47E2-9B1C-5C70074789A9";
paths = (
{
closed = 1;
nodes = (
"278 0 LINE",
"341 58 LINE",
"331 0 LINE",
"638 0 LINE",
"714 429 LINE",
"616 523 LINE",
"165 523 LINE",
"138 369 LINE",
"396 369 LINE",
"388 322 LINE",
"162 322 LINE",
"48 208 LINE",
"31 114 LINE",
"105 0 LINE"
);
},
{
closed = 1;
nodes = (
"328 242 LINE",
"374 242 LINE",
"358 154 LINE",
"347 144 LINE",
"303 102 LINE"
);
},
{
closed = 1;
nodes = (
"621 569 LINE",
"728 645 LINE",
"744 738 LINE",
"588 738 LINE",
"581 696 LINE",
"546 696 LINE",
"499 743 LINE",
"303 743 LINE",
"198 667 LINE",
"181 575 LINE",
"336 575 LINE",
"344 617 LINE",
"379 617 LINE",
"425 569 LINE"
);
}
);
width = 671;
}
);
leftKerningGroup = a;
note = atilde;
rightKerningGroup = a;
unicode = 00E3;
},
{
glyphname = ae;
lastChange = "2019-09-04 10:55:16 +0000";
layers = (
{
hints = (
{
horizontal = 1;
place = "{0, 162}";
type = Stem;
},
{
horizontal = 1;
place = "{217, 97}";
type = Stem;
},
{
horizontal = 1;
place = "{369, 154}";
type = Stem;
},
{
place = "{11, 274}";
type = Stem;
},
{
place = "{684, 263}";
type = Stem;
}
);
layerId = "59338637-1E5C-47E2-9B1C-5C70074789A9";
paths = (
{
closed = 1;
nodes = (
"318 0 LINE",
"404 79 LINE",
"486 0 LINE",
"942 0 LINE",
"971 162 LINE",
"667 162 LINE",
"676 217 LINE",
"985 217 LINE",
"1023 429 LINE",
"925 523 LINE",
"165 523 LINE",
"138 369 LINE",
"396 369 LINE",
"386 314 LINE",
"160 314 LINE",
"46 200 LINE",
"31 114 LINE",
"105 0 LINE"
);
},
{
closed = 1;
nodes = (
"323 217 LINE",
"369 217 LINE",
"358 154 LINE",
"347 144 LINE",
"303 102 LINE"
);
},
{
closed = 1;
nodes = (
"714 429 LINE",
"760 429 LINE",
"739 314 LINE",
"693 314 LINE"
);
}
);
width = 975;
}
);
leftKerningGroup = a;
note = ae;
rightKerningGroup = ae;
unicode = 00E6;
},
{
glyphname = aeacute;
lastChange = "2019-09-04 10:55:16 +0000";
layers = (
{
hints = (
{
horizontal = 1;
place = "{0, 162}";
type = Stem;
},
{
horizontal = 1;
place = "{217, 97}";
type = Stem;
},
{
horizontal = 1;
place = "{369, 154}";
type = Stem;
},
{
horizontal = 1;
place = "{569, 169}";
type = Stem;
},
{
place = "{11, 274}";
type = Stem;
},
{
place = "{684, 263}";
type = Stem;
}
);
layerId = "59338637-1E5C-47E2-9B1C-5C70074789A9";
paths = (
{
closed = 1;
nodes = (
"318 0 LINE",
"404 79 LINE",
"486 0 LINE",
"942 0 LINE",
"971 162 LINE",
"667 162 LINE",
"676 217 LINE",
"985 217 LINE",
"1023 429 LINE",
"925 523 LINE",
"165 523 LINE",
"138 369 LINE",
"396 369 LINE",
"386 314 LINE",
"160 314 LINE",
"46 200 LINE",
"31 114 LINE",
"105 0 LINE"
);
},
{
closed = 1;
nodes = (
"323 217 LINE",
"369 217 LINE",
"358 154 LINE",
"347 144 LINE",
"303 102 LINE"
);
},
{
closed = 1;
nodes = (
"714 429 LINE",
"760 429 LINE",
"739 314 LINE",
"693 314 LINE"
);
},
{
closed = 1;
nodes = (
"696 569 LINE",
"897 738 LINE",
"633 738 LINE",
"490 569 LINE"
);
}
);
width = 975;
}
);
leftKerningGroup = a;
note = aeacute;
rightKerningGroup = ae;
unicode = 01FD;
},
{
glyphname = b;
lastChange = "2019-09-04 10:55:16 +0000";
layers = (
{
hints = (
{
horizontal = 1;
place = "{0, 94}";
type = Stem;
},
{
place = "{33, 308}";
type = Stem;
},
{
place = "{387, 307}";
type = Stem;
}
);
layerId = "59338637-1E5C-47E2-9B1C-5C70074789A9";
paths = (
{
closed = 1;
nodes = (
"580 0 LINE",
"711 94 LINE",
"770 429 LINE",
"672 523 LINE",
"486 523 LINE",
"427 490 LINE",
"471 737 LINE",
"163 737 LINE",
"33 0 LINE"
);
},
{
closed = 1;
nodes = (
"411 397 LINE",
"462 425 LINE",
"404 94 LINE",
"358 94 LINE"
);
}
);
width = 722;
}
);
leftKerningGroup = b;
note = b;
rightKerningGroup = b;
unicode = 0062;
},
